{
.appVersion = "895";
customParameters = (
{
name = preferredSubfamilyName;
value = Regular;
},
{
name = description;
value = "SA School Handwriting (Beginner)";
},
{
name = sampleText;
value = "ABCDEFGHIJKLMNOPQRSTUVWXYZ abcdefghijklmnopqrstuvwyxz";
},
{
name = postscriptFontName;
value = "SABeginner-Regular";
},
{
name = styleMapStyleName;
value = regular;
},
{
name = weightClass;
value = 400;
},
{
name = widthClass;
value = 5;
},
{
name = glyphOrder;
value = (
A,
B,
C,
D,
E,
F,
G,
H,
I,
J,
K,
L,
M,
N,
O,
P,
Q,
R,
S,
T,
U,
V,
W,
X,
Y,
Z,
a,
b,
c,
d,
e,
f,
g,
h,
i,
j,
k,
l,
m,
n,
o,
p,
q,
r,
s,
t,
u,
v,
w,
x,
y,
z,
zero,
one,
two,
three,
four,
five,
six,
seven,
eight,
nine,
.notdef,
.null,
space,
period,
comma,
colon,
semicolon,
ellipsis,
exclam,
exclamdown,
question,
questiondown,
periodcentered,
bullet,
asterisk,
numbersign,
slash,
backslash,
hyphen,
endash,
emdash,
underscore,
parenleft,
parenright,
braceleft,
braceright,
bracketleft,
bracketright,
quotedbl,
quotesingle,
at,
ampersand,
degree,
bar,
brokenbar,
dollar,
plus,
minus,
multiply,
divide,
equal,
notequal,
greater,
less,
greaterequal,
lessequal,
plusminus,
approxequal,
asciicircum,
"infinity",
percent,
grave,
tilde
);
},
{
name = "Disable Last Change";
value = 1;
},
{
name = Axes;
value = (
{
Name = wght;
Tag = wght;
}
);
}
);
date = "2022-03-20 03:42:48 +0000";
designer = "Tina & Corey Anderson";
familyName = "SA Beginner";
fontMaster = (
{
alignmentZones = (
"{700, 4}",
"{650, 4}",
"{350, 4}",
"{0, -4}",
"{-300, -4}"
);
ascender = 700;
capHeight = 650;
customParameters = (
{
name = "UFO Filename";
value = "SA-Beginner-Regular.ufo";
},
{
name = "Master Name";
value = Regular;
},
{
name = preferredSubfamilyName;
value = Regular;
},
{
name = description;
value = "SA School Handwriting (Beginner)";
},
{
name = sampleText;
value = "ABCDEFGHIJKLMNOPQRSTUVWXYZ abcdefghijklmnopqrstuvwyxz";
},
{
name = postscriptFontName;
value = "SABeginner-Regular";
},
{
name = styleMapStyleName;
value = regular;
},
{

glyphs = (
{
glyphname = A;
layers = (
{
layerId = m01;
paths = (
{
closed = 1;
nodes = (
"9 -4 OFFCURVE",
"22 8 OFFCURVE",
"29 24 CURVE SMOOTH",
"278 598 LINE",
"262 600 LINE",
"345 28 LINE SMOOTH",
"347 12 OFFCURVE",
"351 -2 OFFCURVE",
"372 0 CURVE SMOOTH",
"391 2 OFFCURVE",
"396 16 OFFCURVE",
"393 34 CURVE SMOOTH",
"302 625 LINE SMOOTH",
"300 640 OFFCURVE",
"295 650 OFFCURVE",
"276 650 CURVE SMOOTH",
"259 650 OFFCURVE",
"253 641 OFFCURVE",
"246 626 CURVE SMOOTH",
"-17 40 LINE SMOOTH",
"-27 18 OFFCURVE",
"-22 4 OFFCURVE",
"-7 0 CURVE SMOOTH"
);
},
{
closed = 1;
nodes = (
"329 327 LINE",
"321 372 LINE",
"161 372 LINE",
"142 327 LINE"
);
}
);
vertWidth = 0;
width = 441;
},
{
layerId = m002;
paths = (
{
closed = 1;
nodes = (
"37 -7 OFFCURVE",
"68 3 OFFCURVE",
"81 33 CURVE SMOOTH",
"286 521 LINE",
"270 523 LINE",
"330 49 LINE SMOOTH",
"335 12 OFFCURVE",
"355 -5 OFFCURVE",
"387 0 CURVE SMOOTH",
"415 4 OFFCURVE",
"428 26 OFFCURVE",
"423 61 CURVE SMOOTH",
"336 619 LINE SMOOTH",
"333 639 OFFCURVE",
"316 650 OFFCURVE",
"288 650 CURVE SMOOTH",
"257 650 OFFCURVE",
"248 639 OFFCURVE",
"238 616 CURVE SMOOTH",
"-10 66 LINE SMOOTH",
"-23 37 OFFCURVE",
"-9 11 OFFCURVE",
"14 2 CURVE SMOOTH"
);
},
{
closed = 1;
nodes = (
"342 247 LINE",
"331 327 LINE",
"163 327 LINE",
"129 247 LINE"
);
}
);
vertWidth = 0;
width = 470;
}
);
note = "";
unicode = 0041;
},
{
glyphname = B;
lastChange = "2022-03-24 05:49:24 +0000";
layers = (
{
layerId = m01;
leftMetricsKey = N;
paths = (
{
closed = 1;
nodes = (
"285 0 OFFCURVE",
"430 69 OFFCURVE",
"442 182 CURVE SMOOTH",
"455 308 OFFCURVE",
"326 373 OFFCURVE",
"105 356 CURVE",
"101 312 LINE",
"288 330 OFFCURVE",
"401 277 OFFCURVE",
"392 189 CURVE SMOOTH",
"383 105 OFFCURVE",
"274 48 OFFCURVE",
"85 46 CURVE",
"143 605 LINE",
"314 616 OFFCURVE",
"400 556 OFFCURVE",
"392 488 CURVE SMOOTH",
"384 423 OFFCURVE",
"346 365 OFFCURVE",
"110 357 CURVE",
"106 321 LINE",
"397 333 OFFCURVE",
"431 402 OFFCURVE",
"442 484 CURVE SMOOTH",
"456 594 OFFCURVE",
"340 663 OFFCURVE",
"123 650 CURVE SMOOTH",
"106 649 OFFCURVE",
"97 641 OFFCURVE",
"95 623 CURVE SMOOTH",
"33 31 LINE SMOOTH",
"31 14 OFFCURVE",
"42 0 OFFCURVE",
"57 0 CURVE SMOOTH"
);
}
);
vertWidth = 0;
width = 503;
},
{
layerId = m002;
leftMetricsKey = N;
paths = (
{
closed = 1;
nodes = (
"321 0 OFFCURVE",
"473 69 OFFCURVE",
"486 182 CURVE SMOOTH",
"499 308 OFFCURVE",
"364 377 OFFCURVE",
"117 360 CURVE",
"109 281 LINE",
"290 294 OFFCURVE",
"391 256 OFFCURVE",
"383 195 CURVE SMOOTH",
"375 139 OFFCURVE",
"285 99 OFFCURVE",
"137 97 CURVE",
"186 559 LINE",
"319 568 OFFCURVE",
"392 519 OFFCURVE",
"386 465 CURVE SMOOTH",
"380 411 OFFCURVE",
"345 368 OFFCURVE",
"124 361 CURVE",
"117 304 LINE",
"437 316 OFFCURVE",
"476 385 OFFCURVE",
"485 469 CURVE SMOOTH",
"499 599 OFFCURVE",
"380 665 OFFCURVE",
"150 650 CURVE SMOOTH",
"117 648 OFFCURVE",
"99 643 OFFCURVE",
"95 602 CURVE SMOOTH",
"36 53 LINE SMOOTH",
"33 23 OFFCURVE",
"53 0 OFFCURVE",
"83 0 CURVE SMOOTH"
);
}
);
vertWidth = 0;
width = 547;
}
);
leftKerningGroup = H_left;
note = "";
unicode = 0042;
},
{
glyphname = C;
layers = (
{
layerId = m01;
paths = (
{
closed = 1;
nodes = (
"297 -5 OFFCURVE",
"375 63 OFFCURVE",
"406 125 CURVE SMOOTH",
"419 151 OFFCURVE",
"421 165 OFFCURVE",
"404 174 CURVE SMOOTH",
"387 183 OFFCURVE",
"375 172 OFFCURVE",
"364 149 CURVE SMOOTH",
"338 99 OFFCURVE",
"284 41 OFFCURVE",
"203 41 CURVE SMOOTH",
"105 41 OFFCURVE",
"66 153 OFFCURVE",
"99 334 CURVE SMOOTH",
"130 502 OFFCURVE",
"207 609 OFFCURVE",
"303 609 CURVE SMOOTH",
"351 609 OFFCURVE",
"390 572 OFFCURVE",
"411 557 CURVE SMOOTH",
"421 549 OFFCURVE",
"439 542 OFFCURVE",
"452 557 CURVE SMOOTH",
"465 572 OFFCURVE",
"457 587 OFFCURVE",
"448 595 CURVE SMOOTH",
"420 620 OFFCURVE",
"378 655 OFFCURVE",
"300 655 CURVE SMOOTH",
"182 655 OFFCURVE",
"86 535 OFFCURVE",
"49 340 CURVE SMOOTH",
"8 127 OFFCURVE",
"68 -5 OFFCURVE",
"207 -5 CURVE SMOOTH"
);
}
);
vertWidth = 0;
width = 480;
},
{
layerId = m002;
paths = (
{
closed = 1;
nodes = (
"340 -5 OFFCURVE",
"423 55 OFFCURVE",
"457 116 CURVE SMOOTH",
"480 158 OFFCURVE",
"465 191 OFFCURVE",
"440 204 CURVE SMOOTH",
"415 217 OFFCURVE",
"392 207 OFFCURVE",
"380 181 CURVE SMOOTH",
"357 132 OFFCURVE",
"309 83 OFFCURVE",
"232 83 CURVE SMOOTH",
"157 83 OFFCURVE",
"127 163 OFFCURVE",
"148 331 CURVE SMOOTH",
"166 477 OFFCURVE",
"227 565 OFFCURVE",
"335 565 CURVE SMOOTH",
"374 565 OFFCURVE",
"415 536 OFFCURVE",
"436 521 CURVE SMOOTH",
"458 506 OFFCURVE",
"483 509 OFFCURVE",
"499 537 CURVE SMOOTH",
"516 567 OFFCURVE",
"503 597 OFFCURVE",
"485 610 CURVE SMOOTH",
"460 629 OFFCURVE",
"389 655 OFFCURVE",
"328 655 CURVE SMOOTH",
"172 655 OFFCURVE",
"77 546 OFFCURVE",
"47 343 CURVE SMOOTH",
"16 132 OFFCURVE",
"78 -5 OFFCURVE",
"231 -5 CURVE SMOOTH"
);
}
);
vertWidth = 0;
width = 532;
}
);
leftKerningGroup = O_left;
note = "";
unicode = 0043;
},
{
glyphname = D;
lastChange = "2022-03-24 05:46:47 +0000";
layers = (
{
layerId = m01;
leftMetricsKey = N;
paths = (
{
closed = 1;
nodes = (
"122 0 LINE SMOOTH",
"321 0 OFFCURVE",
"429 128 OFFCURVE",
"453 340 CURVE SMOOTH",
"474 526 OFFCURVE",
"369 650 OFFCURVE",
"181 650 CURVE SMOOTH",
"125 650 LINE SMOOTH",
"103 650 OFFCURVE",
"98 639 OFFCURVE",
"96 623 CURVE SMOOTH",
"33 27 LINE SMOOTH",
"31 12 OFFCURVE",
"40 0 OFFCURVE",
"58 0 CURVE SMOOTH"
);
},
{
closed = 1;
nodes = (
"144 604 LINE",
"188 604 LINE SMOOTH",
"337 604 OFFCURVE",
"421 496 OFFCURVE",
"404 344 CURVE SMOOTH",
"382 152 OFFCURVE",
"293 46 OFFCURVE",
"119 46 CURVE SMOOTH",
"85 46 LINE"
);
}
);
vertWidth = 0;
width = 497;
},
{
layerId = m002;
leftMetricsKey = N;
paths = (
{
closed = 1;
nodes = (
"159 0 LINE SMOOTH",
"352 0 OFFCURVE",
"478 129 OFFCURVE",
"500 336 CURVE SMOOTH",
"519 523 OFFCURVE",
"405 650 OFFCURVE",
"213 650 CURVE SMOOTH",
"142 650 LINE SMOOTH",
"112 650 OFFCURVE",
"97 636 OFFCURVE",
"94 609 CURVE SMOOTH",
"35 49 LINE SMOOTH",
"32 22 OFFCURVE",
"53 0 OFFCURVE",
"83 0 CURVE SMOOTH"
);
},
{
closed = 1;
nodes = (
"190 562 LINE",
"202 562 LINE SMOOTH",
"336 562 OFFCURVE",
"417 489 OFFCURVE",
"403 339 CURVE SMOOTH",
"388 173 OFFCURVE",
"296 89 OFFCURVE",
"153 89 CURVE SMOOTH",
"140 89 LINE"
);
}
);
vertWidth = 0;
width = 545;
}
);
leftKerningGroup = H_left;
note = "";
rightKerningGroup = O_right;
unicode = 0044;
},
{
glyphname = E;
lastChange = "2022-03-24 05:51:53 +0000";
layers = (
{
layerId = m01;
leftMetricsKey = N;
paths = (
{
closed = 1;
nodes = (
"372 0 LINE SMOOTH",
"392 0 OFFCURVE",
"399 12 OFFCURVE",
"399 24 CURVE SMOOTH",
"399 36 OFFCURVE",
"392 46 OFFCURVE",
"372 46 CURVE SMOOTH",
"86 46 LINE",
"144 604 LINE",
"436 604 LINE SMOOTH",
"456 604 OFFCURVE",
"463 615 OFFCURVE",
"463 627 CURVE SMOOTH",
"463 639 OFFCURVE",
"456 650 OFFCURVE",
"436 650 CURVE SMOOTH",
"125 650 LINE SMOOTH",
"103 650 OFFCURVE",
"98 639 OFFCURVE",
"96 623 CURVE SMOOTH",
"33 27 LINE SMOOTH",
"31 12 OFFCURVE",
"40 0 OFFCURVE",
"58 0 CURVE SMOOTH"
);
},
{
closed = 1;
nodes = (
"381 327 LINE SMOOTH",
"401 327 OFFCURVE",
"411 338 OFFCURVE",
"411 350 CURVE SMOOTH",
"411 362 OFFCURVE",
"403 373 OFFCURVE",
"383 373 CURVE SMOOTH",
"96 373 LINE",
"91 327 LINE"
);
}
);
vertWidth = 0;
width = 477;
},
{
layerId = m002;
leftMetricsKey = N;
paths = (
{
closed = 1;
nodes = (
"407 0 LINE SMOOTH",
"437 0 OFFCURVE",
"454 26 OFFCURVE",
"454 52 CURVE SMOOTH",
"454 76 OFFCURVE",
"435 90 OFFCURVE",
"403 90 CURVE SMOOTH",
"140 90 LINE",
"189 560 LINE",
"466 560 LINE SMOOTH",
"496 560 OFFCURVE",
"514 580 OFFCURVE",
"514 606 CURVE SMOOTH",
"514 631 OFFCURVE",
"493 650 OFFCURVE",
"462 650 CURVE SMOOTH",
"145 650 LINE SMOOTH",
"114 650 OFFCURVE",
"97 639 OFFCURVE",
"94 611 CURVE SMOOTH",
"35 50 LINE SMOOTH",
"32 22 OFFCURVE",
"45 0 OFFCURVE",
"75 0 CURVE SMOOTH"
);
},
{
closed = 1;
nodes = (
"410 288 LINE SMOOTH",
"442 288 OFFCURVE",
"461 307 OFFCURVE",
"461 331 CURVE SMOOTH",
"461 357 OFFCURVE",
"439 373 OFFCURVE",
"409 373 CURVE SMOOTH",
"122 373 LINE",
"112 288 LINE"
);
}
);
vertWidth = 0;
width = 531;
}
);
leftKerningGroup = H_left;
note = "";
unicode = 0045;
},
{
glyphname = F;
lastChange = "2022-03-24 05:52:15 +0000";
layers = (
{
layerId = m01;
leftMetricsKey = N;
paths = (
{
closed = 1;
nodes = (
"80 0 OFFCURVE",
"82 15 OFFCURVE",
"83 25 CURVE SMOOTH",
"144 604 LINE",
"436 604 LINE SMOOTH",
"456 604 OFFCURVE",
"463 615 OFFCURVE",
"463 627 CURVE SMOOTH",
"463 639 OFFCURVE",
"456 650 OFFCURVE",
"436 650 CURVE SMOOTH",
"125 650 LINE SMOOTH",
"103 650 OFFCURVE",
"98 639 OFFCURVE",
"96 623 CURVE SMOOTH",
"33 27 LINE SMOOTH",
"31 12 OFFCURVE",
"40 0 OFFCURVE",
"58 0 CURVE SMOOTH"
);
},
{
closed = 1;
nodes = (
"374 327 LINE SMOOTH",
"394 327 OFFCURVE",
"402 338 OFFCURVE",
"402 350 CURVE SMOOTH",
"402 362 OFFCURVE",
"394 373 OFFCURVE",
"374 373 CURVE SMOOTH",
"97 373 LINE",
"92 327 LINE"
);
}
);
vertWidth = 0;
width = 477;
},
{
layerId = m002;
leftMetricsKey = N;
paths = (
{
closed = 1;
nodes = (
"116 0 OFFCURVE",
"133 21 OFFCURVE",
"136 51 CURVE SMOOTH",
"190 560 LINE",
"454 560 LINE SMOOTH",
"484 560 OFFCURVE",
"505 575 OFFCURVE",
"505 604 CURVE SMOOTH",
"505 632 OFFCURVE",
"484 650 OFFCURVE",
"453 650 CURVE SMOOTH",
"144 650 LINE SMOOTH",
"113 650 OFFCURVE",
"98 638 OFFCURVE",
"95 610 CURVE SMOOTH",
"36 54 LINE SMOOTH",
"33 27 OFFCURVE",
"47 0 OFFCURVE",
"75 0 CURVE SMOOTH"
);
},
{
closed = 1;
nodes = (
"400 278 LINE SMOOTH",
"432 278 OFFCURVE",
"446 297 OFFCURVE",
"446 321 CURVE SMOOTH",
"446 347 OFFCURVE",
"425 363 OFFCURVE",
"395 363 CURVE SMOOTH",
"119 363 LINE",
"110 278 LINE"
);
}
);
vertWidth = 0;
width = 522;
}
);
leftKerningGroup = H_left;
note = "";
unicode = 0046;
},
{
glyphname = G;
layers = (
{
layerId = m01;
paths = (
{
closed = 1;
nodes = (
"285 -4 OFFCURVE",
"370 95 OFFCURVE",
"434 289 CURVE",
"434 350 LINE",
"417 350 OFFCURVE",
"412 340 OFFCURVE",
"408 327 CURVE SMOOTH",
"344 138 OFFCURVE",
"255 42 OFFCURVE",
"193 42 CURVE SMOOTH",
"104 42 OFFCURVE",
"67 153 OFFCURVE",
"97 334 CURVE SMOOTH",
"126 504 OFFCURVE",
"208 609 OFFCURVE",
"313 609 CURVE SMOOTH",
"383 609 OFFCURVE",
"415 574 OFFCURVE",
"437 550 CURVE SMOOTH",
"448 539 OFFCURVE",
"463 532 OFFCURVE",
"474 542 CURVE SMOOTH",
"486 553 OFFCURVE",
"483 566 OFFCURVE",
"473 579 CURVE SMOOTH",
"448 611 OFFCURVE",
"388 655 OFFCURVE",
"320 655 CURVE SMOOTH",
"188 655 OFFCURVE",
"84 535 OFFCURVE",
"48 341 CURVE SMOOTH",
"9 128 OFFCURVE",
"60 -4 OFFCURVE",
"184 -4 CURVE SMOOTH"
);
},
{
closed = 1;
nodes = (
"426 -1 OFFCURVE",
"430 16 OFFCURVE",
"432 36 CURVE SMOOTH",
"462 323 LINE SMOOTH",
"464 340 OFFCURVE",
"451 350 OFFCURVE",
"434 350 CURVE",
"405 259 LINE",
"382 36 LINE SMOOTH",
"380 15 OFFCURVE",
"383 1 OFFCURVE",
"403 0 CURVE SMOOTH"
);
}
);
vertWidth = 0;
width = 508;
},
{
layerId = m002;
paths = (
{
closed = 1;
nodes = (
"303 -5 OFFCURVE",
"375 161 OFFCURVE",
"436 285 CURVE",
"438 370 LINE",
"400 370 OFFCURVE",
"396 361 OFFCURVE",
"344 271 CURVE SMOOTH",
"313 217 OFFCURVE",
"235 85 OFFCURVE",
"196 85 CURVE SMOOTH",
"146 85 OFFCURVE",
"127 171 OFFCURVE",
"146 329 CURVE SMOOTH",
"162 462 OFFCURVE",
"197 565 OFFCURVE",
"311 565 CURVE SMOOTH",
"367 565 OFFCURVE",
"393 552 OFFCURVE",
"408 521 CURVE SMOOTH",
"423 490 OFFCURVE",
"438 477 OFFCURVE",
"471 486 CURVE SMOOTH",
"498 493 OFFCURVE",
"502 520 OFFCURVE",
"494 545 CURVE SMOOTH",
"472 614 OFFCURVE",
"402 655 OFFCURVE",
"311 655 CURVE SMOOTH",
"151 655 OFFCURVE",
"75 531 OFFCURVE",
"47 342 CURVE SMOOTH",
"17 139 OFFCURVE",
"46 -5 OFFCURVE",
"190 -5 CURVE SMOOTH"
);
},
{
closed = 1;
nodes = (
"444 0 OFFCURVE",
"454 18 OFFCURVE",
"457 42 CURVE SMOOTH",
"487 320 LINE SMOOTH",
"490 351 OFFCURVE",
"469 370 OFFCURVE",
"438 370 CURVE",
"381 276 LINE",
"357 49 LINE SMOOTH",
"354 18 OFFCURVE",
"375 0 OFFCURVE",
"409 0 CURVE SMOOTH"
);
}
);
vertWidth = 0;
width = 533;
}
);
leftKerningGroup = O_left;
note = "";
unicode = 0047;
},
{
glyphname = H;
layers = (
{
layerId = m01;
leftMetricsKey = N;
rightMetricsKey = N;
paths = (
{
closed = 1;
nodes = (
"80 0 OFFCURVE",
"82 15 OFFCURVE",
"83 25 CURVE SMOOTH",
"146 619 LINE SMOOTH",
"148 637 OFFCURVE",
"142 650 OFFCURVE",
"125 650 CURVE SMOOTH",
"106 650 OFFCURVE",
"98 639 OFFCURVE",
"96 623 CURVE SMOOTH",
"33 27 LINE SMOOTH",
"31 12 OFFCURVE",
"40 0 OFFCURVE",
"58 0 CURVE SMOOTH"
);
},
{
closed = 1;
nodes = (
"427 327 LINE",
"432 373 LINE",
"95 373 LINE",
"90 327 LINE"
);
},
{
closed = 1;
nodes = (
"413 0 OFFCURVE",
"418 13 OFFCURVE",
"419 22 CURVE SMOOTH",
"483 621 LINE SMOOTH",
"485 638 OFFCURVE",
"478 650 OFFCURVE",
"458 650 CURVE SMOOTH",
"440 650 OFFCURVE",
"434 638 OFFCURVE",
"433 628 CURVE SMOOTH",
"369 27 LINE SMOOTH",
"368 15 OFFCURVE",
"371 0 OFFCURVE",
"394 0 CURVE SMOOTH"
);
}
);
vertWidth = 0;
width = 518;
},
{
layerId = m002;
leftMetricsKey = N;
rightMetricsKey = N;
paths = (
{
closed = 1;
nodes = (
"120 0 OFFCURVE",
"134 20 OFFCURVE",
"136 40 CURVE SMOOTH",
"193 597 LINE SMOOTH",
"197 632 OFFCURVE",
"179 650 OFFCURVE",
"150 650 CURVE SMOOTH",
"123 650 OFFCURVE",
"97 637 OFFCURVE",
"94 609 CURVE SMOOTH",
"36 49 LINE SMOOTH",
"33 21 OFFCURVE",
"54 0 OFFCURVE",
"86 0 CURVE SMOOTH"
);
},
{
closed = 1;
nodes = (
"412 287 LINE",
"420 377 LINE",
"155 377 LINE",
"147 287 LINE"
);
},
{
closed = 1;
nodes = (
"448 0 OFFCURVE",
"468 17 OFFCURVE",
"470 37 CURVE SMOOTH",
"529 599 LINE SMOOTH",
"532 631 OFFCURVE",
"511 650 OFFCURVE",
"480 650 CURVE SMOOTH",
"452 650 OFFCURVE",
"432 635 OFFCURVE",
"430 613 CURVE SMOOTH",
"371 49 LINE SMOOTH",
"368 20 OFFCURVE",
"386 0 OFFCURVE",
"419 0 CURVE SMOOTH"
);
}
);
vertWidth = 0;
width = 566;
}
);
leftKerningGroup = H_left;
note = "";
rightKerningGroup = H_right;
unicode = 0048;
},
{
glyphname = I;
lastChange = "2022-03-24 05:54:15 +0000";
layers = (
{
layerId = m01;
leftMetricsKey = N;
paths = (
{
closed = 1;
nodes = (
"126 0 LINE",
"196 650 LINE",
"145 650 LINE",
"76 0 LINE"
);
},
{
closed = 1;
nodes = (
"150 0 LINE SMOOTH",
"170 0 OFFCURVE",
"174 11 OFFCURVE",
"174 23 CURVE SMOOTH",
"174 35 OFFCURVE",
"167 46 OFFCURVE",
"147 46 CURVE SMOOTH",
"58 46 LINE SMOOTH",
"38 46 OFFCURVE",
"33 35 OFFCURVE",
"33 23 CURVE SMOOTH",
"33 11 OFFCURVE",
"41 0 OFFCURVE",
"61 0 CURVE SMOOTH"
);
},
{
closed = 1;
nodes = (
"213 604 LINE SMOOTH",
"233 604 OFFCURVE",
"237 615 OFFCURVE",
"237 627 CURVE SMOOTH",
"237 639 OFFCURVE",
"230 650 OFFCURVE",
"210 650 CURVE SMOOTH",
"121 650 LINE SMOOTH",
"101 650 OFFCURVE",
"96 639 OFFCURVE",
"96 627 CURVE SMOOTH",
"96 615 OFFCURVE",
"104 604 OFFCURVE",
"124 604 CURVE SMOOTH"
);
}
);
vertWidth = 0;
width = 272;
},
{
layerId = m002;
leftMetricsKey = N;
paths = (
{
closed = 1;
nodes = (
"198 0 LINE",
"267 650 LINE",
"167 650 LINE",
"98 0 LINE"
);
},
{
closed = 1;
nodes = (
"215 0 LINE SMOOTH",
"251 0 OFFCURVE",
"273 18 OFFCURVE",
"273 46 CURVE SMOOTH",
"273 73 OFFCURVE",
"254 90 OFFCURVE",
"224 90 CURVE SMOOTH",
"89 90 LINE SMOOTH",
"53 90 OFFCURVE",
"31 72 OFFCURVE",
"31 44 CURVE SMOOTH",
"31 17 OFFCURVE",
"50 0 OFFCURVE",
"80 0 CURVE SMOOTH"
);
},
{
closed = 1;
nodes = (
"275 560 LINE SMOOTH",
"311 560 OFFCURVE",
"333 578 OFFCURVE",
"333 606 CURVE SMOOTH",
"333 633 OFFCURVE",
"314 650 OFFCURVE",
"284 650 CURVE SMOOTH",
"149 650 LINE SMOOTH",
"113 650 OFFCURVE",
"91 632 OFFCURVE",
"91 604 CURVE SMOOTH",
"91 577 OFFCURVE",
"110 560 OFFCURVE",
"140 560 CURVE SMOOTH"
);
}
);
vertWidth = 0;
width = 367;
}
);
note = "";
unicode = 0049;
},
{
glyphname = J;
lastChange = "2022-03-24 05:54:34 +0000";
layers = (
{
layerId = m01;
paths = (
{
closed = 1;
nodes = (
"242 -5 OFFCURVE",
"291 57 OFFCURVE",
"306 205 CURVE SMOOTH",
"351 650 LINE",
"301 650 LINE",
"256 205 LINE SMOOTH",
"244 88 OFFCURVE",
"206 41 OFFCURVE",
"141 41 CURVE SMOOTH",
"99 41 OFFCURVE",
"74 71 OFFCURVE",
"54 96 CURVE SMOOTH",
"43 110 OFFCURVE",
"28 114 OFFCURVE",
"17 103 CURVE SMOOTH",
"5 91 OFFCURVE",
"8 77 OFFCURVE",
"17 65 CURVE SMOOTH",
"46 28 OFFCURVE",
"87 -5 OFFCURVE",
"141 -5 CURVE SMOOTH"
);
},
{
closed = 1;
nodes = (
"371 604 LINE SMOOTH",
"391 604 OFFCURVE",
"395 615 OFFCURVE",
"395 627 CURVE SMOOTH",
"395 639 OFFCURVE",
"388 650 OFFCURVE",
"368 650 CURVE SMOOTH",
"279 650 LINE SMOOTH",
"259 650 OFFCURVE",
"254 639 OFFCURVE",
"254 627 CURVE SMOOTH",
"254 615 OFFCURVE",
"262 604 OFFCURVE",
"282 604 CURVE SMOOTH"
);
}
);
vertWidth = 0;
width = 429;
},
{
layerId = m002;
paths = (
{
closed = 1;
nodes = (
"243 -4 OFFCURVE",
"317 54 OFFCURVE",
"332 193 CURVE SMOOTH",
"381 650 LINE",
"282 650 LINE",
"236 217 LINE SMOOTH",
"224 107 OFFCURVE",
"195 85 OFFCURVE",
"158 85 CURVE SMOOTH",
"131 85 OFFCURVE",
"101 101 OFFCURVE",
"69 133 CURVE SMOOTH",
"47 155 OFFCURVE",
"16 152 OFFCURVE",
"-4 128 CURVE SMOOTH",
"-19 110 OFFCURVE",
"-16 79 OFFCURVE",
"-1 63 CURVE SMOOTH",
"41 19 OFFCURVE",
"91 -4 OFFCURVE",
"146 -4 CURVE SMOOTH"
);
},
{
closed = 1;
nodes = (
"390 560 LINE SMOOTH",
"426 560 OFFCURVE",
"448 578 OFFCURVE",
"448 606 CURVE SMOOTH",
"448 633 OFFCURVE",
"429 650 OFFCURVE",
"399 650 CURVE SMOOTH",
"264 650 LINE SMOOTH",
"228 650 OFFCURVE",
"206 632 OFFCURVE",
"206 604 CURVE SMOOTH",
"206 577 OFFCURVE",
"225 560 OFFCURVE",
"255 560 CURVE SMOOTH"
);
}
);
vertWidth = 0;
width = 481;
}
);
note = "";
rightKerningGroup = H_right;
unicode = 004A;
},
{
glyphname = K;
lastChange = "2022-03-24 05:54:45 +0000";
layers = (
{
layerId = m01;
leftMetricsKey = N;
paths = (
{
closed = 1;
nodes = (
"409 0 OFFCURVE",
"419 10 OFFCURVE",
"419 23 CURVE SMOOTH",
"419 30 OFFCURVE",
"416 36 OFFCURVE",
"411 42 CURVE SMOOTH",
"144 374 LINE",
"139 332 LINE",
"462 602 LINE SMOOTH",
"475 614 OFFCURVE",
"481 623 OFFCURVE",
"481 631 CURVE SMOOTH",
"481 643 OFFCURVE",
"473 650 OFFCURVE",
"460 650 CURVE SMOOTH",
"451 650 OFFCURVE",
"443 647 OFFCURVE",
"431 637 CURVE SMOOTH",
"104 360 LINE",
"103 348 LINE",
"365 19 LINE SMOOTH",
"373 9 OFFCURVE",
"383 0 OFFCURVE",
"396 0 CURVE SMOOTH"
);
},
{
closed = 1;
nodes = (
"79 0 OFFCURVE",
"82 18 OFFCURVE",
"83 31 CURVE SMOOTH",
"146 619 LINE SMOOTH",
"148 637 OFFCURVE",
"144 650 OFFCURVE",
"125 650 CURVE SMOOTH",
"105 650 OFFCURVE",
"98 639 OFFCURVE",
"96 623 CURVE SMOOTH",
"33 32 LINE SMOOTH",
"31 17 OFFCURVE",
"40 0 OFFCURVE",
"58 0 CURVE SMOOTH"
);
}
);
vertWidth = 0;
width = 467;
},
{
layerId = m002;
leftMetricsKey = N;
paths = (
{
closed = 1;
nodes = (
"452 0 OFFCURVE",
"473 23 OFFCURVE",
"473 46 CURVE SMOOTH",
"473 59 OFFCURVE",
"467 71 OFFCURVE",
"456 84 CURVE SMOOTH",
"202 379 LINE",
"198 327 LINE",
"506 562 LINE SMOOTH",
"520 573 OFFCURVE",
"530 587 OFFCURVE",
"531 602 CURVE SMOOTH",
"532 625 OFFCURVE",
"513 650 OFFCURVE",
"484 650 CURVE SMOOTH",
"468 650 OFFCURVE",
"454 643 OFFCURVE",
"439 631 CURVE SMOOTH",
"139 382 LINE",
"133 312 LINE",
"378 25 LINE SMOOTH",
"391 10 OFFCURVE",
"409 0 OFFCURVE",
"428 0 CURVE SMOOTH"
);
},
{
closed = 1;
nodes = (
"119 0 OFFCURVE",
"133 19 OFFCURVE",
"136 45 CURVE SMOOTH",
"195 597 LINE SMOOTH",
"199 636 OFFCURVE",
"173 650 OFFCURVE",
"149 650 CURVE SMOOTH",
"123 650 OFFCURVE",
"99 637 OFFCURVE",
"96 609 CURVE SMOOTH",
"36 54 LINE SMOOTH",
"33 24 OFFCURVE",
"56 0 OFFCURVE",
"88 0 CURVE SMOOTH"
);
}
);
vertWidth = 0;
width = 518;
}
);
leftKerningGroup = H_left;
note = "";
unicode = 004B;
},
{
glyphname = L;
lastChange = "2022-03-24 05:56:08 +0000";
layers = (
{
layerId = m01;
leftMetricsKey = N;
paths = (
{
closed = 1;
nodes = (
"359 0 LINE SMOOTH",
"377 0 OFFCURVE",
"385 11 OFFCURVE",
"385 24 CURVE SMOOTH",
"385 38 OFFCURVE",
"376 46 OFFCURVE",
"358 46 CURVE SMOOTH",
"86 46 LINE",
"146 619 LINE SMOOTH",
"148 637 OFFCURVE",
"145 650 OFFCURVE",
"125 650 CURVE SMOOTH",
"105 650 OFFCURVE",
"98 639 OFFCURVE",
"96 623 CURVE SMOOTH",
"33 27 LINE SMOOTH",
"31 12 OFFCURVE",
"40 0 OFFCURVE",
"58 0 CURVE"
);
}
);
vertWidth = 0;
width = 432;
},
{
layerId = m002;
leftMetricsKey = N;
paths = (
{
closed = 1;
nodes = (
"394 0 LINE SMOOTH",
"424 0 OFFCURVE",
"441 22 OFFCURVE",
"441 46 CURVE SMOOTH",
"441 70 OFFCURVE",
"418 91 OFFCURVE",
"388 91 CURVE SMOOTH",
"139 91 LINE",
"193 597 LINE SMOOTH",
"197 639 OFFCURVE",
"172 650 OFFCURVE",
"147 650 CURVE SMOOTH",
"118 650 OFFCURVE",
"97 637 OFFCURVE",
"94 609 CURVE SMOOTH",
"35 49 LINE SMOOTH",
"32 21 OFFCURVE",
"48 0 OFFCURVE",
"78 0 CURVE"
);
}
);
vertWidth = 0;
width = 486;
}
);
leftKerningGroup = H_left;
note = "";
unicode = 004C;
},
{
glyphname = M;
lastChange = "2022-03-24 05:56:36 +0000";
layers = (
{
layerId = m01;
leftMetricsKey = A;
rightMetricsKey = A;
paths = (
{
closed = 1;
nodes = (
"10 0 OFFCURVE",
"22 7 OFFCURVE",
"31 25 CURVE SMOOTH",
"297 570 LINE",
"281 573 LINE",
"344 24 LINE SMOOTH",
"345 14 OFFCURVE",
"349 0 OFFCURVE",
"372 0 CURVE SMOOTH",
"391 0 OFFCURVE",
"399 17 OFFCURVE",
"403 24 CURVE SMOOTH",
"668 572 LINE",
"652 575 LINE",
"716 24 LINE SMOOTH",
"717 14 OFFCURVE",
"722 0 OFFCURVE",
"743 0 CURVE SMOOTH",
"759 0 OFFCURVE",
"768 11 OFFCURVE",
"766 26 CURVE SMOOTH",
"697 622 LINE SMOOTH",
"695 638 OFFCURVE",
"693 650 OFFCURVE",
"665 650 CURVE SMOOTH",
"650 650 OFFCURVE",
"643 635 OFFCURVE",
"638 624 CURVE SMOOTH",
"372 76 LINE",
"388 73 LINE",
"324 631 LINE SMOOTH",
"323 639 OFFCURVE",
"316 650 OFFCURVE",
"298 650 CURVE SMOOTH",
"281 650 OFFCURVE",
"275 639 OFFCURVE",
"268 625 CURVE SMOOTH",
"-18 38 LINE SMOOTH",
"-28 17 OFFCURVE",
"-20 0 OFFCURVE",
"-1 0 CURVE SMOOTH"
);
}
);
vertWidth = 0;
width = 814;
},
{
layerId = m002;
leftMetricsKey = A;
rightMetricsKey = A;
paths = (
{
closed = 1;
nodes = (
"50 0 OFFCURVE",
"79 9 OFFCURVE",
"90 33 CURVE SMOOTH",
"292 459 LINE",
"285 462 LINE",
"331 40 LINE SMOOTH",
"333 18 OFFCURVE",
"350 0 OFFCURVE",
"380 0 CURVE",
"420 0 OFFCURVE",
"430 19 OFFCURVE",
"436 31 CURVE SMOOTH",
"642 459 LINE",
"636 462 LINE",
"678 40 LINE SMOOTH",
"680 19 OFFCURVE",
"701 0 OFFCURVE",
"732 0 CURVE SMOOTH",
"761 0 OFFCURVE",
"781 20 OFFCURVE",
"778 46 CURVE SMOOTH",
"717 606 LINE SMOOTH",
"714 635 OFFCURVE",
"709 650 OFFCURVE",
"675 650 CURVE",
"644 650 OFFCURVE",
"626 638 OFFCURVE",
"615 616 CURVE SMOOTH",
"405 183 LINE",
"412 180 LINE",
"366 606 LINE SMOOTH",
"363 635 OFFCURVE",
"352 650 OFFCURVE",
"312 650 CURVE",
"284 650 OFFCURVE",
"274 638 OFFCURVE",
"264 617 CURVE SMOOTH",
"-7 64 LINE SMOOTH",
"-26 23 OFFCURVE",
"5 0 OFFCURVE",
"32 0 CURVE SMOOTH"
);
}
);
vertWidth = 0;
width = 824;
}
);
leftKerningGroup = H_left;
note = "";
rightKerningGroup = H_right;
unicode = 004D;
},
{
glyphname = N;
lastChange = "2022-03-24 05:57:55 +0000";
layers = (
{
layerId = m01;
paths = (
{
closed = 1;
nodes = (
"80 0 OFFCURVE",
"82 16 OFFCURVE",
"83 28 CURVE SMOOTH",
"142 590 LINE",
"121 586 LINE",
"368 18 LINE SMOOTH",
"373 7 OFFCURVE",
"383 0 OFFCURVE",
"396 0 CURVE SMOOTH",
"414 0 OFFCURVE",
"417 9 OFFCURVE",
"419 25 CURVE SMOOTH",
"482 619 LINE SMOOTH",
"484 637 OFFCURVE",
"480 650 OFFCURVE",
"461 650 CURVE SMOOTH",
"441 650 OFFCURVE",
"434 639 OFFCURVE",
"432 623 CURVE SMOOTH",
"374 75 LINE",
"395 79 LINE",
"156 630 LINE SMOOTH",
"151 641 OFFCURVE",
"142 650 OFFCURVE",
"124 650 CURVE SMOOTH",
"103 650 OFFCURVE",
"98 639 OFFCURVE",
"96 623 CURVE SMOOTH",
"33 27 LINE SMOOTH",
"31 12 OFFCURVE",
"40 0 OFFCURVE",
"58 0 CURVE SMOOTH"
);
}
);
vertWidth = 0;
width = 517;
},
{
layerId = m002;
paths = (
{
closed = 1;
nodes = (
"115 0 OFFCURVE",
"134 19 OFFCURVE",
"136 42 CURVE SMOOTH",
"182 489 LINE",
"158 485 LINE",
"375 28 LINE SMOOTH",
"384 10 OFFCURVE",
"400 0 OFFCURVE",
"425 0 CURVE",
"459 0 OFFCURVE",
"468 19 OFFCURVE",
"470 40 CURVE SMOOTH",
"528 597 LINE SMOOTH",
"531 629 OFFCURVE",
"514 653 OFFCURVE",
"481 653 CURVE SMOOTH",
"453 653 OFFCURVE",
"432 637 OFFCURVE",
"429 609 CURVE SMOOTH",
"384 175 LINE",
"408 179 LINE",
"199 621 LINE SMOOTH",
"189 642 OFFCURVE",
"172 650 OFFCURVE",
"149 650 CURVE SMOOTH",
"117 650 OFFCURVE",
"97 636 OFFCURVE",
"94 609 CURVE SMOOTH",
"36 49 LINE SMOOTH",
"33 21 OFFCURVE",
"53 0 OFFCURVE",
"82 0 CURVE SMOOTH"
);
}
);
vertWidth = 0;
width = 566;
}
);
leftKerningGroup = H_left;
note = "";
rightKerningGroup = H_right;
unicode = 004E;
},
{
glyphname = O;
layers = (
{
layerId = m01;
paths = (
{
closed = 1;
nodes = (
"339 -5 OFFCURVE",
"417 114 OFFCURVE",
"440 347 CURVE SMOOTH",
"458 521 OFFCURVE",
"387 655 OFFCURVE",
"271 655 CURVE SMOOTH",
"142 655 OFFCURVE",
"64 532 OFFCURVE",
"41 299 CURVE SMOOTH",
"23 125 OFFCURVE",
"94 -5 OFFCURVE",
"209 -5 CURVE SMOOTH"
);
},
{
closed = 1;
nodes = (
"128 41 OFFCURVE",
"77 149 OFFCURVE",
"91 292 CURVE SMOOTH",
"112 499 OFFCURVE",
"172 609 OFFCURVE",
"271 609 CURVE SMOOTH",
"353 609 OFFCURVE",
"404 497 OFFCURVE",
"390 354 CURVE SMOOTH",
"369 147 OFFCURVE",
"309 41 OFFCURVE",
"210 41 CURVE SMOOTH"
);
}
);
vertWidth = 0;
width = 484;
},
{
layerId = m002;
paths = (
{
closed = 1;
nodes = (
"375 -5 OFFCURVE",
"472 131 OFFCURVE",
"494 338 CURVE SMOOTH",
"513 525 OFFCURVE",
"431 655 OFFCURVE",
"302 655 CURVE",
"162 655 OFFCURVE",
"65 519 OFFCURVE",
"43 312 CURVE SMOOTH",
"24 125 OFFCURVE",
"106 -5 OFFCURVE",
"235 -5 CURVE"
);
},
{
closed = 1;
nodes = (
"171 85 OFFCURVE",
"129 176 OFFCURVE",
"142 312 CURVE SMOOTH",
"156 463 OFFCURVE",
"214 565 OFFCURVE",
"294 565 CURVE",
"366 565 OFFCURVE",
"408 474 OFFCURVE",
"395 338 CURVE SMOOTH",
"381 187 OFFCURVE",
"323 85 OFFCURVE",
"243 85 CURVE"
);
}
);
vertWidth = 0;
width = 538;
}
);
leftKerningGroup = O_left;
note = "";
rightKerningGroup = O_right;
unicode = 004F;
},
{
glyphname = P;
layers = (
{
layerId = m01;
leftMetricsKey = N;
paths = (
{
closed = 1;
nodes = (
"80 0 OFFCURVE",
"82 19 OFFCURVE",
"83 29 CURVE SMOOTH",
"144 604 LINE",
"311 602 OFFCURVE",
"409 556 OFFCURVE",
"401 477 CURVE SMOOTH",
"390 372 OFFCURVE",
"268 338 OFFCURVE",
"92 339 CURVE",
"88 294 LINE",
"283 293 OFFCURVE",
"437 336 OFFCURVE",
"451 472 CURVE SMOOTH",
"463 593 OFFCURVE",
"332 650 OFFCURVE",
"125 650 CURVE SMOOTH",
"105 650 OFFCURVE",
"98 640 OFFCURVE",
"96 623 CURVE SMOOTH",
"33 31 LINE SMOOTH",
"31 16 OFFCURVE",
"40 0 OFFCURVE",
"58 0 CURVE SMOOTH"
);
}
);
vertWidth = 0;
width = 481;
},
{
layerId = m002;
leftMetricsKey = N;
paths = (
{
closed = 1;
nodes = (
"117 0 OFFCURVE",
"133 17 OFFCURVE",
"135 39 CURVE SMOOTH",
"189 559 LINE",
"332 558 OFFCURVE",
"384 533 OFFCURVE",
"377 472 CURVE SMOOTH",
"367 382 OFFCURVE",
"238 359 OFFCURVE",
"119 357 CURVE",
"110 267 LINE",
"270 269 OFFCURVE",
"458 289 OFFCURVE",
"477 467 CURVE SMOOTH",
"492 602 OFFCURVE",
"351 650 OFFCURVE",
"140 650 CURVE SMOOTH",
"114 650 OFFCURVE",
"97 637 OFFCURVE",
"94 609 CURVE SMOOTH",
"35 48 LINE SMOOTH",
"32 21 OFFCURVE",
"50 0 OFFCURVE",
"83 0 CURVE SMOOTH"
);
}
);
vertWidth = 0;
width = 508;
}
);
leftKerningGroup = H_left;
note = "";
unicode = 0050;
},
{
glyphname = Q;
layers = (
{
layerId = m01;
leftMetricsKey = O;
rightMetricsKey = O;
paths = (
{
closed = 1;
nodes = (
"339 -5 OFFCURVE",
"417 114 OFFCURVE",
"440 347 CURVE SMOOTH",
"458 521 OFFCURVE",
"387 655 OFFCURVE",
"271 655 CURVE SMOOTH",
"142 655 OFFCURVE",
"64 532 OFFCURVE",
"41 299 CURVE SMOOTH",
"23 125 OFFCURVE",
"94 -5 OFFCURVE",
"209 -5 CURVE SMOOTH"
);
},
{
closed = 1;
nodes = (
"128 41 OFFCURVE",
"77 149 OFFCURVE",
"91 292 CURVE SMOOTH",
"112 499 OFFCURVE",
"172 609 OFFCURVE",
"271 609 CURVE SMOOTH",
"353 609 OFFCURVE",
"404 497 OFFCURVE",
"390 354 CURVE SMOOTH",
"369 147 OFFCURVE",
"309 41 OFFCURVE",
"210 41 CURVE SMOOTH"
);
},
{
closed = 1;
nodes = (
"414 -11 OFFCURVE",
"414 5 OFFCURVE",
"402 22 CURVE SMOOTH",
"291 172 LINE SMOOTH",
"276 194 OFFCURVE",
"259 200 OFFCURVE",
"246 188 CURVE SMOOTH",
"235 179 OFFCURVE",
"237 162 OFFCURVE",
"250 144 CURVE SMOOTH",
"360 -6 LINE SMOOTH",
"373 -22 OFFCURVE",
"389 -28 OFFCURVE",
"401 -20 CURVE SMOOTH"
);
}
);
vertWidth = 0;
width = 484;
},
{
layerId = m002;
leftMetricsKey = O;
rightMetricsKey = O;
paths = (
{
closed = 1;
nodes = (
"375 -5 OFFCURVE",
"472 131 OFFCURVE",
"494 338 CURVE SMOOTH",
"513 525 OFFCURVE",
"431 655 OFFCURVE",
"302 655 CURVE",
"162 655 OFFCURVE",
"65 519 OFFCURVE",
"43 312 CURVE SMOOTH",
"24 125 OFFCURVE",
"106 -5 OFFCURVE",
"235 -5 CURVE"
);
},
{
closed = 1;
nodes = (
"171 85 OFFCURVE",
"129 176 OFFCURVE",
"142 312 CURVE SMOOTH",
"156 463 OFFCURVE",
"214 565 OFFCURVE",
"294 565 CURVE",
"366 565 OFFCURVE",
"408 474 OFFCURVE",
"395 338 CURVE SMOOTH",
"381 187 OFFCURVE",
"323 85 OFFCURVE",
"243 85 CURVE"
);
},
{
closed = 1;
nodes = (
"460 2 OFFCURVE",
"462 28 OFFCURVE",
"445 52 CURVE SMOOTH",
"337 201 LINE SMOOTH",
"316 230 OFFCURVE",
"283 235 OFFCURVE",
"262 218 CURVE SMOOTH",
"243 202 OFFCURVE",
"239 177 OFFCURVE",
"260 150 CURVE SMOOTH",
"366 5 LINE SMOOTH",
"386 -21 OFFCURVE",
"417 -34 OFFCURVE",
"439 -16 CURVE SMOOTH"
);
}
);
vertWidth = 0;
width = 538;
}
);
leftKerningGroup = O_left;
note = "";
rightKerningGroup = O_right;
unicode = 0051;
},
{
glyphname = R;
layers = (
{
layerId = m01;
leftMetricsKey = N;
paths = (
{
closed = 1;
nodes = (
"79 0 OFFCURVE",
"81 16 OFFCURVE",
"83 31 CURVE SMOOTH",
"143 604 LINE",
"316 602 OFFCURVE",
"400 567 OFFCURVE",
"391 491 CURVE SMOOTH",
"382 413 OFFCURVE",
"256 348 OFFCURVE",
"92 348 CURVE",
"88 304 LINE",
"284 304 OFFCURVE",
"432 380 OFFCURVE",
"441 486 CURVE SMOOTH",
"451 606 OFFCURVE",
"338 650 OFFCURVE",
"124 650 CURVE SMOOTH",
"102 650 OFFCURVE",
"97 639 OFFCURVE",
"95 623 CURVE SMOOTH",
"33 33 LINE SMOOTH",
"31 16 OFFCURVE",
"39 0 OFFCURVE",
"57 0 CURVE SMOOTH"
);
},
{
closed = 1;
nodes = (
"376 0 OFFCURVE",
"386 7 OFFCURVE",
"388 15 CURVE SMOOTH",
"390 23 OFFCURVE",
"388 35 OFFCURVE",
"376 50 CURVE SMOOTH",
"156 329 LINE",
"98 322 LINE",
"335 19 LINE SMOOTH",
"345 6 OFFCURVE",
"358 0 OFFCURVE",
"366 0 CURVE SMOOTH"
);
}
);
vertWidth = 0;
width = 470;
},
{
layerId = m002;
leftMetricsKey = N;
paths = (
{
closed = 1;
nodes = (
"113 0 OFFCURVE",
"131 18 OFFCURVE",
"135 53 CURVE SMOOTH",
"189 563 LINE",
"350 562 OFFCURVE",
"404 551 OFFCURVE",
"396 479 CURVE SMOOTH",
"388 413 OFFCURVE",
"288 351 OFFCURVE",
"119 351 CURVE",
"110 271 LINE",
"318 271 OFFCURVE",
"486 335 OFFCURVE",
"496 477 CURVE SMOOTH",
"507 622 OFFCURVE",
"376 650 OFFCURVE",
"147 650 CURVE SMOOTH",
"116 650 OFFCURVE",
"97 637 OFFCURVE",
"94 609 CURVE SMOOTH",
"36 60 LINE SMOOTH",
"33 27 OFFCURVE",
"45 0 OFFCURVE",
"78 0 CURVE SMOOTH"
);
},
{
closed = 1;
nodes = (
"413 0 OFFCURVE",
"432 9 OFFCURVE",
"440 26 CURVE SMOOTH",
"446 39 OFFCURVE",
"446 58 OFFCURVE",
"436 71 CURVE SMOOTH",
"257 291 LINE",
"139 285 LINE",
"347 23 LINE SMOOTH",
"363 2 OFFCURVE",
"381 0 OFFCURVE",
"394 0 CURVE SMOOTH"
);
}
);
vertWidth = 0;
width = 526;
}
);
leftKerningGroup = H_left;
note = "";
unicode = 0052;
},
{
glyphname = S;
layers = (
{
layerId = m01;
paths = (
{
closed = 1;
nodes = (
"270 -5 OFFCURVE",
"355 49 OFFCURVE",
"367 162 CURVE SMOOTH",
"377 258 OFFCURVE",
"316 323 OFFCURVE",
"236 369 CURVE SMOOTH",
"154 416 OFFCURVE",
"103 455 OFFCURVE",
"109 512 CURVE SMOOTH",
"115 569 OFFCURVE",
"170 609 OFFCURVE",
"265 609 CURVE SMOOTH",
"316 609 OFFCURVE",
"347 583 OFFCURVE",
"360 547 CURVE SMOOTH",
"365 534 OFFCURVE",
"379 528 OFFCURVE",
"392 532 CURVE SMOOTH",
"406 536 OFFCURVE",
"408 552 OFFCURVE",
"402 570 CURVE SMOOTH",
"386 617 OFFCURVE",
"341 655 OFFCURVE",
"263 655 CURVE SMOOTH",
"135 655 OFFCURVE",
"69 590 OFFCURVE",
"61 516 CURVE SMOOTH",
"53 436 OFFCURVE",
"119 378 OFFCURVE",
"198 333 CURVE SMOOTH",
"286 283 OFFCURVE",
"324 236 OFFCURVE",
"318 169 CURVE SMOOTH",
"310 82 OFFCURVE",
"240 41 OFFCURVE",
"170 41 CURVE SMOOTH",
"107 41 OFFCURVE",
"70 68 OFFCURVE",
"62 99 CURVE SMOOTH",
"58 116 OFFCURVE",
"43 122 OFFCURVE",
"29 118 CURVE SMOOTH",
"14 114 OFFCURVE",
"12 98 OFFCURVE",
"16 82 CURVE SMOOTH",
"29 30 OFFCURVE",
"85 -5 OFFCURVE",
"154 -5 CURVE SMOOTH"
);
}
);
vertWidth = 0;
width = 422;
},
{
layerId = m002;
paths = (
{
closed = 1;
nodes = (
"351 -5 OFFCURVE",
"436 61 OFFCURVE",
"447 168 CURVE SMOOTH",
"460 285 OFFCURVE",
"384 350 OFFCURVE",
"316 388 CURVE SMOOTH",
"255 422 OFFCURVE",
"184 467 OFFCURVE",
"189 508 CURVE SMOOTH",
"194 546 OFFCURVE",
"235 566 OFFCURVE",
"296 566 CURVE SMOOTH",
"347 566 OFFCURVE",
"382 542 OFFCURVE",
"397 515 CURVE SMOOTH",
"412 488 OFFCURVE",
"440 481 OFFCURVE",
"467 494 CURVE SMOOTH",
"490 506 OFFCURVE",
"496 528 OFFCURVE",
"486 551 CURVE SMOOTH",
"456 617 OFFCURVE",
"402 655 OFFCURVE",
"311 655 CURVE SMOOTH",
"173 655 OFFCURVE",
"96 604 OFFCURVE",
"86 511 CURVE SMOOTH",
"76 415 OFFCURVE",
"186 346 OFFCURVE",
"251 311 CURVE SMOOTH",
"322 273 OFFCURVE",
"357 227 OFFCURVE",
"352 172 CURVE SMOOTH",
"347 122 OFFCURVE",
"298 91 OFFCURVE",
"224 91 CURVE SMOOTH",
"162 91 OFFCURVE",
"132 130 OFFCURVE",
"126 151 CURVE SMOOTH",
"117 183 OFFCURVE",
"87 193 OFFCURVE",
"62 185 CURVE SMOOTH",
"40 178 OFFCURVE",
"15 153 OFFCURVE",
"27 113 CURVE SMOOTH",
"42 61 OFFCURVE",
"113 -5 OFFCURVE",
"225 -5 CURVE SMOOTH"
);
}
);
vertWidth = 0;
width = 515;
}
);
note = "";
unicode = 0053;
},
{
glyphname = T;
layers = (
{
layerId = m01;
paths = (
{
closed = 1;
nodes = (
"234 0 OFFCURVE",
"240 18 OFFCURVE",
"242 34 CURVE SMOOTH",
"304 624 LINE",
"254 624 LINE",
"192 37 LINE SMOOTH",
"190 17 OFFCURVE",
"195 0 OFFCURVE",
"214 0 CURVE SMOOTH"
);
},
{
closed = 1;
nodes = (
"468 604 LINE SMOOTH",
"488 604 OFFCURVE",
"492 615 OFFCURVE",
"492 627 CURVE SMOOTH",
"492 639 OFFCURVE",
"485 650 OFFCURVE",
"465 650 CURVE SMOOTH",
"91 650 LINE SMOOTH",
"71 650 OFFCURVE",
"66 639 OFFCURVE",
"66 627 CURVE SMOOTH",
"66 615 OFFCURVE",
"74 604 OFFCURVE",
"94 604 CURVE SMOOTH"
);
}
);
vertWidth = 0;
width = 497;
},
{
layerId = m002;
paths = (
{
closed = 1;
nodes = (
"253 -2 OFFCURVE",
"269 22 OFFCURVE",
"271 43 CURVE SMOOTH",
"326 574 LINE",
"225 574 LINE",
"171 49 LINE SMOOTH",
"168 21 OFFCURVE",
"189 -2 OFFCURVE",
"220 -2 CURVE SMOOTH"
);
},
{
closed = 1;
nodes = (
"468 560 LINE SMOOTH",
"500 560 OFFCURVE",
"515 580 OFFCURVE",
"515 604 CURVE SMOOTH",
"515 630 OFFCURVE",
"491 650 OFFCURVE",
"461 650 CURVE SMOOTH",
"93 650 LINE SMOOTH",
"63 650 OFFCURVE",
"48 630 OFFCURVE",
"47 604 CURVE SMOOTH",
"46 580 OFFCURVE",
"68 560 OFFCURVE",
"100 560 CURVE SMOOTH"
);
}
);
vertWidth = 0;
width = 502;
}
);
note = "";
unicode = 0054;
},
{
glyphname = U;
layers = (
{
layerId = m01;
paths = (
{
closed = 1;
nodes = (
"331 -4 OFFCURVE",
"425 98 OFFCURVE",
"439 234 CURVE SMOOTH",
"480 624 LINE SMOOTH",
"482 639 OFFCURVE",
"473 650 OFFCURVE",
"455 650 CURVE SMOOTH",
"437 650 OFFCURVE",
"431 638 OFFCURVE",
"430 626 CURVE SMOOTH",
"388 234 LINE SMOOTH",
"376 124 OFFCURVE",
"304 42 OFFCURVE",
"220 42 CURVE SMOOTH",
"142 42 OFFCURVE",
"92 120 OFFCURVE",
"104 225 CURVE SMOOTH",
"146 619 LINE SMOOTH",
"148 634 OFFCURVE",
"138 650 OFFCURVE",
"123 650 CURVE SMOOTH",
"107 650 OFFCURVE",
"97 636 OFFCURVE",
"95 620 CURVE SMOOTH",
"54 228 LINE SMOOTH",
"40 95 OFFCURVE",
"111 -4 OFFCURVE",
"219 -4 CURVE SMOOTH"
);
}
);
vertWidth = 0;
width = 514;
},
{
layerId = m002;
paths = (
{
closed = 1;
nodes = (
"369 -4 OFFCURVE",
"474 105 OFFCURVE",
"490 250 CURVE SMOOTH",
"529 604 LINE SMOOTH",
"532 630 OFFCURVE",
"518 650 OFFCURVE",
"480 650 CURVE SMOOTH",
"448 650 OFFCURVE",
"432 629 OFFCURVE",
"429 606 CURVE SMOOTH",
"390 250 LINE SMOOTH",
"380 156 OFFCURVE",
"318 86 OFFCURVE",
"245 86 CURVE SMOOTH",
"184 86 OFFCURVE",
"146 152 OFFCURVE",
"156 241 CURVE SMOOTH",
"195 605 LINE SMOOTH",
"198 629 OFFCURVE",
"184 650 OFFCURVE",
"148 650 CURVE SMOOTH",
"113 650 OFFCURVE",
"96 629 OFFCURVE",
"94 606 CURVE SMOOTH",
"56 244 LINE SMOOTH",
"41 102 OFFCURVE",
"121 -4 OFFCURVE",
"244 -4 CURVE SMOOTH"
);
}
);
vertWidth = 0;
width = 566;
}
);
leftKerningGroup = H_left;
note = "";
rightKerningGroup = H_right;
unicode = 0055;
},
{
glyphname = V;
layers = (
{
layerId = m01;
paths = (
{
closed = 1;
nodes = (
"186 0 OFFCURVE",
"189 11 OFFCURVE",
"195 25 CURVE SMOOTH",
"432 618 LINE SMOOTH",
"440 638 OFFCURVE",
"430 650 OFFCURVE",
"415 650 CURVE SMOOTH",
"396 650 OFFCURVE",
"388 642 OFFCURVE",
"381 625 CURVE SMOOTH",
"202 171 LINE",
"163 59 LINE",
"176 57 LINE",
"164 169 LINE",
"97 626 LINE SMOOTH",
"96 636 OFFCURVE",
"91 650 OFFCURVE",
"69 650 CURVE SMOOTH",
"51 650 OFFCURVE",
"45 639 OFFCURVE",
"47 624 CURVE SMOOTH",
"138 28 LINE SMOOTH",
"140 15 OFFCURVE",
"149 0 OFFCURVE",
"167 0 CURVE SMOOTH"
);
}
);
vertWidth = 0;
width = 419;
},
{
layerId = m002;
paths = (
{
closed = 1;
nodes = (
"213 0 OFFCURVE",
"229 17 OFFCURVE",
"237 36 CURVE SMOOTH",
"466 591 LINE SMOOTH",
"480 625 OFFCURVE",
"458 650 OFFCURVE",
"426 650 CURVE SMOOTH",
"397 650 OFFCURVE",
"377 638 OFFCURVE",
"369 618 CURVE SMOOTH",
"245 304 LINE",
"190 149 LINE",
"209 147 LINE",
"188 304 LINE",
"146 610 LINE SMOOTH",
"143 633 OFFCURVE",
"121 650 OFFCURVE",
"89 650 CURVE SMOOTH",
"60 650 OFFCURVE",
"41 634 OFFCURVE",
"46 604 CURVE SMOOTH",
"135 46 LINE SMOOTH",
"139 21 OFFCURVE",
"154 0 OFFCURVE",
"184 0 CURVE SMOOTH"
);
}
);
vertWidth = 0;
width = 456;
}
);
leftKerningGroup = V_left;
note = "";
rightKerningGroup = V_right;
unicode = 0056;
},
{
glyphname = W;
layers = (
{
layerId = m01;
leftMetricsKey = V;
rightMetricsKey = V;
paths = (
{
closed = 1;
nodes = (
"186 0 OFFCURVE",
"191 15 OFFCURVE",
"195 26 CURVE SMOOTH",
"379 495 LINE",
"409 595 LINE",
"397 596 LINE",
"408 492 LINE",
"478 25 LINE SMOOTH",
"480 13 OFFCURVE",
"488 0 OFFCURVE",
"505 0 CURVE",
"524 0 OFFCURVE",
"528 11 OFFCURVE",
"534 25 CURVE SMOOTH",
"772 618 LINE SMOOTH",
"781 639 OFFCURVE",
"767 650 OFFCURVE",
"753 650 CURVE SMOOTH",
"734 650 OFFCURVE",
"729 644 OFFCURVE",
"721 625 CURVE SMOOTH",
"548 188 LINE",
"503 54 LINE",
"515 52 LINE",
"502 192 LINE",
"437 626 LINE SMOOTH",
"435 637 OFFCURVE",
"431 650 OFFCURVE",
"407 650 CURVE",
"391 650 OFFCURVE",
"382 637 OFFCURVE",
"378 626 CURVE SMOOTH",
"208 189 LINE",
"163 59 LINE",
"176 57 LINE",
"162 189 LINE",
"97 626 LINE SMOOTH",
"95 636 OFFCURVE",
"91 650 OFFCURVE",
"69 650 CURVE",
"51 650 OFFCURVE",
"45 639 OFFCURVE",
"47 624 CURVE SMOOTH",
"138 28 LINE SMOOTH",
"140 12 OFFCURVE",
"152 0 OFFCURVE",
"166 0 CURVE"
);
}
);
vertWidth = 0;
width = 759;
},
{
layerId = m002;
leftMetricsKey = V;
rightMetricsKey = V;
paths = (
{
closed = 1;
nodes = (
"209 0 OFFCURVE",
"226 14 OFFCURVE",
"238 43 CURVE SMOOTH",
"388 412 LINE",
"414 493 LINE",
"410 494 LINE",
"418 412 LINE",
"472 44 LINE SMOOTH",
"476 15 OFFCURVE",
"496 0 OFFCURVE",
"523 0 CURVE SMOOTH",
"548 0 OFFCURVE",
"565 14 OFFCURVE",
"577 43 CURVE SMOOTH",
"804 591 LINE SMOOTH",
"814 615 OFFCURVE",
"799 650 OFFCURVE",
"761 650 CURVE SMOOTH",
"729 650 OFFCURVE",
"712 630 OFFCURVE",
"706 616 CURVE SMOOTH",
"572 276 LINE",
"529 148 LINE",
"540 146 LINE",
"526 276 LINE",
"477 610 LINE SMOOTH",
"473 635 OFFCURVE",
"458 650 OFFCURVE",
"424 650 CURVE SMOOTH",
"391 650 OFFCURVE",
"378 634 OFFCURVE",
"370 612 CURVE SMOOTH",
"242 277 LINE",
"196 151 LINE",
"206 149 LINE",
"190 280 LINE",
"145 610 LINE SMOOTH",
"142 633 OFFCURVE",
"121 650 OFFCURVE",
"89 650 CURVE SMOOTH",
"60 650 OFFCURVE",
"40 634 OFFCURVE",
"45 604 CURVE SMOOTH",
"133 44 LINE SMOOTH",
"138 15 OFFCURVE",
"157 0 OFFCURVE",
"184 0 CURVE SMOOTH"
);
}
);
vertWidth = 0;
width = 794;
}
);
leftKerningGroup = V_left;
note = "";
rightKerningGroup = V_right;
unicode = 0057;
},
{
glyphname = X;
layers = (
{
layerId = m01;
paths = (
{
closed = 1;
nodes = (
"23 -3 OFFCURVE",
"40 -2 OFFCURVE",
"50 13 CURVE SMOOTH",
"240 301 LINE",
"246 301 LINE",
"447 609 LINE SMOOTH",
"457 624 OFFCURVE",
"454 638 OFFCURVE",
"445 645 CURVE SMOOTH",
"434 653 OFFCURVE",
"415 652 OFFCURVE",
"405 637 CURVE SMOOTH",
"220 352 LINE",
"213 351 LINE",
"7 38 LINE SMOOTH",
"-1 26 OFFCURVE",
"2 13 OFFCURVE",
"12 6 CURVE SMOOTH"
);
},
{
closed = 1;
nodes = (
"387 8 OFFCURVE",
"394 20 OFFCURVE",
"387 35 CURVE SMOOTH",
"248 345 LINE",
"120 631 LINE SMOOTH",
"112 650 OFFCURVE",
"91 654 OFFCURVE",
"80 649 CURVE SMOOTH",
"68 645 OFFCURVE",
"65 632 OFFCURVE",
"73 614 CURVE SMOOTH",
"210 308 LINE",
"339 20 LINE SMOOTH",
"347 1 OFFCURVE",
"365 -3 OFFCURVE",
"378 3 CURVE SMOOTH"
);
}
);
vertWidth = 0;
width = 458;
},
{
layerId = m002;
paths = (
{
closed = 1;
nodes = (
"42 -3 OFFCURVE",
"83 -8 OFFCURVE",
"98 16 CURVE SMOOTH",
"265 279 LINE",
"280 279 LINE",
"483 578 LINE SMOOTH",
"499 602 OFFCURVE",
"492 623 OFFCURVE",
"473 639 CURVE SMOOTH",
"454 655 OFFCURVE",
"414 656 OFFCURVE",
"398 631 CURVE SMOOTH",
"236 375 LINE",
"221 375 LINE",
"13 69 LINE SMOOTH",
"-1 48 OFFCURVE",
"3 29 OFFCURVE",
"22 13 CURVE SMOOTH"
);
},
{
closed = 1;
nodes = (
"421 17 OFFCURVE",
"429 36 OFFCURVE",
"418 61 CURVE SMOOTH",
"281 367 LINE",
"167 623 LINE SMOOTH",
"154 651 OFFCURVE",
"119 654 OFFCURVE",
"97 647 CURVE SMOOTH",
"71 637 OFFCURVE",
"60 617 OFFCURVE",
"74 586 CURVE SMOOTH",
"208 286 LINE",
"323 28 LINE SMOOTH",
"336 -1 OFFCURVE",
"378 -6 OFFCURVE",
"401 6 CURVE SMOOTH"
);
}
);
vertWidth = 0;
width = 509;
}
);
note = "";
unicode = 0058;
},
{
glyphname = Y;
layers = (
{
layerId = m01;
paths = (
{
closed = 1;
nodes = (
"45 642 OFFCURVE",
"43 629 OFFCURVE",
"50 613 CURVE SMOOTH",
"220 241 LINE",
"253 290 LINE",
"97 630 LINE SMOOTH",
"92 642 OFFCURVE",
"81 655 OFFCURVE",
"62 648 CURVE SMOOTH"
);
},
{
closed = 1;
nodes = (
"87 -3 OFFCURVE",
"105 -3 OFFCURVE",
"114 12 CURVE SMOOTH",
"465 609 LINE SMOOTH",
"474 624 OFFCURVE",
"470 639 OFFCURVE",
"455 647 CURVE SMOOTH",
"443 653 OFFCURVE",
"431 650 OFFCURVE",
"422 635 CURVE SMOOTH",
"72 38 LINE SMOOTH",
"65 26 OFFCURVE",
"66 13 OFFCURVE",
"76 6 CURVE SMOOTH"
);
}
);
vertWidth = 0;
width = 454;
},
{
layerId = m002;
paths = (
{
closed = 1;
nodes = (
"43 636 OFFCURVE",
"38 608 OFFCURVE",
"49 584 CURVE SMOOTH",
"217 223 LINE",
"276 314 LINE",
"142 621 LINE SMOOTH",
"132 644 OFFCURVE",
"105 657 OFFCURVE",
"74 646 CURVE SMOOTH"
);
},
{
closed = 1;
nodes = (
"97 -7 OFFCURVE",
"139 -2 OFFCURVE",
"153 22 CURVE SMOOTH",
"485 578 LINE SMOOTH",
"499 602 OFFCURVE",
"492 630 OFFCURVE",
"466 645 CURVE SMOOTH",
"445 656 OFFCURVE",
"412 650 OFFCURVE",
"396 624 CURVE SMOOTH",
"66 75 LINE SMOOTH",
"53 54 OFFCURVE",
"58 25 OFFCURVE",
"77 9 CURVE SMOOTH"
);
}
);
vertWidth = 0;
width = 479;
}
);
note = "";
unicode = 0059;
},
{
glyphname = Z;
lastChange = "2022-03-24 05:59:51 +0000";
layers = (
{
layerId = m01;
paths = (
{
closed = 1;
nodes = (
"374 0 LINE SMOOTH",
"394 0 OFFCURVE",
"399 13 OFFCURVE",
"398 25 CURVE SMOOTH",
"397 37 OFFCURVE",
"391 46 OFFCURVE",
"371 46 CURVE SMOOTH",
"53 46 LINE",
"66 25 LINE",
"456 609 LINE SMOOTH",
"470 631 OFFCURVE",
"454 650 OFFCURVE",
"436 650 CURVE",
"101 650 LINE SMOOTH",
"81 650 OFFCURVE",
"75 637 OFFCURVE",
"76 625 CURVE SMOOTH",
"77 613 OFFCURVE",
"84 604 OFFCURVE",
"104 604 CURVE SMOOTH",
"424 604 LINE",
"411 625 LINE",
"18 39 LINE SMOOTH",
"6 21 OFFCURVE",
"17 0 OFFCURVE",
"40 0 CURVE"
);
}
);
vertWidth = 0;
width = 476;
},
{
layerId = m002;
paths = (
{
closed = 1;
nodes = (
"376 0 LINE SMOOTH",
"408 0 OFFCURVE",
"423 19 OFFCURVE",
"423 43 CURVE SMOOTH",
"423 70 OFFCURVE",
"403 90 OFFCURVE",
"373 90 CURVE SMOOTH",
"110 90 LINE",
"123 65 LINE",
"474 577 LINE SMOOTH",
"495 608 OFFCURVE",
"480 650 OFFCURVE",
"437 650 CURVE",
"112 650 LINE SMOOTH",
"82 650 OFFCURVE",
"64 630 OFFCURVE",
"66 604 CURVE SMOOTH",
"67 580 OFFCURVE",
"87 560 OFFCURVE",
"119 560 CURVE SMOOTH",
"376 560 LINE",
"363 585 LINE",
"13 70 LINE SMOOTH",
"-6 42 OFFCURVE",
"11 0 OFFCURVE",
"55 0 CURVE"
);
}
);
vertWidth = 0;
width = 500;
}
);
note = "";
unicode = 005A;
},
{
glyphname = a;
lastChange = "2022-03-24 05:25:52 +0000";
layers = (
{
layerId = m01;
paths = (
{
closed = 1;
nodes = (
"175 -1 OFFCURVE",
"212 35 OFFCURVE",
"235 82 CURVE",
"249 244 LINE",
"234 159 OFFCURVE",
"188 45 OFFCURVE",
"132 45 CURVE SMOOTH",
"80 45 OFFCURVE",
"61 108 OFFCURVE",
"68 173 CURVE SMOOTH",
"77 258 OFFCURVE",
"118 308 OFFCURVE",
"167 308 CURVE SMOOTH",
"195 308 OFFCURVE",
"236 296 OFFCURVE",
"255 267 CURVE",
"260 313 LINE",
"235 341 OFFCURVE",
"198 354 OFFCURVE",
"168 354 CURVE SMOOTH",
"94 354 OFFCURVE",
"30 291 OFFCURVE",
"18 176 CURVE SMOOTH",
"9 88 OFFCURVE",
"44 -1 OFFCURVE",
"131 -1 CURVE SMOOTH"
);
},
{
closed = 1;
nodes = (
"260 0 OFFCURVE",
"273 10 OFFCURVE",
"275 28 CURVE SMOOTH",
"306 320 LINE SMOOTH",
"308 340 OFFCURVE",
"296 350 OFFCURVE",
"284 350 CURVE SMOOTH",
"271 350 OFFCURVE",
"258 341 OFFCURVE",
"256 323 CURVE SMOOTH",
"225 28 LINE SMOOTH",
"223 9 OFFCURVE",
"235 0 OFFCURVE",
"248 0 CURVE SMOOTH"
);
}
);
vertWidth = 0;
width = 352;
},
{
layerId = m002;
paths = (
{
closed = 1;
nodes = (
"192 -1 OFFCURVE",
"216 75 OFFCURVE",
"239 114 CURVE",
"228 262 LINE",
"207 130 OFFCURVE",
"178 89 OFFCURVE",
"145 89 CURVE SMOOTH",
"120 89 OFFCURVE",
"110 119 OFFCURVE",
"116 170 CURVE SMOOTH",
"123 236 OFFCURVE",
"145 270 OFFCURVE",
"176 270 CURVE SMOOTH",
"198 270 OFFCURVE",
"230 259 OFFCURVE",
"272 198 CURVE",
"284 303 LINE",
"259 337 OFFCURVE",
"211 360 OFFCURVE",
"177 360 CURVE SMOOTH",
"98 360 OFFCURVE",
"31 294 OFFCURVE",
"19 179 CURVE SMOOTH",
"10 91 OFFCURVE",
"40 -1 OFFCURVE",
"126 -1 CURVE SMOOTH"
);
},
{
closed = 1;
nodes = (
"274 0 OFFCURVE",
"300 14 OFFCURVE",
"303 43 CURVE SMOOTH",
"330 300 LINE SMOOTH",
"333 333 OFFCURVE",
"308 350 OFFCURVE",
"281 350 CURVE SMOOTH",
"256 350 OFFCURVE",
"235 337 OFFCURVE",
"232 308 CURVE SMOOTH",
"205 49 LINE SMOOTH",
"202 17 OFFCURVE",
"223 0 OFFCURVE",
"250 0 CURVE SMOOTH"
);
}
);
vertWidth = 0;
width = 378;
}
);
leftKerningGroup = o_left;
note = "";
rightKerningGroup = n_right;
unicode = 0061;
},
{
glyphname = b;
lastChange = "2022-03-24 05:26:04 +0000";
layers = (
{
layerId = m01;
paths = (
{
closed = 1;
nodes = (
"59 0 OFFCURVE",
"71 7 OFFCURVE",
"73 22 CURVE SMOOTH",
"137 624 LINE SMOOTH",
"139 640 OFFCURVE",
"126 650 OFFCURVE",
"112 650 CURVE SMOOTH",
"101 650 OFFCURVE",
"89 644 OFFCURVE",
"87 629 CURVE SMOOTH",
"23 27 LINE SMOOTH",
"21 9 OFFCURVE",
"34 0 OFFCURVE",
"48 0 CURVE SMOOTH"
);
},
{
closed = 1;
nodes = (
"227 -1 OFFCURVE",
"291 55 OFFCURVE",
"303 170 CURVE SMOOTH",
"312 258 OFFCURVE",
"277 354 OFFCURVE",
"190 354 CURVE SMOOTH",
"146 354 OFFCURVE",
"109 311 OFFCURVE",
"86 264 CURVE",
"78 138 LINE",
"95 199 OFFCURVE",
"141 308 OFFCURVE",
"189 308 CURVE SMOOTH",
"241 308 OFFCURVE",
"260 238 OFFCURVE",
"253 173 CURVE SMOOTH",
"244 88 OFFCURVE",
"203 45 OFFCURVE",
"154 45 CURVE SMOOTH",
"126 45 OFFCURVE",
"85 50 OFFCURVE",
"66 79 CURVE",
"61 33 LINE",
"86 5 OFFCURVE",
"123 -1 OFFCURVE",
"153 -1 CURVE SMOOTH"
);
}
);
vertWidth = 0;
width = 355;
},
{
layerId = m002;
paths = (
{
closed = 1;
nodes = (
"101 0 OFFCURVE",
"123 24 OFFCURVE",
"127 57 CURVE SMOOTH",
"185 597 LINE SMOOTH",
"188 625 OFFCURVE",
"173 650 OFFCURVE",
"138 650 CURVE SMOOTH",
"108 650 OFFCURVE",
"88 629 OFFCURVE",
"85 602 CURVE SMOOTH",
"26 57 LINE SMOOTH",
"22 21 OFFCURVE",
"39 0 OFFCURVE",
"72 0 CURVE SMOOTH"
);
},
{
closed = 1;
nodes = (
"261 -1 OFFCURVE",
"330 63 OFFCURVE",
"343 178 CURVE SMOOTH",
"355 291 OFFCURVE",
"314 360 OFFCURVE",
"236 360 CURVE SMOOTH",
"189 360 OFFCURVE",
"152 329 OFFCURVE",
"125 269 CURVE",
"120 90 LINE",
"143 206 OFFCURVE",
"190 270 OFFCURVE",
"215 270 CURVE SMOOTH",
"238 270 OFFCURVE",
"249 238 OFFCURVE",
"243 186 CURVE SMOOTH",
"236 121 OFFCURVE",
"214 86 OFFCURVE",
"184 86 CURVE SMOOTH",
"155 86 OFFCURVE",
"140 90 OFFCURVE",
"89 168 CURVE",
"76 56 LINE",
"98 23 OFFCURVE",
"143 -1 OFFCURVE",
"183 -1 CURVE SMOOTH"
);
}
);
vertWidth = 0;
width = 394;
}
);
leftKerningGroup = h_left;
note = "";
rightKerningGroup = o_right;
unicode = 0062;
},
{
glyphname = c;
layers = (
{
layerId = m01;
paths = (
{
closed = 1;
nodes = (
"187 -1 OFFCURVE",
"226 32 OFFCURVE",
"251 77 CURVE SMOOTH",
"256 87 OFFCURVE",
"253 101 OFFCURVE",
"241 108 CURVE SMOOTH",
"228 115 OFFCURVE",
"213 111 OFFCURVE",
"208 101 CURVE SMOOTH",
"189 65 OFFCURVE",
"162 45 OFFCURVE",
"136 45 CURVE SMOOTH",
"80 45 OFFCURVE",
"61 108 OFFCURVE",
"68 173 CURVE SMOOTH",
"77 258 OFFCURVE",
"118 308 OFFCURVE",
"167 308 CURVE SMOOTH",
"190 308 OFFCURVE",
"208 295 OFFCURVE",
"218 278 CURVE SMOOTH",
"223 270 OFFCURVE",
"235 265 OFFCURVE",
"248 272 CURVE SMOOTH",
"260 279 OFFCURVE",
"263 294 OFFCURVE",
"258 301 CURVE SMOOTH",
"239 331 OFFCURVE",
"209 354 OFFCURVE",
"168 354 CURVE SMOOTH",
"94 354 OFFCURVE",
"30 291 OFFCURVE",
"18 176 CURVE SMOOTH",
"9 88 OFFCURVE",
"44 -1 OFFCURVE",
"131 -1 CURVE SMOOTH"
);
}
);
vertWidth = 0;
width = 314;
},
{
layerId = m002;
paths = (
{
closed = 1;
nodes = (
"212 -4 OFFCURVE",
"253 35 OFFCURVE",
"277 78 CURVE SMOOTH",
"288 98 OFFCURVE",
"281 124 OFFCURVE",
"260 135 CURVE SMOOTH",
"237 147 OFFCURVE",
"212 140 OFFCURVE",
"201 120 CURVE SMOOTH",
"186 93 OFFCURVE",
"172 81 OFFCURVE",
"157 81 CURVE SMOOTH",
"128 81 OFFCURVE",
"113 119 OFFCURVE",
"120 181 CURVE SMOOTH",
"127 249 OFFCURVE",
"152 276 OFFCURVE",
"184 276 CURVE SMOOTH",
"200 276 OFFCURVE",
"207 271 OFFCURVE",
"212 264 CURVE SMOOTH",
"224 247 OFFCURVE",
"247 238 OFFCURVE",
"268 251 CURVE SMOOTH",
"290 264 OFFCURVE",
"295 291 OFFCURVE",
"284 307 CURVE SMOOTH",
"264 338 OFFCURVE",
"230 360 OFFCURVE",
"185 360 CURVE SMOOTH",
"110 360 OFFCURVE",
"32 300 OFFCURVE",
"20 188 CURVE SMOOTH",
"7 69 OFFCURVE",
"58 -4 OFFCURVE",
"153 -4 CURVE SMOOTH"
);
}
);
vertWidth = 0;
width = 342;
}
);
leftKerningGroup = o_left;
note = "";
unicode = 0063;
},
{
glyphname = d;
lastChange = "2022-03-24 05:26:49 +0000";
layers = (
{
layerId = m01;
paths = (
{
closed = 1;
nodes = (
"175 -1 OFFCURVE",
"212 35 OFFCURVE",
"235 82 CURVE",
"249 244 LINE",
"234 159 OFFCURVE",
"188 45 OFFCURVE",
"132 45 CURVE SMOOTH",
"80 45 OFFCURVE",
"61 108 OFFCURVE",
"68 173 CURVE SMOOTH",
"77 258 OFFCURVE",
"118 308 OFFCURVE",
"167 308 CURVE SMOOTH",
"195 308 OFFCURVE",
"236 296 OFFCURVE",
"255 267 CURVE",
"260 313 LINE",
"235 341 OFFCURVE",
"198 354 OFFCURVE",
"168 354 CURVE SMOOTH",
"94 354 OFFCURVE",
"30 291 OFFCURVE",
"18 176 CURVE SMOOTH",
"9 88 OFFCURVE",
"44 -1 OFFCURVE",
"131 -1 CURVE SMOOTH"
);
},
{
closed = 1;
nodes = (
"260 0 OFFCURVE",
"273 10 OFFCURVE",
"275 28 CURVE SMOOTH",
"337 620 LINE SMOOTH",
"339 640 OFFCURVE",
"327 650 OFFCURVE",
"315 650 CURVE SMOOTH",
"302 650 OFFCURVE",
"289 641 OFFCURVE",
"287 623 CURVE SMOOTH",
"225 28 LINE SMOOTH",
"223 9 OFFCURVE",
"235 0 OFFCURVE",
"248 0 CURVE SMOOTH"
);
}
);
vertWidth = 0;
width = 362;
},
{
layerId = m002;
paths = (
{
closed = 1;
nodes = (
"192 -1 OFFCURVE",
"216 75 OFFCURVE",
"239 114 CURVE",
"228 262 LINE",
"207 130 OFFCURVE",
"178 89 OFFCURVE",
"145 89 CURVE SMOOTH",
"120 89 OFFCURVE",
"110 119 OFFCURVE",
"116 170 CURVE SMOOTH",
"123 236 OFFCURVE",
"145 270 OFFCURVE",
"176 270 CURVE SMOOTH",
"198 270 OFFCURVE",
"230 259 OFFCURVE",
"272 198 CURVE",
"284 303 LINE",
"259 337 OFFCURVE",
"211 360 OFFCURVE",
"177 360 CURVE SMOOTH",
"98 360 OFFCURVE",
"31 294 OFFCURVE",
"19 179 CURVE SMOOTH",
"10 91 OFFCURVE",
"40 -1 OFFCURVE",
"126 -1 CURVE SMOOTH"
);
},
{
closed = 1;
nodes = (
"281 0 OFFCURVE",
"303 24 OFFCURVE",
"307 57 CURVE SMOOTH",
"365 597 LINE SMOOTH",
"368 625 OFFCURVE",
"353 650 OFFCURVE",
"318 650 CURVE SMOOTH",
"288 650 OFFCURVE",
"268 629 OFFCURVE",
"265 602 CURVE SMOOTH",
"206 57 LINE SMOOTH",
"202 21 OFFCURVE",
"219 0 OFFCURVE",
"252 0 CURVE SMOOTH"
);
}
);
vertWidth = 0;
width = 392;
}
);
leftKerningGroup = o_left;
note = "";
unicode = 0064;
},
{
glyphname = e;
layers = (
{
layerId = m01;
paths = (
{
closed = 1;
nodes = (
"187 -1 OFFCURVE",
"226 32 OFFCURVE",
"251 77 CURVE SMOOTH",
"256 87 OFFCURVE",
"253 101 OFFCURVE",
"241 108 CURVE SMOOTH",
"228 115 OFFCURVE",
"213 111 OFFCURVE",
"208 101 CURVE SMOOTH",
"189 65 OFFCURVE",
"162 45 OFFCURVE",
"136 45 CURVE SMOOTH",
"80 45 OFFCURVE",
"61 108 OFFCURVE",
"68 173 CURVE SMOOTH",
"77 258 OFFCURVE",
"118 308 OFFCURVE",
"167 308 CURVE SMOOTH",
"198 308 OFFCURVE",
"212 293 OFFCURVE",
"212 281 CURVE SMOOTH",
"212 259 OFFCURVE",
"121.17647 194.64706 OFFCURVE",
"60 157 CURVE",
"66 109 LINE",
"146 159 OFFCURVE",
"263 233 OFFCURVE",
"263 285 CURVE SMOOTH",
"263 321.17786 OFFCURVE",
"216 354 OFFCURVE",
"168 354 CURVE SMOOTH",
"94 354 OFFCURVE",
"30 291 OFFCURVE",
"18 176 CURVE SMOOTH",
"9 88 OFFCURVE",
"44 -1 OFFCURVE",
"131 -1 CURVE SMOOTH"
);
}
);
vertWidth = 0;
width = 314;
},
{
layerId = m002;
paths = (
{
closed = 1;
nodes = (
"207 -4 OFFCURVE",
"263 27 OFFCURVE",
"291 77 CURVE SMOOTH",
"302 99 OFFCURVE",
"294 126 OFFCURVE",
"272 139 CURVE SMOOTH",
"246 154 OFFCURVE",
"225 145 OFFCURVE",
"213 122 CURVE SMOOTH",
"201 100 OFFCURVE",
"177 86 OFFCURVE",
"153 86 CURVE SMOOTH",
"120 86 OFFCURVE",
"104 125 OFFCURVE",
"110 176 CURVE SMOOTH",
"117 242 OFFCURVE",
"156 271 OFFCURVE",
"187 271 CURVE SMOOTH",
"195 271 OFFCURVE",
"197 268 OFFCURVE",
"197 263 CURVE SMOOTH",
"197 247 OFFCURVE",
"148 204 OFFCURVE",
"63 155 CURVE",
"69 74 LINE",
"239 185 OFFCURVE",
"289 230 OFFCURVE",
"289 277 CURVE SMOOTH",
"289 323 OFFCURVE",
"255 360 OFFCURVE",
"194 360 CURVE SMOOTH",
"115 360 OFFCURVE",
"31 300 OFFCURVE",
"19 185 CURVE SMOOTH",
"10 97 OFFCURVE",
"47 -4 OFFCURVE",
"145 -4 CURVE SMOOTH"
);
}
);
vertWidth = 0;
width = 356;
}
);
leftKerningGroup = o_left;
note = "";
unicode = 0065;
},
{
glyphname = f;
layers = (
{
layerId = m01;
paths = (
{
closed = 1;
nodes = (
"83 0 OFFCURVE",
"89 15 OFFCURVE",
"90 27 CURVE SMOOTH",
"142 518 LINE SMOOTH",
"148 573 OFFCURVE",
"168 604 OFFCURVE",
"199 604 CURVE SMOOTH",
"222 604 OFFCURVE",
"240 594 OFFCURVE",
"250 577 CURVE SMOOTH",
"255 569 OFFCURVE",
"267 564 OFFCURVE",
"280 571 CURVE SMOOTH",
"292 578 OFFCURVE",
"295 592 OFFCURVE",
"290 600 CURVE SMOOTH",
"271 630 OFFCURVE",
"241 650 OFFCURVE",
"200 650 CURVE SMOOTH",
"144 650 OFFCURVE",
"102 609 OFFCURVE",
"93 527 CURVE SMOOTH",
"40 28 LINE SMOOTH",
"39 16 OFFCURVE",
"48 0 OFFCURVE",
"66 0 CURVE SMOOTH"
);
},
{
closed = 1;
nodes = (
"198 305 LINE SMOOTH",
"218 305 OFFCURVE",
"222 316 OFFCURVE",
"222 328 CURVE SMOOTH",
"222 340 OFFCURVE",
"215 350 OFFCURVE",
"195 350 CURVE SMOOTH",
"23 350 LINE SMOOTH",
"0 350 OFFCURVE",
"-5 340 OFFCURVE",
"-5 328 CURVE SMOOTH",
"-5 316 OFFCURVE",
"3 305 OFFCURVE",
"23 305 CURVE SMOOTH"
);
}
);
vertWidth = 0;
width = 231;
},
{
layerId = m002;
paths = (
{
closed = 1;
nodes = (
"121 -1 OFFCURVE",
"136 25 OFFCURVE",
"138 47 CURVE SMOOTH",
"185 494 LINE SMOOTH",
"190 538 OFFCURVE",
"199 560 OFFCURVE",
"213 560 CURVE SMOOTH",
"227 560 OFFCURVE",
"236 557 OFFCURVE",
"244 544 CURVE SMOOTH",
"255 526 OFFCURVE",
"276 514 OFFCURVE",
"300 527 CURVE SMOOTH",
"321 540 OFFCURVE",
"333 570 OFFCURVE",
"319 593 CURVE SMOOTH",
"297 627 OFFCURVE",
"261 650 OFFCURVE",
"214 650 CURVE SMOOTH",
"148 650 OFFCURVE",
"95 597 OFFCURVE",
"86 508 CURVE SMOOTH",
"38 54 LINE SMOOTH",
"35 27 OFFCURVE",
"57 -1 OFFCURVE",
"89 -1 CURVE SMOOTH"
);
},
{
closed = 1;
nodes = (
"208 260 LINE SMOOTH",
"238 260 OFFCURVE",
"256 277 OFFCURVE",
"256 305 CURVE SMOOTH",
"256 333 OFFCURVE",
"238 350 OFFCURVE",
"208 350 CURVE SMOOTH",
"43 350 LINE SMOOTH",
"11 350 OFFCURVE",
"-8 333 OFFCURVE",
"-8 305 CURVE SMOOTH",
"-8 277 OFFCURVE",
"11 260 OFFCURVE",
"43 260 CURVE SMOOTH"
);
}
);
vertWidth = 0;
width = 266;
}
);
note = "";
unicode = 0066;
},
{
glyphname = g;
layers = (
{
layerId = m01;
paths = (
{
closed = 1;
nodes = (
"175 -1 OFFCURVE",
"212 35 OFFCURVE",
"235 82 CURVE",
"249 244 LINE",
"234 159 OFFCURVE",
"188 45 OFFCURVE",
"132 45 CURVE SMOOTH",
"80 45 OFFCURVE",
"61 108 OFFCURVE",
"68 173 CURVE SMOOTH",
"77 258 OFFCURVE",
"118 308 OFFCURVE",
"167 308 CURVE SMOOTH",
"195 308 OFFCURVE",
"236 296 OFFCURVE",
"255 267 CURVE",
"260 313 LINE",
"235 341 OFFCURVE",
"198 354 OFFCURVE",
"168 354 CURVE SMOOTH",
"94 354 OFFCURVE",
"30 291 OFFCURVE",
"18 176 CURVE SMOOTH",
"9 88 OFFCURVE",
"44 -1 OFFCURVE",
"131 -1 CURVE SMOOTH"
);
},
{
closed = 1;
nodes = (
"188 -300 OFFCURVE",
"247 -232 OFFCURVE",
"259 -123 CURVE SMOOTH",
"306 320 LINE SMOOTH",
"308 340 OFFCURVE",
"296 350 OFFCURVE",
"284 350 CURVE SMOOTH",
"271 350 OFFCURVE",
"258 341 OFFCURVE",
"256 323 CURVE SMOOTH",
"209 -123 LINE SMOOTH",
"200 -204 OFFCURVE",
"160 -254 OFFCURVE",
"104 -254 CURVE SMOOTH",
"76 -254 OFFCURVE",
"48 -243 OFFCURVE",
"31 -226 CURVE SMOOTH",
"23 -218 OFFCURVE",
"12 -216 OFFCURVE",
"3 -222 CURVE SMOOTH",
"-12 -232 OFFCURVE",
"-13 -246 OFFCURVE",
"0 -259 CURVE SMOOTH",
"24 -284 OFFCURVE",
"64 -300 OFFCURVE",
"103 -300 CURVE SMOOTH"
);
}
);
vertWidth = 0;
width = 352;
},
{
layerId = m002;
paths = (
{
closed = 1;
nodes = (
"192 -1 OFFCURVE",
"216 75 OFFCURVE",
"239 114 CURVE",
"228 262 LINE",
"207 130 OFFCURVE",
"178 89 OFFCURVE",
"145 89 CURVE SMOOTH",
"120 89 OFFCURVE",
"110 119 OFFCURVE",
"116 170 CURVE SMOOTH",
"123 236 OFFCURVE",
"145 270 OFFCURVE",
"176 270 CURVE SMOOTH",
"198 270 OFFCURVE",
"230 259 OFFCURVE",
"272 198 CURVE",
"284 303 LINE",
"259 337 OFFCURVE",
"211 360 OFFCURVE",
"177 360 CURVE SMOOTH",
"98 360 OFFCURVE",
"31 294 OFFCURVE",
"19 179 CURVE SMOOTH",
"10 91 OFFCURVE",
"40 -1 OFFCURVE",
"126 -1 CURVE SMOOTH"
);
},
{
closed = 1;
nodes = (
"205 -300 OFFCURVE",
"275 -240 OFFCURVE",
"288 -120 CURVE SMOOTH",
"333 292 LINE SMOOTH",
"337 326 OFFCURVE",
"312 350 OFFCURVE",
"285 350 CURVE SMOOTH",
"259 350 OFFCURVE",
"236 331 OFFCURVE",
"233 301 CURVE SMOOTH",
"188 -114 LINE SMOOTH",
"180 -184 OFFCURVE",
"156 -210 OFFCURVE",
"118 -210 CURVE SMOOTH",
"97 -210 OFFCURVE",
"76 -200 OFFCURVE",
"59 -183 CURVE SMOOTH",
"48 -172 OFFCURVE",
"31 -158 OFFCURVE",
"5 -175 CURVE SMOOTH",
"-18 -190 OFFCURVE",
"-25 -222 OFFCURVE",
"-4 -247 CURVE SMOOTH",
"16 -272 OFFCURVE",
"59 -300 OFFCURVE",
"112 -300 CURVE SMOOTH"
);
}
);
vertWidth = 0;
width = 382;
}
);
leftKerningGroup = o_left;
note = "";
unicode = 0067;
},
{
glyphname = h;
lastChange = "2022-03-24 05:28:25 +0000";
layers = (
{
layerId = m01;
paths = (
{
closed = 1;
nodes = (
"58 0 OFFCURVE",
"70 7 OFFCURVE",
"72 23 CURVE SMOOTH",
"136 623 LINE SMOOTH",
"138 641 OFFCURVE",
"128 650 OFFCURVE",
"115 650 CURVE SMOOTH",
"102 650 OFFCURVE",
"88 641 OFFCURVE",
"86 623 CURVE SMOOTH",
"22 23 LINE SMOOTH",
"20 8 OFFCURVE",
"32 0 OFFCURVE",
"45 0 CURVE SMOOTH"
);
},
{
closed = 1;
nodes = (
"265 0 OFFCURVE",
"264 18 OFFCURVE",
"266 31 CURVE SMOOTH",
"291 234 LINE SMOOTH",
"300 308 OFFCURVE",
"270 354 OFFCURVE",
"213 354 CURVE SMOOTH",
"158 354 OFFCURVE",
"115 305 OFFCURVE",
"77 226 CURVE",
"67 114 LINE",
"130 252 OFFCURVE",
"168 305 OFFCURVE",
"210 305 CURVE SMOOTH",
"234 305 OFFCURVE",
"246 278 OFFCURVE",
"241 234 CURVE SMOOTH",
"217 31 LINE SMOOTH",
"215 15 OFFCURVE",
"217 0 OFFCURVE",
"239 0 CURVE"
);
}
);
vertWidth = 0;
width = 346;
},
{
layerId = m002;
paths = (
{
closed = 1;
nodes = (
"112 0 OFFCURVE",
"120 24 OFFCURVE",
"122 45 CURVE SMOOTH",
"186 602 LINE SMOOTH",
"189 631 OFFCURVE",
"175 650 OFFCURVE",
"143 650 CURVE SMOOTH",
"112 650 OFFCURVE",
"91 637 OFFCURVE",
"88 608 CURVE SMOOTH",
"25 52 LINE SMOOTH",
"22 24 OFFCURVE",
"34 0 OFFCURVE",
"70 0 CURVE SMOOTH"
);
},
{
closed = 1;
nodes = (
"303 0 OFFCURVE",
"315 24 OFFCURVE",
"318 46 CURVE SMOOTH",
"341 229 LINE SMOOTH",
"352 310 OFFCURVE",
"317 360 OFFCURVE",
"258 360 CURVE SMOOTH",
"220 360 OFFCURVE",
"181 334 OFFCURVE",
"141 284 CURVE",
"128 166 LINE",
"178 247 OFFCURVE",
"218 270 OFFCURVE",
"231 270 CURVE SMOOTH",
"242 270 OFFCURVE",
"246 258 OFFCURVE",
"244 235 CURVE SMOOTH",
"222 52 LINE SMOOTH",
"219 24 OFFCURVE",
"230 0 OFFCURVE",
"268 0 CURVE SMOOTH"
);
}
);
vertWidth = 0;
width = 397;
}
);
leftKerningGroup = h_left;
note = "";
rightKerningGroup = n_right;
unicode = 0068;
},
{
glyphname = i;
layers = (
{
layerId = m01;
paths = (
{
closed = 1;
nodes = (
"59 0 OFFCURVE",
"72 10 OFFCURVE",
"74 28 CURVE SMOOTH",
"105 320 LINE SMOOTH",
"107 340 OFFCURVE",
"95 350 OFFCURVE",
"83 350 CURVE SMOOTH",
"70 350 OFFCURVE",
"57 341 OFFCURVE",
"55 323 CURVE SMOOTH",
"24 28 LINE SMOOTH",
"22 9 OFFCURVE",
"34 0 OFFCURVE",
"47 0 CURVE SMOOTH"
);
},
{
closed = 1;
nodes = (
"113 428 OFFCURVE",
"130 446 OFFCURVE",
"130 467 CURVE SMOOTH",
"130 489 OFFCURVE",
"112 505 OFFCURVE",
"92 505 CURVE SMOOTH",
"71 505 OFFCURVE",
"53 488 OFFCURVE",
"53 467 CURVE SMOOTH",
"53 445 OFFCURVE",
"72 428 OFFCURVE",
"92 428 CURVE SMOOTH"
);
}
);
vertWidth = 0;
width = 161;
},
{
layerId = m002;
paths = (
{
closed = 1;
nodes = (
"97 0 OFFCURVE",
"120 15 OFFCURVE",
"123 43 CURVE SMOOTH",
"150 299 LINE SMOOTH",
"153 332 OFFCURVE",
"130 350 OFFCURVE",
"104 350 CURVE SMOOTH",
"79 350 OFFCURVE",
"55 337 OFFCURVE",
"52 308 CURVE SMOOTH",
"25 48 LINE SMOOTH",
"22 16 OFFCURVE",
"45 0 OFFCURVE",
"72 0 CURVE SMOOTH"
);
},
{
closed = 1;
nodes = (
"151 427 OFFCURVE",
"174 456 OFFCURVE",
"174 483 CURVE SMOOTH",
"174 509 OFFCURVE",
"151 537 OFFCURVE",
"119 537 CURVE SMOOTH",
"89 537 OFFCURVE",
"64 511 OFFCURVE",
"64 482 CURVE SMOOTH",
"64 452 OFFCURVE",
"89 427 OFFCURVE",
"119 427 CURVE SMOOTH"
);
}
);
vertWidth = 0;
width = 209;
}
);
note = "";
unicode = 0069;
},
{
glyphname = j;
layers = (
{
layerId = m01;
paths = (
{
closed = 1;
nodes = (
"-13 -299 OFFCURVE",
"47 -231 OFFCURVE",
"58 -122 CURVE SMOOTH",
"105 320 LINE SMOOTH",
"107 340 OFFCURVE",
"95 350 OFFCURVE",
"83 350 CURVE SMOOTH",
"70 350 OFFCURVE",
"57 341 OFFCURVE",
"55 323 CURVE SMOOTH",
"8 -122 LINE SMOOTH",
"-1 -203 OFFCURVE",
"-41 -253 OFFCURVE",
"-97 -253 CURVE SMOOTH",
"-125 -253 OFFCURVE",
"-153 -242 OFFCURVE",
"-170 -225 CURVE SMOOTH",
"-178 -217 OFFCURVE",
"-189 -215 OFFCURVE",
"-198 -221 CURVE SMOOTH",
"-213 -231 OFFCURVE",
"-214 -245 OFFCURVE",
"-201 -258 CURVE SMOOTH",
"-177 -283 OFFCURVE",
"-137 -299 OFFCURVE",
"-98 -299 CURVE SMOOTH"
);
},
{
closed = 1;
nodes = (
"113 428 OFFCURVE",
"130 446 OFFCURVE",
"130 467 CURVE SMOOTH",
"130 489 OFFCURVE",
"112 505 OFFCURVE",
"92 505 CURVE SMOOTH",
"71 505 OFFCURVE",
"53 488 OFFCURVE",
"53 467 CURVE SMOOTH",
"53 445 OFFCURVE",
"72 428 OFFCURVE",
"92 428 CURVE SMOOTH"
);
}
);
vertWidth = 0;
width = 161;
},
{
layerId = m002;
paths = (
{
closed = 1;
nodes = (
"24 -300 OFFCURVE",
"92 -240 OFFCURVE",
"105 -120 CURVE",
"150 299 LINE SMOOTH",
"154 332 OFFCURVE",
"130 350 OFFCURVE",
"104 350 CURVE SMOOTH",
"79 350 OFFCURVE",
"55 337 OFFCURVE",
"52 308 CURVE SMOOTH",
"7 -114 LINE",
"0 -184 OFFCURVE",
"-25 -210 OFFCURVE",
"-63 -210 CURVE SMOOTH",
"-84 -210 OFFCURVE",
"-105 -200 OFFCURVE",
"-122 -183 CURVE SMOOTH",
"-133 -172 OFFCURVE",
"-150 -158 OFFCURVE",
"-176 -175 CURVE SMOOTH",
"-199 -190 OFFCURVE",
"-206 -222 OFFCURVE",
"-185 -247 CURVE SMOOTH",
"-165 -272 OFFCURVE",
"-122 -300 OFFCURVE",
"-69 -300 CURVE SMOOTH"
);
},
{
closed = 1;
nodes = (
"151 427 OFFCURVE",
"174 456 OFFCURVE",
"174 483 CURVE SMOOTH",
"174 509 OFFCURVE",
"151 537 OFFCURVE",
"119 537 CURVE SMOOTH",
"89 537 OFFCURVE",
"64 511 OFFCURVE",
"64 482 CURVE SMOOTH",
"64 452 OFFCURVE",
"89 427 OFFCURVE",
"119 427 CURVE SMOOTH"
);
}
);
vertWidth = 0;
width = 209;
}
);
note = "";
unicode = 006A;
},
{
glyphname = k;
layers = (
{
layerId = m01;
paths = (
{
closed = 1;
nodes = (
"61 0 OFFCURVE",
"71 7 OFFCURVE",
"73 26 CURVE SMOOTH",
"137 621 LINE SMOOTH",
"139 642 OFFCURVE",
"128 650 OFFCURVE",
"112 650 CURVE SMOOTH",
"97 650 OFFCURVE",
"89 639 OFFCURVE",
"87 622 CURVE SMOOTH",
"23 26 LINE SMOOTH",
"21 10 OFFCURVE",
"32 0 OFFCURVE",
"45 0 CURVE SMOOTH"
);
},
{
closed = 1;
nodes = (
"263 0 OFFCURVE",
"273 7 OFFCURVE",
"275 18 CURVE SMOOTH",
"276 25 OFFCURVE",
"276 34 OFFCURVE",
"267 43 CURVE SMOOTH",
"106 217 LINE",
"68 184 LINE",
"222 19 LINE SMOOTH",
"231 9 OFFCURVE",
"240 0 OFFCURVE",
"253 0 CURVE SMOOTH"
);
},
{
closed = 1;
nodes = (
"263 304 LINE SMOOTH",
"275 313 OFFCURVE",
"280 322 OFFCURVE",
"281 331 CURVE SMOOTH",
"281 343 OFFCURVE",
"273 350 OFFCURVE",
"260 350 CURVE SMOOTH",
"251 351 OFFCURVE",
"241 346 OFFCURVE",
"229 337 CURVE SMOOTH",
"65 214 LINE",
"60 153 LINE"
);
}
);
vertWidth = 0;
width = 343;
},
{
layerId = m002;
paths = (
{
closed = 1;
nodes = (
"101 0 OFFCURVE",
"122 18 OFFCURVE",
"126 51 CURVE SMOOTH",
"185 597 LINE SMOOTH",
"188 625 OFFCURVE",
"173 650 OFFCURVE",
"138 650 CURVE SMOOTH",
"108 650 OFFCURVE",
"88 629 OFFCURVE",
"85 602 CURVE SMOOTH",
"26 57 LINE SMOOTH",
"22 21 OFFCURVE",
"39 0 OFFCURVE",
"72 0 CURVE SMOOTH"
);
},
{
closed = 1;
nodes = (
"284 0 OFFCURVE",
"304 14 OFFCURVE",
"309 37 CURVE SMOOTH",
"311 51 OFFCURVE",
"311 65 OFFCURVE",
"297 83 CURVE SMOOTH",
"193 215 LINE",
"117 154 LINE",
"214 27 LINE SMOOTH",
"230 6 OFFCURVE",
"243 0 OFFCURVE",
"262 0 CURVE SMOOTH"
);
},
{
closed = 1;
nodes = (
"298 259 LINE SMOOTH",
"315 271 OFFCURVE",
"321 289 OFFCURVE",
"322 303 CURVE SMOOTH",
"323 325 OFFCURVE",
"307 349 OFFCURVE",
"278 350 CURVE SMOOTH",
"263 351 OFFCURVE",
"249 345 OFFCURVE",
"231 332 CURVE SMOOTH",
"114 248 LINE",
"106 123 LINE"
);
}
);
vertWidth = 0;
width = 375;
}
);
leftKerningGroup = h_left;
note = "";
unicode = 006B;
},
{
glyphname = l;
layers = (
{
layerId = m01;
paths = (
{
closed = 1;
nodes = (
"61 0 OFFCURVE",
"71 7 OFFCURVE",
"73 26 CURVE SMOOTH",
"137 621 LINE SMOOTH",
"139 642 OFFCURVE",
"128 650 OFFCURVE",
"112 650 CURVE SMOOTH",
"97 650 OFFCURVE",
"89 639 OFFCURVE",
"87 622 CURVE SMOOTH",
"23 26 LINE SMOOTH",
"21 10 OFFCURVE",
"32 0 OFFCURVE",
"45 0 CURVE SMOOTH"
);
}
);
vertWidth = 0;
width = 162;
},
{
layerId = m002;
paths = (
{
closed = 1;
nodes = (
"101 0 OFFCURVE",
"122 18 OFFCURVE",
"126 51 CURVE SMOOTH",
"185 597 LINE SMOOTH",
"188 625 OFFCURVE",
"173 650 OFFCURVE",
"138 650 CURVE SMOOTH",
"108 650 OFFCURVE",
"88 629 OFFCURVE",
"85 602 CURVE SMOOTH",
"26 57 LINE SMOOTH",
"22 21 OFFCURVE",
"39 0 OFFCURVE",
"72 0 CURVE SMOOTH"
);
}
);
vertWidth = 0;
width = 212;
}
);
leftKerningGroup = h_left;
note = "";
unicode = 006C;
},
{
glyphname = m;
layers = (
{
layerId = m01;
paths = (
{
closed = 1;
nodes = (
"62 0 OFFCURVE",
"60 18 OFFCURVE",
"62 31 CURVE SMOOTH",
"96 323 LINE SMOOTH",
"98 340 OFFCURVE",
"95 350 OFFCURVE",
"78 350 CURVE SMOOTH",
"58 350 OFFCURVE",
"48 341 OFFCURVE",
"46 323 CURVE SMOOTH",
"13 31 LINE SMOOTH",
"11 15 OFFCURVE",
"14 0 OFFCURVE",
"36 0 CURVE SMOOTH"
);
},
{
closed = 1;
nodes = (
"246 0 OFFCURVE",
"245 18 OFFCURVE",
"247 31 CURVE SMOOTH",
"272 234 LINE SMOOTH",
"281 308 OFFCURVE",
"251 354 OFFCURVE",
"194 354 CURVE SMOOTH",
"139 354 OFFCURVE",
"106 305 OFFCURVE",
"68 226 CURVE",
"58 114 LINE",
"121 252 OFFCURVE",
"149 305 OFFCURVE",
"191 305 CURVE SMOOTH",
"215 305 OFFCURVE",
"227 278 OFFCURVE",
"222 234 CURVE SMOOTH",
"198 31 LINE SMOOTH",
"196 15 OFFCURVE",
"198 0 OFFCURVE",
"220 0 CURVE"
);
},
{
closed = 1;
nodes = (
"432 0 OFFCURVE",
"431 18 OFFCURVE",
"433 31 CURVE SMOOTH",
"458 234 LINE SMOOTH",
"467 308 OFFCURVE",
"437 354 OFFCURVE",
"380 354 CURVE SMOOTH",
"325 354 OFFCURVE",
"292 305 OFFCURVE",
"254 226 CURVE",
"244 114 LINE",
"307 252 OFFCURVE",
"335 305 OFFCURVE",
"377 305 CURVE SMOOTH",
"401 305 OFFCURVE",
"413 278 OFFCURVE",
"408 234 CURVE SMOOTH",
"384 31 LINE SMOOTH",
"382 15 OFFCURVE",
"384 0 OFFCURVE",
"406 0 CURVE"
);
}
);
vertWidth = 0;
width = 513;
},
{
layerId = m002;
paths = (
{
closed = 1;
nodes = (
"102 0 OFFCURVE",
"110 24 OFFCURVE",
"112 45 CURVE SMOOTH",
"142 302 LINE SMOOTH",
"145 331 OFFCURVE",
"131 350 OFFCURVE",
"99 350 CURVE SMOOTH",
"68 350 OFFCURVE",
"47 337 OFFCURVE",
"44 308 CURVE SMOOTH",
"15 52 LINE SMOOTH",
"12 24 OFFCURVE",
"24 0 OFFCURVE",
"60 0 CURVE SMOOTH"
);
},
{
closed = 1;
nodes = (
"288 0 OFFCURVE",
"300 24 OFFCURVE",
"303 46 CURVE SMOOTH",
"326 229 LINE SMOOTH",
"336 310 OFFCURVE",
"302 360 OFFCURVE",
"243 360 CURVE SMOOTH",
"205 360 OFFCURVE",
"171 334 OFFCURVE",
"131 284 CURVE",
"118 166 LINE",
"168 247 OFFCURVE",
"203 270 OFFCURVE",
"216 270 CURVE SMOOTH",
"227 270 OFFCURVE",
"232 258 OFFCURVE",
"229 235 CURVE SMOOTH",
"207 52 LINE SMOOTH",
"204 24 OFFCURVE",
"215 0 OFFCURVE",
"253 0 CURVE SMOOTH"
);
},
{
closed = 1;
nodes = (
"481 0 OFFCURVE",
"493 24 OFFCURVE",
"496 46 CURVE SMOOTH",
"519 229 LINE SMOOTH",
"529 310 OFFCURVE",
"495 360 OFFCURVE",
"436 360 CURVE SMOOTH",
"398 360 OFFCURVE",
"364 334 OFFCURVE",
"324 284 CURVE",
"311 166 LINE",
"361 247 OFFCURVE",
"396 270 OFFCURVE",
"409 270 CURVE SMOOTH",
"420 270 OFFCURVE",
"425 258 OFFCURVE",
"422 235 CURVE SMOOTH",
"400 52 LINE SMOOTH",
"397 24 OFFCURVE",
"408 0 OFFCURVE",
"446 0 CURVE SMOOTH"
);
}
);
vertWidth = 0;
width = 575;
}
);
leftKerningGroup = n_left;
note = "";
rightKerningGroup = n_right;
unicode = 006D;
},
{
glyphname = n;
layers = (
{
layerId = m01;
paths = (
{
closed = 1;
nodes = (
"62 0 OFFCURVE",
"60 18 OFFCURVE",
"62 31 CURVE SMOOTH",
"96 323 LINE SMOOTH",
"98 340 OFFCURVE",
"95 350 OFFCURVE",
"78 350 CURVE SMOOTH",
"58 350 OFFCURVE",
"48 341 OFFCURVE",
"46 323 CURVE SMOOTH",
"13 31 LINE SMOOTH",
"11 15 OFFCURVE",
"14 0 OFFCURVE",
"36 0 CURVE SMOOTH"
);
},
{
closed = 1;
nodes = (
"256 0 OFFCURVE",
"255 18 OFFCURVE",
"257 31 CURVE SMOOTH",
"282 234 LINE SMOOTH",
"291 308 OFFCURVE",
"261 354 OFFCURVE",
"204 354 CURVE SMOOTH",
"149 354 OFFCURVE",
"106 305 OFFCURVE",
"68 226 CURVE",
"58 114 LINE",
"121 252 OFFCURVE",
"159 305 OFFCURVE",
"201 305 CURVE SMOOTH",
"225 305 OFFCURVE",
"237 278 OFFCURVE",
"232 234 CURVE SMOOTH",
"208 31 LINE SMOOTH",
"206 15 OFFCURVE",
"208 0 OFFCURVE",
"230 0 CURVE"
);
}
);
vertWidth = 0;
width = 337;
},
{
layerId = m002;
paths = (
{
closed = 1;
nodes = (
"102 0 OFFCURVE",
"110 24 OFFCURVE",
"112 45 CURVE SMOOTH",
"142 302 LINE SMOOTH",
"145 331 OFFCURVE",
"131 350 OFFCURVE",
"99 350 CURVE SMOOTH",
"68 350 OFFCURVE",
"47 337 OFFCURVE",
"44 308 CURVE SMOOTH",
"15 52 LINE SMOOTH",
"12 24 OFFCURVE",
"24 0 OFFCURVE",
"60 0 CURVE SMOOTH"
);
},
{
closed = 1;
nodes = (
"293 0 OFFCURVE",
"305 24 OFFCURVE",
"308 46 CURVE SMOOTH",
"331 229 LINE SMOOTH",
"342 310 OFFCURVE",
"307 360 OFFCURVE",
"248 360 CURVE SMOOTH",
"210 360 OFFCURVE",
"171 334 OFFCURVE",
"131 284 CURVE",
"118 166 LINE",
"168 247 OFFCURVE",
"208 270 OFFCURVE",
"221 270 CURVE SMOOTH",
"232 270 OFFCURVE",
"236 258 OFFCURVE",
"234 235 CURVE SMOOTH",
"212 52 LINE SMOOTH",
"209 24 OFFCURVE",
"220 0 OFFCURVE",
"258 0 CURVE SMOOTH"
);
}
);
vertWidth = 0;
width = 387;
}
);
leftKerningGroup = n_left;
note = "";
rightKerningGroup = n_right;
unicode = 006E;
},
{
glyphname = o;
layers = (
{
layerId = m01;
paths = (
{
closed = 1;
nodes = (
"224 -1 OFFCURVE",
"272 91 OFFCURVE",
"281 176 CURVE SMOOTH",
"290 264 OFFCURVE",
"255 354 OFFCURVE",
"168 354 CURVE SMOOTH",
"94 354 OFFCURVE",
"30 291 OFFCURVE",
"18 176 CURVE SMOOTH",
"9 88 OFFCURVE",
"44 -1 OFFCURVE",
"131 -1 CURVE SMOOTH"
);
},
{
closed = 1;
nodes = (
"80 45 OFFCURVE",
"61 108 OFFCURVE",
"68 173 CURVE SMOOTH",
"77 258 OFFCURVE",
"118 308 OFFCURVE",
"167 308 CURVE SMOOTH",
"227 308 OFFCURVE",
"236 224 OFFCURVE",
"231 178 CURVE SMOOTH",
"222 96 OFFCURVE",
"177 45 OFFCURVE",
"136 45 CURVE SMOOTH"
);
}
);
vertWidth = 0;
width = 333;
},
{
layerId = m002;
paths = (
{
closed = 1;
nodes = (
"239 -1 OFFCURVE",
"301 68 OFFCURVE",
"313 180 CURVE SMOOTH",
"324 291 OFFCURVE",
"275 360 OFFCURVE",
"182 360 CURVE SMOOTH",
"93 360 OFFCURVE",
"31 291 OFFCURVE",
"19 179 CURVE SMOOTH",
"8 68 OFFCURVE",
"57 -1 OFFCURVE",
"147 -1 CURVE SMOOTH"
);
},
{
closed = 1;
nodes = (
"123 89 OFFCURVE",
"110 120 OFFCURVE",
"117 170 CURVE SMOOTH",
"124 232 OFFCURVE",
"148 270 OFFCURVE",
"181 270 CURVE SMOOTH",
"209 270 OFFCURVE",
"222 239 OFFCURVE",
"215 189 CURVE SMOOTH",
"208 127 OFFCURVE",
"184 89 OFFCURVE",
"151 89 CURVE SMOOTH"
);
}
);
vertWidth = 0;
width = 364;
}
);
leftKerningGroup = o_left;
note = "";
rightKerningGroup = o_right;
unicode = 006F;
},
{
glyphname = p;
lastChange = "2022-03-24 05:29:25 +0000";
layers = (
{
layerId = m01;
paths = (
{
closed = 1;
nodes = (
"17 -300 OFFCURVE",
"30 -291 OFFCURVE",
"32 -273 CURVE SMOOTH",
"94 322 LINE SMOOTH",
"96 341 OFFCURVE",
"84 350 OFFCURVE",
"71 350 CURVE SMOOTH",
"59 350 OFFCURVE",
"46 340 OFFCURVE",
"44 322 CURVE SMOOTH",
"-18 -270 LINE SMOOTH",
"-20 -290 OFFCURVE",
"-8 -300 OFFCURVE",
"4 -300 CURVE SMOOTH"
);
},
{
closed = 1;
nodes = (
"225 -1 OFFCURVE",
"289 59 OFFCURVE",
"301 174 CURVE SMOOTH",
"310 262 OFFCURVE",
"275 354 OFFCURVE",
"188 354 CURVE SMOOTH",
"144 354 OFFCURVE",
"107 315 OFFCURVE",
"84 268 CURVE",
"70 106 LINE",
"86 190 OFFCURVE",
"131 308 OFFCURVE",
"187 308 CURVE SMOOTH",
"239 308 OFFCURVE",
"258 242 OFFCURVE",
"251 177 CURVE SMOOTH",
"242 92 OFFCURVE",
"201 45 OFFCURVE",
"152 45 CURVE SMOOTH",
"124 45 OFFCURVE",
"83 59 OFFCURVE",
"64 88 CURVE",
"59 37 LINE",
"84 9 OFFCURVE",
"121 -1 OFFCURVE",
"151 -1 CURVE SMOOTH"
);
}
);
vertWidth = 0;
width = 353;
},
{
layerId = m002;
paths = (
{
closed = 1;
nodes = (
"61 -300 OFFCURVE",
"81 -279 OFFCURVE",
"84 -252 CURVE SMOOTH",
"143 293 LINE SMOOTH",
"147 329 OFFCURVE",
"130 350 OFFCURVE",
"97 350 CURVE SMOOTH",
"68 350 OFFCURVE",
"46 326 OFFCURVE",
"42 293 CURVE SMOOTH",
"-16 -247 LINE SMOOTH",
"-19 -275 OFFCURVE",
"-4 -300 OFFCURVE",
"31 -300 CURVE SMOOTH"
);
},
{
closed = 1;
nodes = (
"252 -1 OFFCURVE",
"319 65 OFFCURVE",
"331 180 CURVE SMOOTH",
"340 268 OFFCURVE",
"310 360 OFFCURVE",
"224 360 CURVE SMOOTH",
"158 360 OFFCURVE",
"134 284 OFFCURVE",
"111 245 CURVE",
"122 97 LINE",
"143 229 OFFCURVE",
"172 270 OFFCURVE",
"205 270 CURVE SMOOTH",
"230 270 OFFCURVE",
"240 240 OFFCURVE",
"234 189 CURVE SMOOTH",
"227 123 OFFCURVE",
"205 89 OFFCURVE",
"174 89 CURVE SMOOTH",
"152 89 OFFCURVE",
"120 100 OFFCURVE",
"78 161 CURVE",
"66 56 LINE",
"91 22 OFFCURVE",
"139 -1 OFFCURVE",
"173 -1 CURVE SMOOTH"
);
}
);
vertWidth = 0;
width = 382;
}
);
leftKerningGroup = n_left;
note = "";
rightKerningGroup = o_right;
unicode = 0070;
},
{
glyphname = q;
layers = (
{
layerId = m01;
paths = (
{
closed = 1;
nodes = (
"175 -1 OFFCURVE",
"212 35 OFFCURVE",
"235 82 CURVE",
"249 244 LINE",
"234 159 OFFCURVE",
"188 45 OFFCURVE",
"132 45 CURVE SMOOTH",
"80 45 OFFCURVE",
"61 108 OFFCURVE",
"68 173 CURVE SMOOTH",
"77 258 OFFCURVE",
"118 308 OFFCURVE",
"167 308 CURVE SMOOTH",
"195 308 OFFCURVE",
"236 296 OFFCURVE",
"255 267 CURVE",
"260 313 LINE",
"235 341 OFFCURVE",
"198 354 OFFCURVE",
"168 354 CURVE SMOOTH",
"94 354 OFFCURVE",
"30 291 OFFCURVE",
"18 176 CURVE SMOOTH",
"9 88 OFFCURVE",
"44 -1 OFFCURVE",
"131 -1 CURVE SMOOTH"
);
},
{
closed = 1;
nodes = (
"222 -300 OFFCURVE",
"228 -297 OFFCURVE",
"234 -292 CURVE SMOOTH",
"322 -219 LINE SMOOTH",
"334 -209 OFFCURVE",
"341 -197 OFFCURVE",
"341 -188 CURVE SMOOTH",
"341 -176 OFFCURVE",
"332 -168 OFFCURVE",
"319 -168 CURVE SMOOTH",
"311 -168 OFFCURVE",
"302 -171 OFFCURVE",
"290 -181 CURVE SMOOTH",
"249 -215 LINE",
"306 320 LINE SMOOTH",
"308 340 OFFCURVE",
"296 350 OFFCURVE",
"284 350 CURVE SMOOTH",
"271 350 OFFCURVE",
"258 341 OFFCURVE",
"256 323 CURVE SMOOTH",
"193 -272 LINE SMOOTH",
"191 -291 OFFCURVE",
"203 -300 OFFCURVE",
"216 -300 CURVE SMOOTH"
);
}
);
vertWidth = 0;
width = 352;
},
{
layerId = m002;
paths = (
{
closed = 1;
nodes = (
"192 -1 OFFCURVE",
"216 75 OFFCURVE",
"239 114 CURVE",
"228 262 LINE",
"207 130 OFFCURVE",
"178 89 OFFCURVE",
"145 89 CURVE SMOOTH",
"120 89 OFFCURVE",
"110 119 OFFCURVE",
"116 170 CURVE SMOOTH",
"123 236 OFFCURVE",
"145 270 OFFCURVE",
"176 270 CURVE SMOOTH",
"198 270 OFFCURVE",
"230 259 OFFCURVE",
"272 198 CURVE",
"284 303 LINE",
"259 337 OFFCURVE",
"211 360 OFFCURVE",
"177 360 CURVE SMOOTH",
"98 360 OFFCURVE",
"31 294 OFFCURVE",
"19 179 CURVE SMOOTH",
"10 91 OFFCURVE",
"40 -1 OFFCURVE",
"126 -1 CURVE SMOOTH"
);
},
{
closed = 1;
nodes = (
"235 -300 OFFCURVE",
"247 -295 OFFCURVE",
"256 -288 CURVE SMOOTH",
"350 -209 LINE SMOOTH",
"365 -197 OFFCURVE",
"376 -183 OFFCURVE",
"378 -170 CURVE SMOOTH",
"382 -145 OFFCURVE",
"362 -126 OFFCURVE",
"337 -125 CURVE SMOOTH",
"324 -124 OFFCURVE",
"308 -129 OFFCURVE",
"292 -142 CURVE SMOOTH",
"285 -148 LINE",
"333 293 LINE SMOOTH",
"337 329 OFFCURVE",
"320 350 OFFCURVE",
"287 350 CURVE SMOOTH",
"258 350 OFFCURVE",
"236 326 OFFCURVE",
"232 293 CURVE SMOOTH",
"174 -247 LINE SMOOTH",
"171 -275 OFFCURVE",
"186 -300 OFFCURVE",
"221 -300 CURVE SMOOTH"
);
}
);
vertWidth = 0;
width = 382;
}
);
leftKerningGroup = o_left;
note = "";
unicode = 0071;
},
{
glyphname = r;
layers = (
{
layerId = m01;
paths = (
{
closed = 1;
nodes = (
"49 0 OFFCURVE",
"61 9 OFFCURVE",
"63 27 CURVE SMOOTH",
"94 320 LINE SMOOTH",
"96 340 OFFCURVE",
"85 350 OFFCURVE",
"72 350 CURVE SMOOTH",
"60 350 OFFCURVE",
"46 341 OFFCURVE",
"44 323 CURVE SMOOTH",
"13 27 LINE SMOOTH",
"11 9 OFFCURVE",
"23 0 OFFCURVE",
"36 0 CURVE SMOOTH"
);
},
{
closed = 1;
nodes = (
"272 258 OFFCURVE",
"280 268 OFFCURVE",
"276 287 CURVE SMOOTH",
"267 324 OFFCURVE",
"242 354 OFFCURVE",
"202 354 CURVE SMOOTH",
"147 354 OFFCURVE",
"107 310 OFFCURVE",
"66 224 CURVE",
"56 114 LINE",
"118 251 OFFCURVE",
"157 305 OFFCURVE",
"199 305 CURVE SMOOTH",
"216 305 OFFCURVE",
"224 284 OFFCURVE",
"229 262 CURVE SMOOTH",
"231 251 OFFCURVE",
"249 247 OFFCURVE",
"261 253 CURVE SMOOTH"
);
}
);
vertWidth = 0;
width = 298;
},
{
layerId = m002;
paths = (
{
closed = 1;
nodes = (
"102 0 OFFCURVE",
"110 24 OFFCURVE",
"112 45 CURVE SMOOTH",
"142 302 LINE SMOOTH",
"145 331 OFFCURVE",
"131 350 OFFCURVE",
"99 350 CURVE SMOOTH",
"68 350 OFFCURVE",
"47 337 OFFCURVE",
"44 308 CURVE SMOOTH",
"15 52 LINE SMOOTH",
"12 24 OFFCURVE",
"24 0 OFFCURVE",
"60 0 CURVE SMOOTH"
);
},
{
closed = 1;
nodes = (
"319 234 OFFCURVE",
"327 253 OFFCURVE",
"321 285 CURVE SMOOTH",
"311 326 OFFCURVE",
"285 360 OFFCURVE",
"234 360 CURVE SMOOTH",
"170 360 OFFCURVE",
"133 297 OFFCURVE",
"95 202 CURVE",
"85 71 LINE",
"159 224 OFFCURVE",
"198 274 OFFCURVE",
"218 274 CURVE SMOOTH",
"226 274 OFFCURVE",
"231 270 OFFCURVE",
"234 258 CURVE SMOOTH",
"242 226 OFFCURVE",
"269 217 OFFCURVE",
"296 226 CURVE SMOOTH"
);
}
);
vertWidth = 0;
width = 345;
}
);
leftKerningGroup = n_left;
note = "";
unicode = 0072;
},
{
glyphname = s;
lastChange = "2022-03-24 05:30:46 +0000";
layers = (
{
layerId = m01;
paths = (
{
closed = 1;
nodes = (
"198 -1 OFFCURVE",
"237 35 OFFCURVE",
"237 93 CURVE SMOOTH",
"237 141 OFFCURVE",
"218 162 OFFCURVE",
"127 216 CURVE SMOOTH",
"96 234 OFFCURVE",
"82 245 OFFCURVE",
"82 267 CURVE SMOOTH",
"82 289 OFFCURVE",
"100 304 OFFCURVE",
"133 304 CURVE SMOOTH",
"168 304 OFFCURVE",
"195 291 OFFCURVE",
"212 279 CURVE SMOOTH",
"228 268 OFFCURVE",
"243 265 OFFCURVE",
"252 279 CURVE SMOOTH",
"261 292 OFFCURVE",
"251 313 OFFCURVE",
"232 325 CURVE SMOOTH",
"199 346 OFFCURVE",
"167 354 OFFCURVE",
"140 354 CURVE SMOOTH",
"73 354 OFFCURVE",
"32 319 OFFCURVE",
"32 268 CURVE SMOOTH",
"32 226 OFFCURVE",
"54 201 OFFCURVE",
"95 177 CURVE SMOOTH",
"172 131 OFFCURVE",
"187 116 OFFCURVE",
"187 91 CURVE SMOOTH",
"187 65 OFFCURVE",
"169 49 OFFCURVE",
"138 49 CURVE SMOOTH",
"100 49 OFFCURVE",
"69 67 OFFCURVE",
"49 84 CURVE SMOOTH",
"35 96 OFFCURVE",
"24 96 OFFCURVE",
"12 82 CURVE SMOOTH",
"1 69 OFFCURVE",
"9 53 OFFCURVE",
"25 39 CURVE SMOOTH",
"51 15 OFFCURVE",
"88 -1 OFFCURVE",
"136 -1 CURVE SMOOTH"
);
}
);
vertWidth = 0;
width = 298;
},
{
layerId = m002;
paths = (
{
closed = 1;
nodes = (
"200 -1 OFFCURVE",
"264 26 OFFCURVE",
"264 103 CURVE SMOOTH",
"264 160 OFFCURVE",
"227 189 OFFCURVE",
"181 215 CURVE SMOOTH",
"153 231 OFFCURVE",
"125 246 OFFCURVE",
"125 257 CURVE SMOOTH",
"125 265 OFFCURVE",
"134 270 OFFCURVE",
"148 270 CURVE SMOOTH",
"165 270 OFFCURVE",
"186 265 OFFCURVE",
"202 254 CURVE SMOOTH",
"232 233 OFFCURVE",
"259 235 OFFCURVE",
"274 257 CURVE SMOOTH",
"291 281 OFFCURVE",
"280 310 OFFCURVE",
"246 333 CURVE SMOOTH",
"213 354 OFFCURVE",
"179 360 OFFCURVE",
"152 360 CURVE SMOOTH",
"77 360 OFFCURVE",
"31 321 OFFCURVE",
"31 258 CURVE SMOOTH",
"31 213 OFFCURVE",
"53 180 OFFCURVE",
"124 139 CURVE SMOOTH",
"167 114 OFFCURVE",
"168 108 OFFCURVE",
"168 101 CURVE SMOOTH",
"168 93 OFFCURVE",
"160 89 OFFCURVE",
"150 89 CURVE SMOOTH",
"125 89 OFFCURVE",
"96 104 OFFCURVE",
"85 113 CURVE SMOOTH",
"61 132 OFFCURVE",
"35 131 OFFCURVE",
"17 105 CURVE SMOOTH",
"-2 78 OFFCURVE",
"13 52 OFFCURVE",
"39 33 CURVE SMOOTH",
"58 19 OFFCURVE",
"103 -1 OFFCURVE",
"148 -1 CURVE SMOOTH"
);
}
);
vertWidth = 0;
width = 324;
}
);
note = "";
unicode = 0073;
},
{
glyphname = t;
lastChange = "2022-03-24 05:31:06 +0000";
layers = (
{
guideLines = (
{
name = " [#PIEUew2GI2]";
position = "{326, 568}";
}
);
layerId = m01;
paths = (
{
closed = 1;
nodes = (
"109 0 OFFCURVE",
"119 7 OFFCURVE",
"121 23 CURVE SMOOTH",
"177 541 LINE SMOOTH",
"179 559 OFFCURVE",
"166 568 OFFCURVE",
"152 568 CURVE SMOOTH",
"141 568 OFFCURVE",
"129 561 OFFCURVE",
"127 547 CURVE SMOOTH",
"71 24 LINE SMOOTH",
"69 8 OFFCURVE",
"83 0 OFFCURVE",
"96 0 CURVE SMOOTH"
);
},
{
closed = 1;
nodes = (
"238 305 LINE SMOOTH",
"258 305 OFFCURVE",
"262 316 OFFCURVE",
"262 328 CURVE SMOOTH",
"262 340 OFFCURVE",
"255 350 OFFCURVE",
"235 350 CURVE SMOOTH",
"32 350 LINE SMOOTH",
"12 350 OFFCURVE",
"7 340 OFFCURVE",
"7 328 CURVE SMOOTH",
"7 316 OFFCURVE",
"15 305 OFFCURVE",
"35 305 CURVE SMOOTH"
);
}
);
vertWidth = 0;
width = 280;
},
{
guideLines = (
{
name = " [#20o9Kbz8wt]";
position = "{309, 568}";
}
);
layerId = m002;
paths = (
{
closed = 1;
nodes = (
"145 0 OFFCURVE",
"167 15 OFFCURVE",
"170 45 CURVE SMOOTH",
"221 513 LINE SMOOTH",
"225 546 OFFCURVE",
"200 568 OFFCURVE",
"171 568 CURVE SMOOTH",
"148 568 OFFCURVE",
"123 553 OFFCURVE",
"120 525 CURVE SMOOTH",
"69 51 LINE SMOOTH",
"66 20 OFFCURVE",
"91 0 OFFCURVE",
"119 0 CURVE SMOOTH"
);
},
{
closed = 1;
nodes = (
"240 260 LINE SMOOTH",
"270 260 OFFCURVE",
"288 277 OFFCURVE",
"288 305 CURVE SMOOTH",
"288 333 OFFCURVE",
"270 350 OFFCURVE",
"240 350 CURVE SMOOTH",
"55 350 LINE SMOOTH",
"23 350 OFFCURVE",
"4 333 OFFCURVE",
"4 305 CURVE SMOOTH",
"4 277 OFFCURVE",
"23 260 OFFCURVE",
"55 260 CURVE SMOOTH"
);
}
);
vertWidth = 0;
width = 308;
}
);
note = "";
unicode = 0074;
},
{
glyphname = u;
layers = (
{
layerId = m01;
paths = (
{
closed = 1;
nodes = (
"155 -1 OFFCURVE",
"197 49 OFFCURVE",
"239 120 CURVE",
"248 230 LINE",
"186 93 OFFCURVE",
"145 48 OFFCURVE",
"103 48 CURVE SMOOTH",
"78 48 OFFCURVE",
"68 76 OFFCURVE",
"72 116 CURVE SMOOTH",
"94 321 LINE SMOOTH",
"96 335 OFFCURVE",
"94 350 OFFCURVE",
"72 350 CURVE SMOOTH",
"50 350 OFFCURVE",
"47 334 OFFCURVE",
"46 323 CURVE SMOOTH",
"22 116 LINE SMOOTH",
"14 51 OFFCURVE",
"42 -1 OFFCURVE",
"100 -1 CURVE SMOOTH"
);
},
{
closed = 1;
nodes = (
"248 0 OFFCURVE",
"257 9 OFFCURVE",
"259 27 CURVE SMOOTH",
"290 321 LINE SMOOTH",
"292 335 OFFCURVE",
"289 350 OFFCURVE",
"268 350 CURVE SMOOTH",
"247 350 OFFCURVE",
"242 334 OFFCURVE",
"241 323 CURVE SMOOTH",
"209 27 LINE SMOOTH",
"207 10 OFFCURVE",
"211 0 OFFCURVE",
"228 0 CURVE SMOOTH"
);
}
);
vertWidth = 0;
width = 336;
},
{
layerId = m002;
paths = (
{
closed = 1;
nodes = (
"144 -1 OFFCURVE",
"183 16 OFFCURVE",
"223 66 CURVE",
"236 184 LINE",
"186 103 OFFCURVE",
"146 89 OFFCURVE",
"133 89 CURVE SMOOTH",
"122 89 OFFCURVE",
"118 92 OFFCURVE",
"120 115 CURVE SMOOTH",
"142 298 LINE SMOOTH",
"145 326 OFFCURVE",
"134 350 OFFCURVE",
"96 350 CURVE SMOOTH",
"61 350 OFFCURVE",
"49 326 OFFCURVE",
"46 304 CURVE SMOOTH",
"23 121 LINE SMOOTH",
"12 40 OFFCURVE",
"47 -1 OFFCURVE",
"106 -1 CURVE SMOOTH"
);
},
{
closed = 1;
nodes = (
"286 0 OFFCURVE",
"307 13 OFFCURVE",
"310 42 CURVE SMOOTH",
"339 298 LINE SMOOTH",
"342 326 OFFCURVE",
"330 350 OFFCURVE",
"294 350 CURVE SMOOTH",
"252 350 OFFCURVE",
"244 326 OFFCURVE",
"242 305 CURVE SMOOTH",
"212 48 LINE SMOOTH",
"209 19 OFFCURVE",
"223 0 OFFCURVE",
"255 0 CURVE SMOOTH"
);
}
);
vertWidth = 0;
width = 388;
}
);
leftKerningGroup = n_left;
note = "";
rightKerningGroup = n_right;
unicode = 0075;
},
{
glyphname = v;
lastChange = "2022-03-24 05:32:40 +0000";
layers = (
{
layerId = m01;
paths = (
{
closed = 1;
nodes = (
"76 5 OFFCURVE",
"86 0 OFFCURVE",
"98 0 CURVE SMOOTH",
"110 0 OFFCURVE",
"119 3 OFFCURVE",
"126 19 CURVE SMOOTH",
"260 309 LINE SMOOTH",
"271 334 OFFCURVE",
"259 350 OFFCURVE",
"241 350 CURVE SMOOTH",
"231 350 OFFCURVE",
"221 345 OFFCURVE",
"213 328 CURVE SMOOTH",
"100 73 LINE",
"109 71 LINE",
"62 328 LINE SMOOTH",
"59 343 OFFCURVE",
"49 350 OFFCURVE",
"39 350 CURVE SMOOTH",
"21 350 OFFCURVE",
"10 335 OFFCURVE",
"15 308 CURVE SMOOTH",
"73 21 LINE SMOOTH"
);
}
);
vertWidth = 0;
width = 280;
},
{
layerId = m002;
paths = (
{
closed = 1;
nodes = (
"81 11 OFFCURVE",
"101 -1 OFFCURVE",
"122 -1 CURVE SMOOTH",
"138 -1 OFFCURVE",
"159 7 OFFCURVE",
"171 31 CURVE SMOOTH",
"297 276 LINE SMOOTH",
"316 313 OFFCURVE",
"292 350 OFFCURVE",
"258 350 CURVE SMOOTH",
"238 350 OFFCURVE",
"218 341 OFFCURVE",
"210 323 CURVE SMOOTH",
"123 126 LINE",
"142 120 LINE",
"107 313 LINE SMOOTH",
"103 334 OFFCURVE",
"83 349 OFFCURVE",
"61 349 CURVE SMOOTH",
"28 349 OFFCURVE",
"4 320 OFFCURVE",
"14 280 CURVE SMOOTH",
"74 38 LINE SMOOTH"
);
}
);
vertWidth = 0;
width = 322;
}
);
leftKerningGroup = v_left;
note = "";
rightKerningGroup = v_right;
unicode = 0076;
},
{
glyphname = w;
lastChange = "2022-03-24 05:33:08 +0000";
layers = (
{
layerId = m01;
leftMetricsKey = v;
rightMetricsKey = v;
paths = (
{
closed = 1;
nodes = (
"76 5 OFFCURVE",
"87 0 OFFCURVE",
"98 0 CURVE SMOOTH",
"110 0 OFFCURVE",
"119 3 OFFCURVE",
"126 19 CURVE SMOOTH",
"239 271 LINE",
"228 273 LINE",
"275 21 LINE SMOOTH",
"278 5 OFFCURVE",
"289 0 OFFCURVE",
"300 0 CURVE SMOOTH",
"312 0 OFFCURVE",
"321 3 OFFCURVE",
"328 19 CURVE SMOOTH",
"462 309 LINE SMOOTH",
"473 334 OFFCURVE",
"461 348 OFFCURVE",
"443 350 CURVE SMOOTH",
"433 351 OFFCURVE",
"423 345 OFFCURVE",
"419 336 CURVE SMOOTH",
"304 73 LINE",
"312 71 LINE",
"263 333 LINE SMOOTH",
"261 343 OFFCURVE",
"251 350 OFFCURVE",
"241 350 CURVE SMOOTH",
"231 350 OFFCURVE",
"221 345 OFFCURVE",
"217 336 CURVE SMOOTH",
"101 73 LINE",
"109 71 LINE",
"61 333 LINE SMOOTH",
"59 343 OFFCURVE",
"49 350 OFFCURVE",
"39 350 CURVE SMOOTH",
"21 350 OFFCURVE",
"10 335 OFFCURVE",
"15 308 CURVE SMOOTH",
"73 21 LINE SMOOTH"
);
}
);
vertWidth = 0;
width = 482;
},
{
layerId = m002;
leftMetricsKey = v;
rightMetricsKey = v;
paths = (
{
closed = 1;
nodes = (
"80 14 OFFCURVE",
"99 -1 OFFCURVE",
"120 -1 CURVE SMOOTH",
"145 -1 OFFCURVE",
"165 12 OFFCURVE",
"172 32 CURVE SMOOTH",
"227 195 LINE",
"218 197 LINE",
"241 38 LINE SMOOTH",
"244 14 OFFCURVE",
"264 -1 OFFCURVE",
"288 -1 CURVE SMOOTH",
"309 -1 OFFCURVE",
"328 11 OFFCURVE",
"338 31 CURVE SMOOTH",
"456 276 LINE SMOOTH",
"474 314 OFFCURVE",
"451 350 OFFCURVE",
"416 350 CURVE SMOOTH",
"397 350 OFFCURVE",
"376 341 OFFCURVE",
"369 323 CURVE SMOOTH",
"295 138 LINE",
"304 136 LINE",
"283 314 LINE SMOOTH",
"280 337 OFFCURVE",
"260 350 OFFCURVE",
"237 350 CURVE SMOOTH",
"219 350 OFFCURVE",
"198 339 OFFCURVE",
"192 322 CURVE SMOOTH",
"130 139 LINE",
"139 137 LINE",
"106 314 LINE SMOOTH",
"102 335 OFFCURVE",
"83 350 OFFCURVE",
"61 350 CURVE SMOOTH",
"28 350 OFFCURVE",
"4 321 OFFCURVE",
"14 281 CURVE SMOOTH",
"74 39 LINE SMOOTH"
);
}
);
vertWidth = 0;
width = 480;
}
);
leftKerningGroup = v_left;
note = "";
rightKerningGroup = v_right;
unicode = 0077;
},
{
glyphname = x;
lastChange = "2022-03-24 06:02:01 +0000";
layers = (
{
layerId = m01;
paths = (
{
closed = 1;
nodes = (
"35 0 OFFCURVE",
"42 6 OFFCURVE",
"51 18 CURVE SMOOTH",
"153 153 LINE",
"160 158 LINE",
"270 304 LINE SMOOTH",
"286 325 OFFCURVE",
"282 350 OFFCURVE",
"255 350 CURVE SMOOTH",
"248 350 OFFCURVE",
"240 347 OFFCURVE",
"233 338 CURVE SMOOTH",
"132 203 LINE",
"125 198 LINE",
"14 49 LINE SMOOTH",
"-5 24 OFFCURVE",
"1 0 OFFCURVE",
"23 0 CURVE SMOOTH"
);
},
{
closed = 1;
nodes = (
"244 0 OFFCURVE",
"252 21 OFFCURVE",
"237 49 CURVE SMOOTH",
"158 195 LINE",
"84 333 LINE SMOOTH",
"78 343 OFFCURVE",
"69 350 OFFCURVE",
"59 350 CURVE SMOOTH",
"43 350 OFFCURVE",
"27 334 OFFCURVE",
"40 309 CURVE SMOOTH",
"123 155 LINE",
"196 21 LINE SMOOTH",
"205 5 OFFCURVE",
"212 0 OFFCURVE",
"222 0 CURVE SMOOTH"
);
}
);
vertWidth = 0;
width = 315;
},
{
layerId = m002;
paths = (
{
closed = 1;
nodes = (
"68 -1 OFFCURVE",
"83 6 OFFCURVE",
"98 26 CURVE SMOOTH",
"187 140 LINE",
"199 144 LINE",
"294 267 LINE SMOOTH",
"326 309 OFFCURVE",
"302 350 OFFCURVE",
"260 350 CURVE SMOOTH",
"246 350 OFFCURVE",
"230 345 OFFCURVE",
"219 330 CURVE SMOOTH",
"130 215 LINE",
"118 210 LINE",
"21 85 LINE SMOOTH",
"-17 36 OFFCURVE",
"21 -1 OFFCURVE",
"52 -1 CURVE SMOOTH"
);
},
{
closed = 1;
nodes = (
"270 -1 OFFCURVE",
"288 39 OFFCURVE",
"264 82 CURVE SMOOTH",
"195 206 LINE",
"130 322 LINE SMOOTH",
"120 341 OFFCURVE",
"104 350 OFFCURVE",
"86 350 CURVE SMOOTH",
"42 350 OFFCURVE",
"24 309 OFFCURVE",
"43 274 CURVE SMOOTH",
"115 145 LINE",
"179 32 LINE SMOOTH",
"191 10 OFFCURVE",
"208 -1 OFFCURVE",
"225 -1 CURVE SMOOTH"
);
}
);
vertWidth = 0;
width = 346;
}
);
note = "";
unicode = 0078;
},
{
glyphname = y;
layers = (
{
layerId = m01;
paths = (
{
closed = 1;
nodes = (
"154 -1 OFFCURVE",
"194 46 OFFCURVE",
"236 117 CURVE",
"245 236 LINE",
"183 99 OFFCURVE",
"144 48 OFFCURVE",
"102 48 CURVE SMOOTH",
"77 48 OFFCURVE",
"67 80 OFFCURVE",
"71 116 CURVE SMOOTH",
"93 321 LINE SMOOTH",
"95 335 OFFCURVE",
"91 351 OFFCURVE",
"71 350 CURVE SMOOTH",
"51 349 OFFCURVE",
"45 332 OFFCURVE",
"44 321 CURVE SMOOTH",
"21 116 LINE SMOOTH",
"14 51 OFFCURVE",
"41 -1 OFFCURVE",
"99 -1 CURVE SMOOTH"
);
},
{
closed = 1;
nodes = (
"290 320 LINE SMOOTH",
"292 340 OFFCURVE",
"280 350 OFFCURVE",
"268 350 CURVE SMOOTH",
"255 350 OFFCURVE",
"242 341 OFFCURVE",
"240 323 CURVE SMOOTH",
"193 -123 LINE SMOOTH",
"184 -204 OFFCURVE",
"144 -254 OFFCURVE",
"88 -254 CURVE SMOOTH",
"60 -254 OFFCURVE",
"32 -243 OFFCURVE",
"15 -226 CURVE SMOOTH",
"7 -218 OFFCURVE",
"-4 -216 OFFCURVE",
"-13 -222 CURVE SMOOTH",
"-28 -232 OFFCURVE",
"-29 -246 OFFCURVE",
"-16 -259 CURVE SMOOTH",
"8 -284 OFFCURVE",
"48 -300 OFFCURVE",
"87 -300 CURVE SMOOTH",
"172 -300 OFFCURVE",
"231 -232 OFFCURVE",
"243 -123 CURVE SMOOTH"
);
}
);
vertWidth = 0;
width = 336;
},
{
layerId = m002;
paths = (
{
closed = 1;
nodes = (
"144 -1 OFFCURVE",
"183 16 OFFCURVE",
"223 66 CURVE",
"236 184 LINE",
"186 103 OFFCURVE",
"146 89 OFFCURVE",
"133 89 CURVE SMOOTH",
"122 89 OFFCURVE",
"118 92 OFFCURVE",
"120 115 CURVE SMOOTH",
"142 298 LINE SMOOTH",
"145 326 OFFCURVE",
"134 350 OFFCURVE",
"96 350 CURVE SMOOTH",
"61 350 OFFCURVE",
"49 326 OFFCURVE",
"46 304 CURVE SMOOTH",
"23 121 LINE SMOOTH",
"12 40 OFFCURVE",
"47 -1 OFFCURVE",
"106 -1 CURVE SMOOTH"
);
},
{
closed = 1;
nodes = (
"340 299 LINE SMOOTH",
"344 332 OFFCURVE",
"320 350 OFFCURVE",
"294 350 CURVE SMOOTH",
"269 350 OFFCURVE",
"245 337 OFFCURVE",
"242 308 CURVE SMOOTH",
"197 -114 LINE",
"190 -184 OFFCURVE",
"165 -210 OFFCURVE",
"127 -210 CURVE SMOOTH",
"106 -210 OFFCURVE",
"85 -200 OFFCURVE",
"68 -183 CURVE SMOOTH",
"57 -172 OFFCURVE",
"40 -158 OFFCURVE",
"14 -175 CURVE SMOOTH",
"-9 -190 OFFCURVE",
"-16 -222 OFFCURVE",
"5 -247 CURVE SMOOTH",
"25 -272 OFFCURVE",
"68 -300 OFFCURVE",
"121 -300 CURVE SMOOTH",
"214 -300 OFFCURVE",
"282 -240 OFFCURVE",
"295 -120 CURVE"
);
}
);
vertWidth = 0;
width = 389;
}
);
leftKerningGroup = n_left;
note = "";
rightKerningGroup = n_right;
unicode = 0079;
},
{
glyphname = z;
lastChange = "2022-03-24 05:36:34 +0000";
layers = (
{
layerId = m01;
paths = (
{
closed = 1;
nodes = (
"235 0 LINE SMOOTH",
"255 0 OFFCURVE",
"259 13 OFFCURVE",
"259 25 CURVE SMOOTH",
"259 37 OFFCURVE",
"252 50 OFFCURVE",
"232 50 CURVE SMOOTH",
"53 50 LINE",
"65 26 LINE",
"283 309 LINE SMOOTH",
"298 329 OFFCURVE",
"284 350 OFFCURVE",
"264 350 CURVE SMOOTH",
"69 350 LINE SMOOTH",
"49 350 OFFCURVE",
"44 337 OFFCURVE",
"44 325 CURVE SMOOTH",
"44 313 OFFCURVE",
"52 300 OFFCURVE",
"72 300 CURVE SMOOTH",
"246 300 LINE",
"234 324 LINE",
"19 44 LINE SMOOTH",
"5 26 OFFCURVE",
"19 0 OFFCURVE",
"38 0 CURVE SMOOTH"
);
}
);
vertWidth = 0;
width = 327;
},
{
layerId = m002;
paths = (
{
closed = 1;
nodes = (
"226 0 LINE SMOOTH",
"258 0 OFFCURVE",
"274 16 OFFCURVE",
"274 44 CURVE SMOOTH",
"274 65 OFFCURVE",
"259 90 OFFCURVE",
"224 90 CURVE SMOOTH",
"116 90 LINE",
"128 66 LINE",
"290 276 LINE SMOOTH",
"318 311 OFFCURVE",
"291 350 OFFCURVE",
"250 350 CURVE SMOOTH",
"81 350 LINE SMOOTH",
"44 350 OFFCURVE",
"32 328 OFFCURVE",
"32 306 CURVE SMOOTH",
"32 285 OFFCURVE",
"48 260 OFFCURVE",
"84 260 CURVE SMOOTH",
"187 260 LINE",
"175 284 LINE",
"16 77 LINE SMOOTH",
"-11 43 OFFCURVE",
"16 0 OFFCURVE",
"59 0 CURVE SMOOTH"
);
}
);
vertWidth = 0;
width = 350;
}
);
note = "";
unicode = 007A;
},
{
glyphname = zero;
layers = (
{
layerId = m01;
paths = (
{
closed = 1;
nodes = (
"330 -1 OFFCURVE",
"401 122 OFFCURVE",
"419 300 CURVE SMOOTH",
"430 408 OFFCURVE",
"405 567 OFFCURVE",
"254 567 CURVE SMOOTH",
"109 567 OFFCURVE",
"54 430 OFFCURVE",
"36 252 CURVE SMOOTH",
"22 117 OFFCURVE",
"76 -1 OFFCURVE",
"202 -1 CURVE SMOOTH"
);
},
{
closed = 1;
nodes = (
"124 45 OFFCURVE",
"73 115 OFFCURVE",
"86 245 CURVE SMOOTH",
"97 352 OFFCURVE",
"120 521 OFFCURVE",
"254 521 CURVE SMOOTH",
"367 521 OFFCURVE",
"379 392 OFFCURVE",
"368 290 CURVE SMOOTH",
"355 167 OFFCURVE",
"307 45 OFFCURVE",
"203 45 CURVE SMOOTH"
);
}
);
vertWidth = 0;
width = 467;
},
{
layerId = m002;
paths = (
{
closed = 1;
nodes = (
"347 -1 OFFCURVE",
"438 109 OFFCURVE",
"459 288 CURVE SMOOTH",
"479 461 OFFCURVE",
"410 568 OFFCURVE",
"277 568 CURVE SMOOTH",
"151 568 OFFCURVE",
"60 456 OFFCURVE",
"39 275 CURVE SMOOTH",
"19 104 OFFCURVE",
"89 -1 OFFCURVE",
"221 -1 CURVE SMOOTH"
);
},
{
closed = 1;
nodes = (
"163 89 OFFCURVE",
"128 158 OFFCURVE",
"140 271 CURVE SMOOTH",
"154 398 OFFCURVE",
"203 478 OFFCURVE",
"268 478 CURVE SMOOTH",
"336 478 OFFCURVE",
"370 407 OFFCURVE",
"358 292 CURVE SMOOTH",
"344 167 OFFCURVE",
"295 89 OFFCURVE",
"230 89 CURVE SMOOTH"
);
}
);
vertWidth = 0;
width = 509;
}
);
note = "";
unicode = 0030;
},
{
glyphname = one;
layers = (
{
layerId = m01;
paths = (
{
closed = 1;
nodes = (
"69 0 OFFCURVE",
"81 6 OFFCURVE",
"83 23 CURVE SMOOTH",
"139 543 LINE SMOOTH",
"141 560 OFFCURVE",
"129 568 OFFCURVE",
"116 568 CURVE SMOOTH",
"103 568 OFFCURVE",
"90 561 OFFCURVE",
"88 543 CURVE SMOOTH",
"33 28 LINE SMOOTH",
"31 9 OFFCURVE",
"44 0 OFFCURVE",
"57 0 CURVE SMOOTH"
);
}
);
vertWidth = 0;
width = 182;
},
{
layerId = m002;
paths = (
{
closed = 1;
nodes = (
"112 0 OFFCURVE",
"134 18 OFFCURVE",
"137 51 CURVE SMOOTH",
"185 515 LINE SMOOTH",
"188 543 OFFCURVE",
"173 568 OFFCURVE",
"138 568 CURVE SMOOTH",
"108 568 OFFCURVE",
"88 547 OFFCURVE",
"85 520 CURVE SMOOTH",
"37 57 LINE SMOOTH",
"33 21 OFFCURVE",
"50 0 OFFCURVE",
"83 0 CURVE SMOOTH"
);
}
);
vertWidth = 0;
width = 232;
}
);
note = "";
unicode = 0031;
},
{
glyphname = two;
layers = (
{
layerId = m01;
paths = (
{
closed = 1;
nodes = (
"332 37 OFFCURVE",
"325 50 OFFCURVE",
"305 50 CURVE SMOOTH",
"65 50 LINE",
"71 26 LINE",
"141 115 OFFCURVE",
"269 263 OFFCURVE",
"303 306 CURVE SMOOTH",
"353 369 OFFCURVE",
"378 421 OFFCURVE",
"378 463 CURVE SMOOTH",
"378 522 OFFCURVE",
"324 568 OFFCURVE",
"251 568 CURVE SMOOTH",
"188 568 OFFCURVE",
"118 539 OFFCURVE",
"76 503 CURVE SMOOTH",
"54 484 OFFCURVE",
"58 471 OFFCURVE",
"67 461 CURVE SMOOTH",
"75 452 OFFCURVE",
"91 449 OFFCURVE",
"115 469 CURVE SMOOTH",
"149 498 OFFCURVE",
"207 518 OFFCURVE",
"254 518 CURVE SMOOTH",
"297 518 OFFCURVE",
"328 500 OFFCURVE",
"328 468 CURVE SMOOTH",
"328 429 OFFCURVE",
"294 374 OFFCURVE",
"261 332 CURVE SMOOTH",
"237 301 OFFCURVE",
"91 128 OFFCURVE",
"18 35 CURVE SMOOTH",
"7 21 OFFCURVE",
"18 0 OFFCURVE",
"36 0 CURVE SMOOTH",
"308 0 LINE SMOOTH",
"328 0 OFFCURVE",
"332 13 OFFCURVE",
"332 25 CURVE SMOOTH"
);
}
);
vertWidth = 0;
width = 415;
},
{
layerId = m002;
paths = (
{
closed = 1;
nodes = (
"364 71 OFFCURVE",
"344 86 OFFCURVE",
"311 86 CURVE SMOOTH",
"137 86 LINE",
"148 63 LINE",
"217 149 OFFCURVE",
"289 232 OFFCURVE",
"315 265 CURVE SMOOTH",
"379 345 OFFCURVE",
"410 403 OFFCURVE",
"410 450 CURVE SMOOTH",
"410 523 OFFCURVE",
"356 568 OFFCURVE",
"268 568 CURVE SMOOTH",
"202 568 OFFCURVE",
"119 540 OFFCURVE",
"79 503 CURVE SMOOTH",
"52 478 OFFCURVE",
"56 456 OFFCURVE",
"70 437 CURVE SMOOTH",
"83 420 OFFCURVE",
"117 412 OFFCURVE",
"146 438 CURVE SMOOTH",
"177 466 OFFCURVE",
"224 481 OFFCURVE",
"261 481 CURVE SMOOTH",
"291 481 OFFCURVE",
"310 470 OFFCURVE",
"310 452 CURVE SMOOTH",
"310 426 OFFCURVE",
"284 384 OFFCURVE",
"252 343 CURVE SMOOTH",
"228 313 OFFCURVE",
"138 207 OFFCURVE",
"37 80 CURVE SMOOTH",
"6 41 OFFCURVE",
"22 0 OFFCURVE",
"61 0 CURVE SMOOTH",
"317 0 LINE SMOOTH",
"346 0 OFFCURVE",
"364 18 OFFCURVE",
"364 44 CURVE SMOOTH"
);
}
);
vertWidth = 0;
width = 443;
}
);
note = "";
unicode = 0032;
},
{
glyphname = three;
layers = (
{
layerId = m01;
paths = (
{
closed = 1;
nodes = (
"13 58 OFFCURVE",
"17 45 OFFCURVE",
"30 34 CURVE SMOOTH",
"56 12 OFFCURVE",
"105 -1 OFFCURVE",
"158 -1 CURVE SMOOTH",
"278 -1 OFFCURVE",
"359 58 OFFCURVE",
"369 154 CURVE SMOOTH",
"377 238 OFFCURVE",
"325 298 OFFCURVE",
"227 315 CURVE",
"226 307 LINE",
"319 321 OFFCURVE",
"366 367 OFFCURVE",
"373 436 CURVE SMOOTH",
"383 526 OFFCURVE",
"297 568 OFFCURVE",
"220 568 CURVE SMOOTH",
"165 568 OFFCURVE",
"107 549 OFFCURVE",
"83 533 CURVE SMOOTH",
"71 525 OFFCURVE",
"66 510 OFFCURVE",
"72 500 CURVE SMOOTH",
"79 489 OFFCURVE",
"96 489 OFFCURVE",
"110 496 CURVE SMOOTH",
"133 507 OFFCURVE",
"178 522 OFFCURVE",
"218 522 CURVE SMOOTH",
"278 522 OFFCURVE",
"330 500 OFFCURVE",
"323 437 CURVE SMOOTH",
"313 353 OFFCURVE",
"219 330 OFFCURVE",
"124 330 CURVE SMOOTH",
"113 330 OFFCURVE",
"104 321 OFFCURVE",
"104 308 CURVE SMOOTH",
"104 296 OFFCURVE",
"113 287 OFFCURVE",
"124 287 CURVE SMOOTH",
"232 287 OFFCURVE",
"329 259 OFFCURVE",
"319 153 CURVE SMOOTH",
"312 86 OFFCURVE",
"250 45 OFFCURVE",
"156 45 CURVE SMOOTH",
"118 45 OFFCURVE",
"80 55 OFFCURVE",
"57 71 CURVE SMOOTH",
"42 81 OFFCURVE",
"28 81 OFFCURVE",
"20 69 CURVE SMOOTH"
);
}
);
vertWidth = 0;
width = 433;
},
{
layerId = m002;
paths = (
{
closed = 1;
nodes = (
"14 84 OFFCURVE",
"15 59 OFFCURVE",
"42 37 CURVE SMOOTH",
"63 20 OFFCURVE",
"102 -1 OFFCURVE",
"171 -1 CURVE SMOOTH",
"313 -1 OFFCURVE",
"390 53 OFFCURVE",
"401 161 CURVE SMOOTH",
"409 239 OFFCURVE",
"346 314 OFFCURVE",
"238 322 CURVE",
"233 295 LINE",
"323 302 OFFCURVE",
"398 342 OFFCURVE",
"405 415 CURVE SMOOTH",
"415 517 OFFCURVE",
"358 568 OFFCURVE",
"235 568 CURVE SMOOTH",
"158 568 OFFCURVE",
"112 546 OFFCURVE",
"91 529 CURVE SMOOTH",
"64 507 OFFCURVE",
"62 481 OFFCURVE",
"77 460 CURVE SMOOTH",
"92 440 OFFCURVE",
"122 445 OFFCURVE",
"146 458 CURVE SMOOTH",
"164 468 OFFCURVE",
"193 478 OFFCURVE",
"234 478 CURVE SMOOTH",
"285 478 OFFCURVE",
"309 459 OFFCURVE",
"305 422 CURVE SMOOTH",
"299 370 OFFCURVE",
"265 351 OFFCURVE",
"149 351 CURVE SMOOTH",
"125 351 OFFCURVE",
"101 333 OFFCURVE",
"101 305 CURVE SMOOTH",
"101 282 OFFCURVE",
"119 263 OFFCURVE",
"146 263 CURVE SMOOTH",
"230 263 OFFCURVE",
"310 257 OFFCURVE",
"301 167 CURVE SMOOTH",
"297 115 OFFCURVE",
"255 89 OFFCURVE",
"176 89 CURVE SMOOTH",
"130 89 OFFCURVE",
"112 98 OFFCURVE",
"94 110 CURVE SMOOTH",
"65 131 OFFCURVE",
"42 128 OFFCURVE",
"27 105 CURVE SMOOTH"
);
}
);
vertWidth = 0;
width = 464;
}
);
note = "";
unicode = 0033;
},
{
glyphname = four;
layers = (
{
layerId = m01;
paths = (
{
closed = 1;
nodes = (
"204 0 OFFCURVE",
"217 6 OFFCURVE",
"219 26 CURVE SMOOTH",
"255 358 LINE SMOOTH",
"257 375 OFFCURVE",
"248 387 OFFCURVE",
"233 387 CURVE SMOOTH",
"220 387 OFFCURVE",
"207 382 OFFCURVE",
"205 365 CURVE SMOOTH",
"169 31 LINE SMOOTH",
"167 11 OFFCURVE",
"179 0 OFFCURVE",
"192 0 CURVE SMOOTH"
);
},
{
closed = 1;
nodes = (
"333 196 LINE SMOOTH",
"349 196 OFFCURVE",
"357 207 OFFCURVE",
"357 219 CURVE SMOOTH",
"357 231 OFFCURVE",
"345 241 OFFCURVE",
"329 241 CURVE SMOOTH",
"56 241 LINE",
"83 211 LINE",
"118 540 LINE SMOOTH",
"120 558 OFFCURVE",
"107 568 OFFCURVE",
"95 568 CURVE SMOOTH",
"83 568 OFFCURVE",
"70 562 OFFCURVE",
"68 544 CURVE SMOOTH",
"33 219 LINE SMOOTH",
"32 208 OFFCURVE",
"41 196 OFFCURVE",
"53 196 CURVE SMOOTH"
);
}
);
vertWidth = 0;
width = 414;
},
{
layerId = m002;
paths = (
{
closed = 1;
nodes = (
"249 0 OFFCURVE",
"266 16 OFFCURVE",
"269 44 CURVE SMOOTH",
"297 350 LINE SMOOTH",
"300 379 OFFCURVE",
"285 401 OFFCURVE",
"258 402 CURVE SMOOTH",
"230 403 OFFCURVE",
"208 391 OFFCURVE",
"205 363 CURVE SMOOTH",
"175 59 LINE SMOOTH",
"172 26 OFFCURVE",
"186 0 OFFCURVE",
"217 0 CURVE SMOOTH"
);
},
{
closed = 1;
nodes = (
"357 173 LINE SMOOTH",
"385 173 OFFCURVE",
"402 193 OFFCURVE",
"403 219 CURVE SMOOTH",
"404 243 OFFCURVE",
"386 263 OFFCURVE",
"358 263 CURVE SMOOTH",
"107 263 LINE",
"134 233 LINE",
"164 519 LINE SMOOTH",
"167 551 OFFCURVE",
"142 568 OFFCURVE",
"117 568 CURVE SMOOTH",
"93 568 OFFCURVE",
"68 555 OFFCURVE",
"65 527 CURVE SMOOTH",
"33 221 LINE SMOOTH",
"30 196 OFFCURVE",
"52 173 OFFCURVE",
"84 173 CURVE SMOOTH"
);
}
);
vertWidth = 0;
width = 460;
}
);
note = "";
unicode = 0034;
},
{
glyphname = five;
layers = (
{
layerId = m01;
paths = (
{
closed = 1;
nodes = (
"266 -1 OFFCURVE",
"346 76 OFFCURVE",
"346 213 CURVE SMOOTH",
"346 300 OFFCURVE",
"284 350 OFFCURVE",
"183 350 CURVE SMOOTH",
"150 350 OFFCURVE",
"125 344 OFFCURVE",
"76 329 CURVE",
"102 312 LINE",
"129 553 LINE",
"96 523 LINE",
"331 523 LINE SMOOTH",
"351 523 OFFCURVE",
"358 533 OFFCURVE",
"358 545 CURVE SMOOTH",
"358 557 OFFCURVE",
"350 568 OFFCURVE",
"330 568 CURVE SMOOTH",
"110 568 LINE",
"90 568 OFFCURVE",
"80 560 OFFCURVE",
"78 541 CURVE SMOOTH",
"53 310 LINE SMOOTH",
"51 295 OFFCURVE",
"66 282 OFFCURVE",
"81 286 CURVE",
"126 299 OFFCURVE",
"151 304 OFFCURVE",
"176 304 CURVE SMOOTH",
"250 304 OFFCURVE",
"296 265 OFFCURVE",
"296 201 CURVE SMOOTH",
"296 107 OFFCURVE",
"234 45 OFFCURVE",
"151 45 CURVE SMOOTH",
"117 45 OFFCURVE",
"78 57 OFFCURVE",
"60 74 CURVE SMOOTH",
"55 79 OFFCURVE",
"49 87 OFFCURVE",
"41 87 CURVE SMOOTH",
"29 87 OFFCURVE",
"17 76 OFFCURVE",
"17 62 CURVE SMOOTH",
"17 55 OFFCURVE",
"22 46 OFFCURVE",
"31 37 CURVE SMOOTH",
"53 15 OFFCURVE",
"98 -1 OFFCURVE",
"137 -1 CURVE SMOOTH"
);
}
);
vertWidth = 0;
width = 405;
},
{
layerId = m002;
paths = (
{
closed = 1;
nodes = (
"302 -1 OFFCURVE",
"385 76 OFFCURVE",
"385 200 CURVE SMOOTH",
"385 306 OFFCURVE",
"329 359 OFFCURVE",
"219 359 CURVE SMOOTH",
"187 359 OFFCURVE",
"175 355 OFFCURVE",
"136 345 CURVE",
"160 327 LINE",
"183 514 LINE",
"150 483 LINE",
"368 483 LINE SMOOTH",
"400 483 OFFCURVE",
"413 502 OFFCURVE",
"414 526 CURVE SMOOTH",
"415 553 OFFCURVE",
"392 568 OFFCURVE",
"362 568 CURVE SMOOTH",
"151 568 LINE SMOOTH",
"108 568 OFFCURVE",
"87 552 OFFCURVE",
"83 521 CURVE SMOOTH",
"59 309 LINE SMOOTH",
"55 273 OFFCURVE",
"80 253 OFFCURVE",
"119 262 CURVE SMOOTH",
"148 269 OFFCURVE",
"165 273 OFFCURVE",
"201 273 CURVE SMOOTH",
"256 273 OFFCURVE",
"284 246 OFFCURVE",
"284 193 CURVE SMOOTH",
"284 126 OFFCURVE",
"244 85 OFFCURVE",
"191 85 CURVE SMOOTH",
"157 85 OFFCURVE",
"123 96 OFFCURVE",
"100 111 CURVE SMOOTH",
"88 119 OFFCURVE",
"74 128 OFFCURVE",
"61 128 CURVE SMOOTH",
"40 128 OFFCURVE",
"20 115 OFFCURVE",
"20 90 CURVE SMOOTH",
"20 76 OFFCURVE",
"28 63 OFFCURVE",
"43 49 CURVE SMOOTH",
"74 20 OFFCURVE",
"128 -1 OFFCURVE",
"180 -1 CURVE SMOOTH"
);
}
);
vertWidth = 0;
width = 445;
}
);
note = "";
unicode = 0035;
},
{
glyphname = six;
layers = (
{
layerId = m01;
paths = (
{
closed = 1;
nodes = (
"97 -1 OFFCURVE",
"170 -1 CURVE SMOOTH",
"270 -1 OFFCURVE",
"336 89 OFFCURVE",
"339 196 CURVE SMOOTH",
"342 301 OFFCURVE",
"289 355 OFFCURVE",
"209 355 CURVE SMOOTH",
"127 354 OFFCURVE",
"68 292 OFFCURVE",
"68 210 CURVE",
"82 157 LINE",
"82 243 OFFCURVE",
"134 307 OFFCURVE",
"203 307 CURVE SMOOTH",
"260 307 OFFCURVE",
"293 267 OFFCURVE",
"289 190 CURVE SMOOTH",
"286 112 OFFCURVE",
"239 45 OFFCURVE",
"178 45 CURVE SMOOTH",
"123 45 OFFCURVE",
"82 93 OFFCURVE",
"82 157 CURVE SMOOTH",
"82 384 OFFCURVE",
"141 524 OFFCURVE",
"236 523 CURVE SMOOTH",
"269 523 OFFCURVE",
"299 511 OFFCURVE",
"316 492 CURVE SMOOTH",
"325 482 OFFCURVE",
"341 478 OFFCURVE",
"353 491 CURVE SMOOTH",
"364 504 OFFCURVE",
"358 514 OFFCURVE",
"350 523 CURVE SMOOTH",
"326 551 OFFCURVE",
"286 568 OFFCURVE",
"245 568 CURVE SMOOTH",
"113 568 OFFCURVE",
"32 411 OFFCURVE",
"32 156 CURVE SMOOTH",
"32 66 OFFCURVE"
);
}
);
vertWidth = 0;
width = 399;
},
{
layerId = m002;
paths = (
{
closed = 1;
nodes = (
"93 -1 OFFCURVE",
"191 -1 CURVE SMOOTH",
"301 -1 OFFCURVE",
"371 75 OFFCURVE",
"376 198 CURVE SMOOTH",
"380 298 OFFCURVE",
"328 360 OFFCURVE",
"241 360 CURVE SMOOTH",
"169 360 OFFCURVE",
"111 303 OFFCURVE",
"111 226 CURVE",
"130 175 LINE",
"130 229 OFFCURVE",
"166 270 OFFCURVE",
"215 270 CURVE SMOOTH",
"254 270 OFFCURVE",
"277 238 OFFCURVE",
"276 186 CURVE SMOOTH",
"274 126 OFFCURVE",
"243 89 OFFCURVE",
"196 89 CURVE SMOOTH",
"155 89 OFFCURVE",
"130 122 OFFCURVE",
"130 175 CURVE SMOOTH",
"130 363 OFFCURVE",
"180 479 OFFCURVE",
"261 479 CURVE SMOOTH",
"281 479 OFFCURVE",
"300 471 OFFCURVE",
"314 460 CURVE SMOOTH",
"346 435 OFFCURVE",
"362 432 OFFCURVE",
"385 455 CURVE SMOOTH",
"406 476 OFFCURVE",
"406 498 OFFCURVE",
"382 519 CURVE SMOOTH",
"345 552 OFFCURVE",
"306 568 OFFCURVE",
"267 568 CURVE SMOOTH",
"122 568 OFFCURVE",
"33 418 OFFCURVE",
"33 174 CURVE SMOOTH",
"33 66 OFFCURVE"
);
}
);
vertWidth = 0;
width = 436;
}
);
note = "";
unicode = 0036;
},
{
glyphname = seven;
layers = (
{
layerId = m01;
paths = (
{
closed = 1;
nodes = (
"84 0 OFFCURVE",
"98 8 OFFCURVE",
"107 26 CURVE SMOOTH",
"353 533 LINE SMOOTH",
"362 551 OFFCURVE",
"353 568 OFFCURVE",
"334 568 CURVE SMOOTH",
"93 568 LINE SMOOTH",
"75 568 OFFCURVE",
"67 557 OFFCURVE",
"68 546 CURVE SMOOTH",
"69 534 OFFCURVE",
"78 523 OFFCURVE",
"96 523 CURVE SMOOTH",
"322 523 LINE",
"306 550 LINE",
"61 46 LINE SMOOTH",
"46 15 OFFCURVE",
"59 0 OFFCURVE",
"72 0 CURVE SMOOTH"
);
}
);
vertWidth = 0;
width = 379;
},
{
layerId = m002;
paths = (
{
closed = 1;
nodes = (
"134 0 OFFCURVE",
"154 18 OFFCURVE",
"166 42 CURVE SMOOTH",
"387 503 LINE SMOOTH",
"404 538 OFFCURVE",
"387 568 OFFCURVE",
"345 568 CURVE SMOOTH",
"112 568 LINE SMOOTH",
"82 568 OFFCURVE",
"64 546 OFFCURVE",
"65 522 CURVE SMOOTH",
"66 498 OFFCURVE",
"88 478 OFFCURVE",
"118 478 CURVE SMOOTH",
"294 478 LINE",
"277 505 LINE",
"73 75 LINE SMOOTH",
"50 27 OFFCURVE",
"84 0 OFFCURVE",
"111 0 CURVE SMOOTH"
);
}
);
vertWidth = 0;
width = 418;
}
);
note = "";
unicode = 0037;
},
{
glyphname = eight;
layers = (
{
layerId = m01;
paths = (
{
closed = 1;
nodes = (
"116 45 OFFCURVE",
"78 73 OFFCURVE",
"78 137 CURVE SMOOTH",
"78 201 OFFCURVE",
"111 235 OFFCURVE",
"188 291 CURVE SMOOTH",
"265 347 OFFCURVE",
"348 402 OFFCURVE",
"348 464 CURVE SMOOTH",
"348 547 OFFCURVE",
"276 568 OFFCURVE",
"209 568 CURVE SMOOTH",
"136 568 OFFCURVE",
"58 533 OFFCURVE",
"58 448 CURVE SMOOTH",
"58 387 OFFCURVE",
"127 329 OFFCURVE",
"154 302 CURVE SMOOTH",
"169 287 LINE SMOOTH",
"205 251 OFFCURVE",
"263 194 OFFCURVE",
"263 149 CURVE SMOOTH",
"263 77 OFFCURVE",
"224 45 OFFCURVE",
"166 45 CURVE SMOOTH"
);
},
{
closed = 1;
nodes = (
"251 -1 OFFCURVE",
"313 58 OFFCURVE",
"313 149 CURVE SMOOTH",
"313 199 OFFCURVE",
"268 255 OFFCURVE",
"211 310 CURVE SMOOTH",
"181 339 LINE SMOOTH",
"157 363 OFFCURVE",
"108 406 OFFCURVE",
"108 451 CURVE SMOOTH",
"108 504 OFFCURVE",
"162 522 OFFCURVE",
"206 522 CURVE SMOOTH",
"255 522 OFFCURVE",
"298 518 OFFCURVE",
"298 465 CURVE SMOOTH",
"298 421 OFFCURVE",
"227 376 OFFCURVE",
"157 325 CURVE SMOOTH",
"60 254 OFFCURVE",
"28 209 OFFCURVE",
"28 133 CURVE SMOOTH",
"28 54 OFFCURVE",
"87 -1 OFFCURVE",
"163 -1 CURVE SMOOTH"
);
}
);
vertWidth = 0;
width = 380;
},
{
layerId = m002;
paths = (
{
closed = 1;
nodes = (
"149 84 OFFCURVE",
"121 108 OFFCURVE",
"121 148 CURVE SMOOTH",
"121 177 OFFCURVE",
"141 219 OFFCURVE",
"234 287 CURVE SMOOTH",
"312 344 OFFCURVE",
"382 392 OFFCURVE",
"382 465 CURVE SMOOTH",
"382 532 OFFCURVE",
"296 568 OFFCURVE",
"224 568 CURVE SMOOTH",
"147 568 OFFCURVE",
"64 526 OFFCURVE",
"64 428 CURVE SMOOTH",
"64 355 OFFCURVE",
"128 311 OFFCURVE",
"150 289 CURVE SMOOTH",
"169 270 LINE SMOOTH",
"205 234 OFFCURVE",
"252 190 OFFCURVE",
"252 147 CURVE SMOOTH",
"252 113 OFFCURVE",
"223 84 OFFCURVE",
"182 84 CURVE SMOOTH"
);
},
{
closed = 1;
nodes = (
"298 -1 OFFCURVE",
"347 86 OFFCURVE",
"347 156 CURVE SMOOTH",
"347 218 OFFCURVE",
"293 275 OFFCURVE",
"242 322 CURVE SMOOTH",
"217 345 LINE SMOOTH",
"189 371 OFFCURVE",
"156 397 OFFCURVE",
"156 433 CURVE SMOOTH",
"156 470 OFFCURVE",
"193 488 OFFCURVE",
"228 488 CURVE SMOOTH",
"260 488 OFFCURVE",
"289 476 OFFCURVE",
"289 456 CURVE SMOOTH",
"289 436 OFFCURVE",
"228 391 OFFCURVE",
"171 352 CURVE SMOOTH",
"67 281 OFFCURVE",
"26 204 OFFCURVE",
"26 148 CURVE SMOOTH",
"26 87 OFFCURVE",
"72 -1 OFFCURVE",
"183 -1 CURVE SMOOTH"
);
}
);
vertWidth = 0;
width = 414;
}
);
note = "";
unicode = 0038;
},
{
glyphname = nine;
layers = (
{
layerId = m01;
paths = (
{
closed = 1;
nodes = (
"263 0 OFFCURVE",
"274 6 OFFCURVE",
"276 21 CURVE SMOOTH",
"331 541 LINE SMOOTH",
"333 559 OFFCURVE",
"321 568 OFFCURVE",
"307 568 CURVE SMOOTH",
"296 568 OFFCURVE",
"284 561 OFFCURVE",
"282 546 CURVE SMOOTH",
"227 26 LINE SMOOTH",
"225 10 OFFCURVE",
"238 0 OFFCURVE",
"252 0 CURVE SMOOTH"
);
},
{
closed = 1;
nodes = (
"209 218 OFFCURVE",
"246 257 OFFCURVE",
"269 304 CURVE",
"287 466 LINE",
"281 466 LINE",
"275 414 OFFCURVE",
"233 264 OFFCURVE",
"166 264 CURVE SMOOTH",
"114 264 OFFCURVE",
"95 330 OFFCURVE",
"102 395 CURVE SMOOTH",
"111 480 OFFCURVE",
"152 522 OFFCURVE",
"201 522 CURVE SMOOTH",
"242 522 OFFCURVE",
"276 509 OFFCURVE",
"289 489 CURVE",
"294 535 LINE",
"276 555 OFFCURVE",
"241 568 OFFCURVE",
"202 568 CURVE SMOOTH",
"128 568 OFFCURVE",
"64 513 OFFCURVE",
"52 398 CURVE SMOOTH",
"43 310 OFFCURVE",
"78 218 OFFCURVE",
"165 218 CURVE SMOOTH"
);
}
);
vertWidth = 0;
width = 355;
},
{
layerId = m002;
paths = (
{
closed = 1;
nodes = (
"292 0 OFFCURVE",
"312 21 OFFCURVE",
"315 48 CURVE SMOOTH",
"365 511 LINE SMOOTH",
"369 547 OFFCURVE",
"352 568 OFFCURVE",
"319 568 CURVE SMOOTH",
"290 568 OFFCURVE",
"268 544 OFFCURVE",
"264 511 CURVE SMOOTH",
"215 53 LINE SMOOTH",
"212 25 OFFCURVE",
"227 0 OFFCURVE",
"262 0 CURVE SMOOTH"
);
},
{
closed = 1;
nodes = (
"233 210 OFFCURVE",
"277 278 OFFCURVE",
"299 326 CURVE",
"317 480 LINE",
"261 480 LINE",
"232 317 OFFCURVE",
"216 300 OFFCURVE",
"181 300 CURVE SMOOTH",
"158 300 OFFCURVE",
"146 336 OFFCURVE",
"152 388 CURVE SMOOTH",
"159 453 OFFCURVE",
"181 478 OFFCURVE",
"211 478 CURVE SMOOTH",
"240 478 OFFCURVE",
"255 474 OFFCURVE",
"306 396 CURVE",
"319 508 LINE",
"288 535 OFFCURVE",
"247 568 OFFCURVE",
"212 568 CURVE SMOOTH",
"134 568 OFFCURVE",
"65 511 OFFCURVE",
"52 396 CURVE SMOOTH",
"43 308 OFFCURVE",
"84 210 OFFCURVE",
"180 210 CURVE SMOOTH"
);
}
);
vertWidth = 0;
width = 411;
}
);
note = "";
unicode = 0039;
},
{
glyphname = .notdef;
layers = (
{
layerId = m01;
paths = (
{
closed = 1;
nodes = (
"466 0 OFFCURVE",
"476 12 OFFCURVE",
"478 27 CURVE SMOOTH",
"547 673 LINE SMOOTH",
"549 689 OFFCURVE",
"541 700 OFFCURVE",
"527 700 CURVE SMOOTH",
"131 700 LINE SMOOTH",
"114 700 OFFCURVE",
"104 689 OFFCURVE",
"102 673 CURVE SMOOTH",
"33 27 LINE SMOOTH",
"31 12 OFFCURVE",
"40 0 OFFCURVE",
"59 0 CURVE SMOOTH",
"455 0 LINE SMOOTH"
);
},
{
closed = 1;
nodes = (
"151 655 LINE",
"494 655 LINE",
"430 45 LINE",
"86 45 LINE"
);
}
);
vertWidth = 0;
width = 576;
},
{
layerId = m002;
paths = (
{
closed = 1;
nodes = (
"492 0 OFFCURVE",
"513 26 OFFCURVE",
"516 49 CURVE SMOOTH",
"580 659 LINE SMOOTH",
"583 687 OFFCURVE",
"567 700 OFFCURVE",
"530 700 CURVE",
"150 700 LINE",
"122 700 OFFCURVE",
"102 687 OFFCURVE",
"99 659 CURVE SMOOTH",
"35 49 LINE SMOOTH",
"32 21 OFFCURVE",
"47 0 OFFCURVE",
"86 0 CURVE SMOOTH",
"467 0 LINE SMOOTH"
);
},
{
closed = 1;
nodes = (
"196 605 LINE",
"473 605 LINE",
"418 95 LINE",
"141 95 LINE"
);
}
);
vertWidth = 0;
width = 611;
}
);
note = "";
},
{
glyphname = period;
layers = (
{
layerId = m01;
paths = (
{
closed = 1;
nodes = (
"97 -1 OFFCURVE",
"114 17 OFFCURVE",
"114 40 CURVE SMOOTH",
"114 62 OFFCURVE",
"97 79 OFFCURVE",
"74 79 CURVE SMOOTH",
"51 79 OFFCURVE",
"34 62 OFFCURVE",
"34 40 CURVE SMOOTH",
"34 17 OFFCURVE",
"51 -1 OFFCURVE",
"74 -1 CURVE SMOOTH"
);
}
);
vertWidth = 0;
width = 210;
},
{
layerId = m002;
leftMetricsKey = n;
rightMetricsKey = n;
paths = (
{
closed = 1;
nodes = (
"132 0 OFFCURVE",
"162 30 OFFCURVE",
"162 65 CURVE SMOOTH",
"162 98 OFFCURVE",
"132 126 OFFCURVE",
"99 126 CURVE SMOOTH",
"64 126 OFFCURVE",
"37 98 OFFCURVE",
"37 65 CURVE SMOOTH",
"37 30 OFFCURVE",
"64 0 OFFCURVE",
"99 0 CURVE SMOOTH"
);
}
);
vertWidth = 0;
width = 256;
}
);
leftKerningGroup = period_left;
note = "";
rightKerningGroup = period_right;
unicode = 002E;
},
{
glyphname = comma;
layers = (
{
layerId = m01;
paths = (
{
closed = 1;
nodes = (
"56 -103 OFFCURVE",
"71 -96 OFFCURVE",
"73 -76 CURVE SMOOTH",
"83 18 LINE SMOOTH",
"85 39 OFFCURVE",
"74 49 OFFCURVE",
"61 50 CURVE SMOOTH",
"47 52 OFFCURVE",
"35 45 OFFCURVE",
"33 28 CURVE SMOOTH",
"23 -71 LINE SMOOTH",
"21 -89 OFFCURVE",
"32 -99 OFFCURVE",
"44 -101 CURVE SMOOTH"
);
}
);
vertWidth = 0;
width = 181;
},
{
layerId = m002;
leftMetricsKey = n;
rightMetricsKey = n;
paths = (
{
closed = 1;
nodes = (
"102 -79 OFFCURVE",
"123 -68 OFFCURVE",
"131 -37 CURVE SMOOTH",
"157 67 LINE SMOOTH",
"169 113 OFFCURVE",
"136 129 OFFCURVE",
"109 129 CURVE SMOOTH",
"83 129 OFFCURVE",
"63 119 OFFCURVE",
"55 87 CURVE SMOOTH",
"29 -17 LINE SMOOTH",
"18 -62 OFFCURVE",
"50 -79 OFFCURVE",
"76 -79 CURVE SMOOTH"
);
}
);
vertWidth = 0;
width = 256;
}
);
leftKerningGroup = period_left;
note = "";
rightKerningGroup = period_right;
unicode = 002C;
},
{
glyphname = colon;
layers = (
{
layerId = m01;
paths = (
{
closed = 1;
nodes = (
"97 -1 OFFCURVE",
"114 17 OFFCURVE",
"114 40 CURVE SMOOTH",
"114 62 OFFCURVE",
"97 79 OFFCURVE",
"74 79 CURVE SMOOTH",
"51 79 OFFCURVE",
"34 62 OFFCURVE",
"34 40 CURVE SMOOTH",
"34 17 OFFCURVE",
"51 -1 OFFCURVE",
"74 -1 CURVE SMOOTH"
);
},
{
closed = 1;
nodes = (
"125 274 OFFCURVE",
"142 292 OFFCURVE",
"142 315 CURVE SMOOTH",
"142 337 OFFCURVE",
"125 354 OFFCURVE",
"102 354 CURVE SMOOTH",
"79 354 OFFCURVE",
"62 337 OFFCURVE",
"62 315 CURVE SMOOTH",
"62 292 OFFCURVE",
"79 274 OFFCURVE",
"102 274 CURVE SMOOTH"
);
}
);
vertWidth = 0;
width = 212;
},
{
guideLines = (
{
angle = 84;
name = " [#ZJiWTdyg8t]";
position = "{62, 306}";
}
);
layerId = m002;
leftMetricsKey = n;
rightMetricsKey = n;
paths = (
{
closed = 1;
nodes = (
"132 0 OFFCURVE",
"162 30 OFFCURVE",
"162 65 CURVE SMOOTH",
"162 98 OFFCURVE",
"132 126 OFFCURVE",
"99 126 CURVE SMOOTH",
"64 126 OFFCURVE",
"37 98 OFFCURVE",
"37 65 CURVE SMOOTH",
"37 30 OFFCURVE",
"64 0 OFFCURVE",
"99 0 CURVE SMOOTH"
);
},
{
closed = 1;
nodes = (
"157 233 OFFCURVE",
"187 263 OFFCURVE",
"187 298 CURVE SMOOTH",
"187 331 OFFCURVE",
"157 359 OFFCURVE",
"124 359 CURVE SMOOTH",
"89 359 OFFCURVE",
"62 331 OFFCURVE",
"62 298 CURVE SMOOTH",
"62 263 OFFCURVE",
"89 233 OFFCURVE",
"124 233 CURVE SMOOTH"
);
}
);
vertWidth = 0;
width = 256;
}
);
leftKerningGroup = colon_left;
note = "";
rightKerningGroup = colon_right;
unicode = 003A;
},
{
glyphname = semicolon;
layers = (
{
layerId = m01;
paths = (
{
closed = 1;
nodes = (
"73 -103 OFFCURVE",
"85 -95 OFFCURVE",
"87 -78 CURVE SMOOTH",
"99 21 LINE SMOOTH",
"101 39 OFFCURVE",
"89 49 OFFCURVE",
"76 50 CURVE SMOOTH",
"62 52 OFFCURVE",
"50 45 OFFCURVE",
"48 28 CURVE SMOOTH",
"38 -71 LINE SMOOTH",
"36 -90 OFFCURVE",
"49 -101 OFFCURVE",
"62 -102 CURVE SMOOTH"
);
},
{
closed = 1;
nodes = (
"125 274 OFFCURVE",
"142 292 OFFCURVE",
"142 315 CURVE SMOOTH",
"142 337 OFFCURVE",
"125 354 OFFCURVE",
"102 354 CURVE SMOOTH",
"79 354 OFFCURVE",
"62 337 OFFCURVE",
"62 315 CURVE SMOOTH",
"62 292 OFFCURVE",
"79 274 OFFCURVE",
"102 274 CURVE SMOOTH"
);
}
);
vertWidth = 0;
width = 212;
},
{
layerId = m002;
leftMetricsKey = n;
rightMetricsKey = n;
paths = (
{
closed = 1;
nodes = (
"102 -79 OFFCURVE",
"123 -68 OFFCURVE",
"131 -37 CURVE SMOOTH",
"157 67 LINE SMOOTH",
"169 113 OFFCURVE",
"136 129 OFFCURVE",
"109 129 CURVE SMOOTH",
"83 129 OFFCURVE",
"63 119 OFFCURVE",
"55 87 CURVE SMOOTH",
"29 -17 LINE SMOOTH",
"18 -62 OFFCURVE",
"50 -79 OFFCURVE",
"76 -79 CURVE SMOOTH"
);
},
{
closed = 1;
nodes = (
"157 233 OFFCURVE",
"187 263 OFFCURVE",
"187 298 CURVE SMOOTH",
"187 331 OFFCURVE",
"157 359 OFFCURVE",
"124 359 CURVE SMOOTH",
"89 359 OFFCURVE",
"62 331 OFFCURVE",
"62 298 CURVE SMOOTH",
"62 263 OFFCURVE",
"89 233 OFFCURVE",
"124 233 CURVE SMOOTH"
);
}
);
vertWidth = 0;
width = 256;
}
);
leftKerningGroup = colon_left;
note = "";
rightKerningGroup = colon_right;
unicode = 003B;
},
{
glyphname = ellipsis;
layers = (
{
layerId = m01;
paths = (
{
closed = 1;
nodes = (
"97 -1 OFFCURVE",
"114 17 OFFCURVE",
"114 40 CURVE SMOOTH",
"114 62 OFFCURVE",
"97 79 OFFCURVE",
"74 79 CURVE SMOOTH",
"51 79 OFFCURVE",
"34 62 OFFCURVE",
"34 40 CURVE SMOOTH",
"34 17 OFFCURVE",
"51 -1 OFFCURVE",
"74 -1 CURVE SMOOTH"
);
},
{
closed = 1;
nodes = (
"237 -1 OFFCURVE",
"254 17 OFFCURVE",
"254 40 CURVE SMOOTH",
"254 62 OFFCURVE",
"237 79 OFFCURVE",
"214 79 CURVE SMOOTH",
"191 79 OFFCURVE",
"174 62 OFFCURVE",
"174 40 CURVE SMOOTH",
"174 17 OFFCURVE",
"191 -1 OFFCURVE",
"214 -1 CURVE SMOOTH"
);
},
{
closed = 1;
nodes = (
"377 -1 OFFCURVE",
"394 17 OFFCURVE",
"394 40 CURVE SMOOTH",
"394 62 OFFCURVE",
"377 79 OFFCURVE",
"354 79 CURVE SMOOTH",
"331 79 OFFCURVE",
"314 62 OFFCURVE",
"314 40 CURVE SMOOTH",
"314 17 OFFCURVE",
"331 -1 OFFCURVE",
"354 -1 CURVE SMOOTH"
);
}
);
vertWidth = 0;
width = 490;
},
{
layerId = m002;
leftMetricsKey = n;
rightMetricsKey = n;
paths = (
{
closed = 1;
nodes = (
"132 0 OFFCURVE",
"162 30 OFFCURVE",
"162 65 CURVE SMOOTH",
"162 98 OFFCURVE",
"132 126 OFFCURVE",
"99 126 CURVE SMOOTH",
"64 126 OFFCURVE",
"37 98 OFFCURVE",
"37 65 CURVE SMOOTH",
"37 30 OFFCURVE",
"64 0 OFFCURVE",
"99 0 CURVE SMOOTH"
);
},
{
closed = 1;
nodes = (
"322 0 OFFCURVE",
"352 30 OFFCURVE",
"352 65 CURVE SMOOTH",
"352 98 OFFCURVE",
"322 126 OFFCURVE",
"289 126 CURVE SMOOTH",
"254 126 OFFCURVE",
"227 98 OFFCURVE",
"227 65 CURVE SMOOTH",
"227 30 OFFCURVE",
"254 0 OFFCURVE",
"289 0 CURVE SMOOTH"
);
},
{
closed = 1;
nodes = (
"512 0 OFFCURVE",
"542 30 OFFCURVE",
"542 65 CURVE SMOOTH",
"542 98 OFFCURVE",
"512 126 OFFCURVE",
"479 126 CURVE SMOOTH",
"444 126 OFFCURVE",
"417 98 OFFCURVE",
"417 65 CURVE SMOOTH",
"417 30 OFFCURVE",
"444 0 OFFCURVE",
"479 0 CURVE SMOOTH"
);
}
);
vertWidth = 0;
width = 636;
}
);
note = "";
unicode = 2026;
},
{
glyphname = exclam;
layers = (
{
layerId = m01;
paths = (
{
closed = 1;
nodes = (
"110 174 OFFCURVE",
"124 183 OFFCURVE",
"126 202 CURVE SMOOTH",
"172 629 LINE SMOOTH",
"174 643 OFFCURVE",
"163 650 OFFCURVE",
"151 650 CURVE SMOOTH",
"138 650 OFFCURVE",
"123 643 OFFCURVE",
"121 629 CURVE SMOOTH",
"75 202 LINE SMOOTH",
"73 185 OFFCURVE",
"86 176 OFFCURVE",
"98 175 CURVE SMOOTH"
);
},
{
closed = 1;
nodes = (
"106 -1 OFFCURVE",
"123 17 OFFCURVE",
"123 40 CURVE SMOOTH",
"123 62 OFFCURVE",
"106 79 OFFCURVE",
"83 79 CURVE SMOOTH",
"60 79 OFFCURVE",
"43 62 OFFCURVE",
"43 40 CURVE SMOOTH",
"43 17 OFFCURVE",
"60 -1 OFFCURVE",
"83 -1 CURVE SMOOTH"
);
}
);
vertWidth = 0;
width = 227;
},
{
layerId = m002;
leftMetricsKey = N;
rightMetricsKey = N;
paths = (
{
closed = 1;
nodes = (
"152 176 OFFCURVE",
"182 185 OFFCURVE",
"186 220 CURVE SMOOTH",
"227 587 LINE SMOOTH",
"232 633 OFFCURVE",
"212 650 OFFCURVE",
"181 650 CURVE SMOOTH",
"162 650 OFFCURVE",
"132 641 OFFCURVE",
"128 607 CURVE SMOOTH",
"87 240 LINE SMOOTH",
"82 193 OFFCURVE",
"102 176 OFFCURVE",
"133 176 CURVE SMOOTH"
);
},
{
closed = 1;
nodes = (
"152 0 OFFCURVE",
"182 30 OFFCURVE",
"182 65 CURVE SMOOTH",
"182 98 OFFCURVE",
"152 126 OFFCURVE",
"119 126 CURVE SMOOTH",
"84 126 OFFCURVE",
"57 98 OFFCURVE",
"57 65 CURVE SMOOTH",
"57 30 OFFCURVE",
"84 0 OFFCURVE",
"119 0 CURVE SMOOTH"
);
}
);
vertWidth = 0;
width = 296;
}
);
note = "";
unicode = 0021;
},
{
glyphname = exclamdown;
layers = (
{
layerId = m01;
paths = (
{
closed = 1;
nodes = (
"89 -1 OFFCURVE",
"104 6 OFFCURVE",
"106 20 CURVE SMOOTH",
"152 447 LINE SMOOTH",
"154 464 OFFCURVE",
"141 473 OFFCURVE",
"129 474 CURVE SMOOTH",
"117 475 OFFCURVE",
"103 466 OFFCURVE",
"101 447 CURVE SMOOTH",
"55 20 LINE SMOOTH",
"53 6 OFFCURVE",
"64 -1 OFFCURVE",
"76 -1 CURVE SMOOTH"
);
},
{
closed = 1;
nodes = (
"167 570 OFFCURVE",
"184 587 OFFCURVE",
"184 609 CURVE SMOOTH",
"184 632 OFFCURVE",
"167 650 OFFCURVE",
"144 650 CURVE SMOOTH",
"121 650 OFFCURVE",
"104 632 OFFCURVE",
"104 609 CURVE SMOOTH",
"104 587 OFFCURVE",
"121 570 OFFCURVE",
"144 570 CURVE SMOOTH"
);
}
);
vertWidth = 0;
width = 227;
},
{
layerId = m002;
leftMetricsKey = N;
rightMetricsKey = N;
paths = (
{
closed = 1;
nodes = (
"132 0 OFFCURVE",
"162 9 OFFCURVE",
"166 43 CURVE SMOOTH",
"207 410 LINE SMOOTH",
"212 457 OFFCURVE",
"192 474 OFFCURVE",
"161 474 CURVE SMOOTH",
"142 474 OFFCURVE",
"112 465 OFFCURVE",
"108 430 CURVE SMOOTH",
"67 63 LINE SMOOTH",
"62 17 OFFCURVE",
"82 0 OFFCURVE",
"113 0 CURVE SMOOTH"
);
},
{
closed = 1;
nodes = (
"210 524 OFFCURVE",
"237 552 OFFCURVE",
"237 585 CURVE SMOOTH",
"237 620 OFFCURVE",
"210 650 OFFCURVE",
"175 650 CURVE SMOOTH",
"142 650 OFFCURVE",
"112 620 OFFCURVE",
"112 585 CURVE SMOOTH",
"112 552 OFFCURVE",
"142 524 OFFCURVE",
"175 524 CURVE SMOOTH"
);
}
);
vertWidth = 0;
width = 296;
}
);
note = "";
unicode = 00A1;
},
{
glyphname = question;
layers = (
{
layerId = m01;
paths = (
{
closed = 1;
nodes = (
"189 174 OFFCURVE",
"202 180 OFFCURVE",
"205 202 CURVE",
"213 277 LINE",
"327 285 OFFCURVE",
"417 355 OFFCURVE",
"417 495 CURVE SMOOTH",
"417 592 OFFCURVE",
"355 651 OFFCURVE",
"255 650 CURVE SMOOTH",
"150 650 OFFCURVE",
"90 584 OFFCURVE",
"81 489 CURVE SMOOTH",
"79 467 OFFCURVE",
"91 456 OFFCURVE",
"102 456 CURVE SMOOTH",
"116 456 OFFCURVE",
"128 462 OFFCURVE",
"130 484 CURVE SMOOTH",
"136 541 OFFCURVE",
"170 604 OFFCURVE",
"255 604 CURVE SMOOTH",
"324 604 OFFCURVE",
"367 562 OFFCURVE",
"367 494 CURVE SMOOTH",
"367 381 OFFCURVE",
"290 322 OFFCURVE",
"188 322 CURVE",
"177 322 OFFCURVE",
"166 313 OFFCURVE",
"165 302 CURVE SMOOTH",
"154 201 LINE SMOOTH",
"152 187 OFFCURVE",
"164 174 OFFCURVE",
"176 174 CURVE SMOOTH"
);
},
{
closed = 1;
nodes = (
"187 -1 OFFCURVE",
"204 17 OFFCURVE",
"204 40 CURVE SMOOTH",
"204 62 OFFCURVE",
"187 79 OFFCURVE",
"164 79 CURVE SMOOTH",
"141 79 OFFCURVE",
"124 62 OFFCURVE",
"124 40 CURVE SMOOTH",
"124 17 OFFCURVE",
"141 -1 OFFCURVE",
"164 -1 CURVE SMOOTH"
);
}
);
vertWidth = 0;
width = 467;
},
{
layerId = m002;
paths = (
{
closed = 1;
nodes = (
"209 176 OFFCURVE",
"231 193 OFFCURVE",
"235 225 CURVE SMOOTH",
"240 268 LINE",
"370 281 OFFCURVE",
"424 367 OFFCURVE",
"435 464 CURVE SMOOTH",
"448 572 OFFCURVE",
"377 650 OFFCURVE",
"271 650 CURVE SMOOTH",
"173 650 OFFCURVE",
"92 585 OFFCURVE",
"82 493 CURVE SMOOTH",
"77 458 OFFCURVE",
"99 434 OFFCURVE",
"130 434 CURVE SMOOTH",
"149 434 OFFCURVE",
"174 443 OFFCURVE",
"177 476 CURVE SMOOTH",
"181 527 OFFCURVE",
"219 561 OFFCURVE",
"265 561 CURVE SMOOTH",
"313 561 OFFCURVE",
"346 523 OFFCURVE",
"340 469 CURVE SMOOTH",
"339 455 OFFCURVE",
"329 355 OFFCURVE",
"194 356 CURVE",
"169 356 OFFCURVE",
"152 342 OFFCURVE",
"149 313 CURVE SMOOTH",
"140 233 LINE SMOOTH",
"137 207 OFFCURVE",
"153 176 OFFCURVE",
"187 176 CURVE SMOOTH"
);
},
{
closed = 1;
nodes = (
"195 -1 OFFCURVE",
"223 27 OFFCURVE",
"224 57 CURVE SMOOTH",
"225 88 OFFCURVE",
"196 116 OFFCURVE",
"164 116 CURVE SMOOTH",
"131 116 OFFCURVE",
"107 86 OFFCURVE",
"107 57 CURVE SMOOTH",
"107 29 OFFCURVE",
"130 -1 OFFCURVE",
"163 -1 CURVE SMOOTH"
);
}
);
vertWidth = 0;
width = 486;
}
);
note = "";
unicode = 003F;
},
{
glyphname = questiondown;
layers = (
{
layerId = m01;
paths = (
{
closed = 1;
nodes = (
"315 -1 OFFCURVE",
"375 65 OFFCURVE",
"384 160 CURVE SMOOTH",
"386 182 OFFCURVE",
"374 193 OFFCURVE",
"363 193 CURVE SMOOTH",
"349 193 OFFCURVE",
"337 187 OFFCURVE",
"335 165 CURVE SMOOTH",
"329 108 OFFCURVE",
"295 45 OFFCURVE",
"210 45 CURVE SMOOTH",
"141 45 OFFCURVE",
"98 87 OFFCURVE",
"98 155 CURVE SMOOTH",
"98 268 OFFCURVE",
"175 327 OFFCURVE",
"277 327 CURVE",
"288 327 OFFCURVE",
"299 336 OFFCURVE",
"300 347 CURVE SMOOTH",
"311 448 LINE SMOOTH",
"313 462 OFFCURVE",
"301 475 OFFCURVE",
"289 475 CURVE SMOOTH",
"276 475 OFFCURVE",
"263 469 OFFCURVE",
"260 447 CURVE",
"252 372 LINE",
"138 364 OFFCURVE",
"48 294 OFFCURVE",
"48 154 CURVE SMOOTH",
"48 57 OFFCURVE",
"110 -2 OFFCURVE",
"210 -1 CURVE SMOOTH"
);
},
{
closed = 1;
nodes = (
"324 570 OFFCURVE",
"341 587 OFFCURVE",
"341 609 CURVE SMOOTH",
"341 632 OFFCURVE",
"324 650 OFFCURVE",
"301 650 CURVE SMOOTH",
"278 650 OFFCURVE",
"261 632 OFFCURVE",
"261 609 CURVE SMOOTH",
"261 587 OFFCURVE",
"278 570 OFFCURVE",
"301 570 CURVE SMOOTH"
);
}
);
vertWidth = 0;
width = 467;
},
{
layerId = m002;
leftMetricsKey = O;
rightMetricsKey = O;
paths = (
{
closed = 1;
nodes = (
"311 -1 OFFCURVE",
"392 64 OFFCURVE",
"402 156 CURVE SMOOTH",
"407 191 OFFCURVE",
"385 215 OFFCURVE",
"354 215 CURVE SMOOTH",
"335 215 OFFCURVE",
"310 206 OFFCURVE",
"307 173 CURVE SMOOTH",
"303 122 OFFCURVE",
"265 88 OFFCURVE",
"219 88 CURVE SMOOTH",
"171 88 OFFCURVE",
"138 126 OFFCURVE",
"144 180 CURVE SMOOTH",
"145 194 OFFCURVE",
"155 294 OFFCURVE",
"290 293 CURVE",
"315 293 OFFCURVE",
"332 307 OFFCURVE",
"335 336 CURVE SMOOTH",
"344 416 LINE SMOOTH",
"347 442 OFFCURVE",
"331 473 OFFCURVE",
"297 473 CURVE SMOOTH",
"275 473 OFFCURVE",
"253 456 OFFCURVE",
"249 424 CURVE SMOOTH",
"244 381 LINE",
"114 368 OFFCURVE",
"60 282 OFFCURVE",
"49 185 CURVE SMOOTH",
"36 77 OFFCURVE",
"107 -1 OFFCURVE",
"213 -1 CURVE SMOOTH"
);
},
{
closed = 1;
nodes = (
"353 533 OFFCURVE",
"377 563 OFFCURVE",
"377 592 CURVE SMOOTH",
"377 620 OFFCURVE",
"354 650 OFFCURVE",
"321 650 CURVE SMOOTH",
"289 650 OFFCURVE",
"261 622 OFFCURVE",
"260 592 CURVE SMOOTH",
"259 561 OFFCURVE",
"288 533 OFFCURVE",
"320 533 CURVE SMOOTH"
);
}
);
vertWidth = 0;
width = 486;
}
);
note = "";
unicode = 00BF;
},
{
glyphname = periodcentered;
layers = (
{
layerId = m01;
paths = (
{
closed = 1;
nodes = (
"128 193 OFFCURVE",
"145 211 OFFCURVE",
"145 234 CURVE SMOOTH",
"145 256 OFFCURVE",
"128 273 OFFCURVE",
"105 273 CURVE SMOOTH",
"82 273 OFFCURVE",
"65 256 OFFCURVE",
"65 234 CURVE SMOOTH",
"65 211 OFFCURVE",
"82 193 OFFCURVE",
"105 193 CURVE SMOOTH"
);
}
);
vertWidth = 0;
width = 212;
},
{
layerId = m002;
paths = (
{
closed = 1;
nodes = (
"148 149 OFFCURVE",
"178 179 OFFCURVE",
"178 214 CURVE SMOOTH",
"178 247 OFFCURVE",
"148 275 OFFCURVE",
"115 275 CURVE SMOOTH",
"80 275 OFFCURVE",
"53 247 OFFCURVE",
"53 214 CURVE SMOOTH",
"53 179 OFFCURVE",
"80 149 OFFCURVE",
"115 149 CURVE SMOOTH"
);
}
);
vertWidth = 0;
width = 256;
}
);
note = "";
unicode = 00B7;
},
{
glyphname = bullet;
layers = (
{
layerId = m01;
paths = (
{
closed = 1;
nodes = (
"182 278 OFFCURVE",
"218 314 OFFCURVE",
"218 355 CURVE SMOOTH",
"218 396 OFFCURVE",
"183 430 OFFCURVE",
"142 430 CURVE SMOOTH",
"101 430 OFFCURVE",
"68 395 OFFCURVE",
"68 355 CURVE SMOOTH",
"68 316 OFFCURVE",
"100 278 OFFCURVE",
"142 278 CURVE SMOOTH"
);
}
);
vertWidth = 0;
width = 281;
},
{
layerId = m002;
paths = (
{
closed = 1;
nodes = (
"211 258 OFFCURVE",
"258 304 OFFCURVE",
"258 355 CURVE SMOOTH",
"258 407 OFFCURVE",
"212 450 OFFCURVE",
"162 450 CURVE SMOOTH",
"109 450 OFFCURVE",
"68 406 OFFCURVE",
"68 355 CURVE SMOOTH",
"68 305 OFFCURVE",
"109 258 OFFCURVE",
"162 258 CURVE SMOOTH"
);
}
);
vertWidth = 0;
width = 321;
}
);
note = "";
unicode = 2022;
},
{
glyphname = asterisk;
layers = (
{
layerId = m01;
paths = (
{
closed = 1;
nodes = (
"91 483 OFFCURVE",
"103 481 OFFCURVE",
"119 490 CURVE SMOOTH",
"249 574 LINE SMOOTH",
"265 584 OFFCURVE",
"267 598 OFFCURVE",
"261 607 CURVE SMOOTH",
"255 614 OFFCURVE",
"243 617 OFFCURVE",
"228 608 CURVE SMOOTH",
"98 524 LINE SMOOTH",
"82 513 OFFCURVE",
"79 499 OFFCURVE",
"86 491 CURVE SMOOTH"
);
},
{
closed = 1;
nodes = (
"256 499 OFFCURVE",
"255 511 OFFCURVE",
"242 521 CURVE SMOOTH",
"128 606 LINE SMOOTH",
"115 616 OFFCURVE",
"103 614 OFFCURVE",
"98 606 CURVE SMOOTH",
"91 599 OFFCURVE",
"92 586 OFFCURVE",
"106 576 CURVE SMOOTH",
"219 492 LINE SMOOTH",
"232 482 OFFCURVE",
"245 484 OFFCURVE",
"252 492 CURVE SMOOTH"
);
},
{
closed = 1;
nodes = (
"171 447 OFFCURVE",
"183 456 OFFCURVE",
"185 475 CURVE SMOOTH",
"200 623 LINE SMOOTH",
"202 641 OFFCURVE",
"194 650 OFFCURVE",
"185 650 CURVE SMOOTH",
"175 650 OFFCURVE",
"163 641 OFFCURVE",
"161 623 CURVE SMOOTH",
"146 475 LINE SMOOTH",
"144 458 OFFCURVE",
"152 450 OFFCURVE",
"161 448 CURVE SMOOTH"
);
}
);
vertWidth = 0;
width = 302;
},
{
layerId = m002;
paths = (
{
closed = 1;
nodes = (
"99 418 OFFCURVE",
"130 411 OFFCURVE",
"156 428 CURVE SMOOTH",
"321 535 LINE SMOOTH",
"346 551 OFFCURVE",
"354 575 OFFCURVE",
"338 598 CURVE SMOOTH",
"326 614 OFFCURVE",
"296 621 OFFCURVE",
"273 606 CURVE SMOOTH",
"104 497 LINE",
"83 481 OFFCURVE",
"73 458 OFFCURVE",
"87 437 CURVE SMOOTH"
);
},
{
closed = 1;
nodes = (
"354 448 OFFCURVE",
"350 470 OFFCURVE",
"327 487 CURVE SMOOTH",
"163 608 LINE SMOOTH",
"140 625 OFFCURVE",
"111 621 OFFCURVE",
"99 604 CURVE SMOOTH",
"85 586 OFFCURVE",
"89 563 OFFCURVE",
"114 545 CURVE SMOOTH",
"275 426 LINE",
"301 409 OFFCURVE",
"330 413 OFFCURVE",
"342 430 CURVE SMOOTH"
);
},
{
closed = 1;
nodes = (
"218 368 OFFCURVE",
"246 385 OFFCURVE",
"249 416 CURVE SMOOTH",
"271 615 LINE SMOOTH",
"275 647 OFFCURVE",
"252 667 OFFCURVE",
"228 667 CURVE SMOOTH",
"207 667 OFFCURVE",
"185 650 OFFCURVE",
"182 623 CURVE SMOOTH",
"160 424 LINE SMOOTH",
"157 395 OFFCURVE",
"175 378 OFFCURVE",
"196 373 CURVE SMOOTH"
);
}
);
vertWidth = 0;
width = 401;
}
);
note = "";
unicode = 002A;
},
{
glyphname = numbersign;
layers = (
{
layerId = m01;
paths = (
{
closed = 1;
nodes = (
"212 -1 OFFCURVE",
"226 8 OFFCURVE",
"229 28 CURVE SMOOTH",
"284 543 LINE SMOOTH",
"286 559 OFFCURVE",
"274 568 OFFCURVE",
"261 568 CURVE SMOOTH",
"248 568 OFFCURVE",
"235 560 OFFCURVE",
"233 543 CURVE SMOOTH",
"178 28 LINE SMOOTH",
"176 10 OFFCURVE",
"187 0 OFFCURVE",
"199 0 CURVE SMOOTH"
);
},
{
closed = 1;
nodes = (
"470 0 OFFCURVE",
"483 9 OFFCURVE",
"485 28 CURVE SMOOTH",
"540 543 LINE SMOOTH",
"542 559 OFFCURVE",
"530 567 OFFCURVE",
"518 568 CURVE SMOOTH",
"505 568 OFFCURVE",
"491 560 OFFCURVE",
"489 543 CURVE SMOOTH",
"434 28 LINE SMOOTH",
"432 9 OFFCURVE",
"444 -1 OFFCURVE",
"457 0 CURVE SMOOTH"
);
},
{
closed = 1;
nodes = (
"621 147 LINE SMOOTH",
"638 147 OFFCURVE",
"646 159 OFFCURVE",
"645 170 CURVE SMOOTH",
"644 181 OFFCURVE",
"636 192 OFFCURVE",
"618 192 CURVE SMOOTH",
"73 192 LINE SMOOTH",
"55 192 OFFCURVE",
"47 181 OFFCURVE",
"48 170 CURVE SMOOTH",
"49 159 OFFCURVE",
"59 147 OFFCURVE",
"76 147 CURVE SMOOTH"
);
},
{
closed = 1;
nodes = (
"645 384 LINE SMOOTH",
"663 384 OFFCURVE",
"671 395 OFFCURVE",
"671 406 CURVE SMOOTH",
"670 417 OFFCURVE",
"660 429 OFFCURVE",
"642 429 CURVE SMOOTH",
"98 429 LINE SMOOTH",
"80 429 OFFCURVE",
"72 417 OFFCURVE",
"73 406 CURVE SMOOTH",
"73 395 OFFCURVE",
"83 384 OFFCURVE",
"101 384 CURVE SMOOTH"
);
}
);
vertWidth = 0;
width = 728;
},
{
layerId = m002;
paths = (
{
closed = 1;
nodes = (
"239 0 OFFCURVE",
"267 10 OFFCURVE",
"270 39 CURVE SMOOTH",
"321 523 LINE SMOOTH",
"324 552 OFFCURVE",
"299 568 OFFCURVE",
"272 568 CURVE SMOOTH",
"247 568 OFFCURVE",
"227 557 OFFCURVE",
"224 530 CURVE SMOOTH",
"172 47 LINE SMOOTH",
"169 16 OFFCURVE",
"189 0 OFFCURVE",
"215 0 CURVE SMOOTH"
);
},
{
closed = 1;
nodes = (
"487 0 OFFCURVE",
"508 11 OFFCURVE",
"511 39 CURVE SMOOTH",
"562 523 LINE SMOOTH",
"566 555 OFFCURVE",
"541 568 OFFCURVE",
"518 568 CURVE SMOOTH",
"494 568 OFFCURVE",
"467 558 OFFCURVE",
"464 531 CURVE SMOOTH",
"413 47 LINE SMOOTH",
"409 13 OFFCURVE",
"436 0 OFFCURVE",
"463 0 CURVE SMOOTH"
);
},
{
closed = 1;
nodes = (
"615 133 LINE SMOOTH",
"644 133 OFFCURVE",
"662 153 OFFCURVE",
"661 177 CURVE SMOOTH",
"659 200 OFFCURVE",
"639 218 OFFCURVE",
"609 218 CURVE SMOOTH",
"97 218 LINE SMOOTH",
"67 218 OFFCURVE",
"48 200 OFFCURVE",
"50 177 CURVE SMOOTH",
"51 153 OFFCURVE",
"74 133 OFFCURVE",
"103 133 CURVE SMOOTH"
);
},
{
closed = 1;
nodes = (
"637 357 LINE SMOOTH",
"667 357 OFFCURVE",
"687 375 OFFCURVE",
"685 399 CURVE SMOOTH",
"683 422 OFFCURVE",
"661 442 OFFCURVE",
"631 442 CURVE SMOOTH",
"120 442 LINE SMOOTH",
"90 442 OFFCURVE",
"71 422 OFFCURVE",
"73 399 CURVE SMOOTH",
"75 375 OFFCURVE",
"96 357 OFFCURVE",
"126 357 CURVE SMOOTH"
);
}
);
vertWidth = 0;
width = 744;
}
);
note = "";
unicode = 0023;
},
{
glyphname = slash;
layers = (
{
layerId = m01;
paths = (
{
closed = 1;
nodes = (
"25 -39 OFFCURVE",
"36 -33 OFFCURVE",
"41 -19 CURVE SMOOTH",
"268 616 LINE SMOOTH",
"276 637 OFFCURVE",
"260 650 OFFCURVE",
"245 650 CURVE SMOOTH",
"234 650 OFFCURVE",
"223 644 OFFCURVE",
"217 627 CURVE SMOOTH",
"-10 -8 LINE SMOOTH",
"-17 -27 OFFCURVE",
"-2 -39 OFFCURVE",
"14 -39 CURVE SMOOTH"
);
}
);
vertWidth = 0;
width = 274;
},
{
layerId = m002;
paths = (
{
closed = 1;
nodes = (
"101 -52 OFFCURVE",
"123 -42 OFFCURVE",
"131 -20 CURVE SMOOTH",
"353 588 LINE SMOOTH",
"366 624 OFFCURVE",
"334 650 OFFCURVE",
"304 650 CURVE SMOOTH",
"284 650 OFFCURVE",
"262 639 OFFCURVE",
"253 614 CURVE SMOOTH",
"32 8 LINE SMOOTH",
"19 -27 OFFCURVE",
"50 -52 OFFCURVE",
"82 -52 CURVE SMOOTH"
);
}
);
vertWidth = 0;
width = 397;
}
);
note = "";
unicode = 002F;
},
{
glyphname = backslash;
layers = (
{
layerId = m01;
paths = (
{
closed = 1;
nodes = (
"36 650 OFFCURVE",
"21 638 OFFCURVE",
"28 619 CURVE SMOOTH",
"255 -16 LINE SMOOTH",
"261 -33 OFFCURVE",
"272 -39 OFFCURVE",
"283 -39 CURVE SMOOTH",
"298 -39 OFFCURVE",
"314 -26 OFFCURVE",
"306 -5 CURVE SMOOTH",
"79 630 LINE SMOOTH",
"74 644 OFFCURVE",
"63 650 OFFCURVE",
"52 650 CURVE SMOOTH"
);
}
);
vertWidth = 0;
width = 274;
},
{
layerId = m002;
paths = (
{
closed = 1;
nodes = (
"105 650 OFFCURVE",
"78 625 OFFCURVE",
"87 590 CURVE SMOOTH",
"243 -16 LINE SMOOTH",
"249 -41 OFFCURVE",
"274 -52 OFFCURVE",
"294 -52 CURVE SMOOTH",
"324 -52 OFFCURVE",
"352 -26 OFFCURVE",
"343 10 CURVE SMOOTH",
"186 618 LINE SMOOTH",
"180 640 OFFCURVE",
"156 650 OFFCURVE",
"137 650 CURVE SMOOTH"
);
}
);
vertWidth = 0;
width = 397;
}
);
note = "";
unicode = 005C;
},
{
glyphname = hyphen;
layers = (
{
layerId = m01;
paths = (
{
closed = 1;
nodes = (
"228 177 LINE SMOOTH",
"247 177 OFFCURVE",
"259 185 OFFCURVE",
"259 200 CURVE SMOOTH",
"259 215 OFFCURVE",
"248 223 OFFCURVE",
"230 223 CURVE SMOOTH",
"82 223 LINE SMOOTH",
"63 223 OFFCURVE",
"51 215 OFFCURVE",
"51 200 CURVE SMOOTH",
"51 185 OFFCURVE",
"62 177 OFFCURVE",
"80 177 CURVE SMOOTH"
);
}
);
vertWidth = 0;
width = 338;
},
{
layerId = m002;
paths = (
{
closed = 1;
nodes = (
"245 154 LINE SMOOTH",
"281 154 OFFCURVE",
"303 172 OFFCURVE",
"303 200 CURVE SMOOTH",
"303 227 OFFCURVE",
"284 244 OFFCURVE",
"254 244 CURVE SMOOTH",
"109 244 LINE SMOOTH",
"73 244 OFFCURVE",
"51 226 OFFCURVE",
"51 198 CURVE SMOOTH",
"51 171 OFFCURVE",
"70 154 OFFCURVE",
"100 154 CURVE SMOOTH"
);
}
);
vertWidth = 0;
width = 382;
}
);
leftKerningGroup = hyphen_left;
note = "";
rightKerningGroup = hyphen_right;
unicode = 002D;
},
{
glyphname = endash;
layers = (
{
layerId = m01;
paths = (
{
closed = 1;
nodes = (
"278 177 LINE SMOOTH",
"297 177 OFFCURVE",
"309 185 OFFCURVE",
"309 200 CURVE SMOOTH",
"309 215 OFFCURVE",
"298 223 OFFCURVE",
"280 223 CURVE SMOOTH",
"82 223 LINE SMOOTH",
"63 223 OFFCURVE",
"51 215 OFFCURVE",
"51 200 CURVE SMOOTH",
"51 185 OFFCURVE",
"62 177 OFFCURVE",
"80 177 CURVE SMOOTH"
);
}
);
vertWidth = 0;
width = 388;
},
{
layerId = m002;
paths = (
{
closed = 1;
nodes = (
"326 154 LINE SMOOTH",
"362 154 OFFCURVE",
"384 172 OFFCURVE",
"384 200 CURVE SMOOTH",
"384 227 OFFCURVE",
"365 244 OFFCURVE",
"335 244 CURVE SMOOTH",
"109 244 LINE SMOOTH",
"73 244 OFFCURVE",
"51 226 OFFCURVE",
"51 198 CURVE SMOOTH",
"51 171 OFFCURVE",
"70 154 OFFCURVE",
"100 154 CURVE SMOOTH"
);
}
);
vertWidth = 0;
width = 463;
}
);
leftKerningGroup = hyphen_left;
note = "";
rightKerningGroup = hyphen_right;
unicode = 2013;
},
{
glyphname = emdash;
layers = (
{
layerId = m01;
paths = (
{
closed = 1;
nodes = (
"428 177 LINE SMOOTH",
"447 177 OFFCURVE",
"459 185 OFFCURVE",
"459 200 CURVE SMOOTH",
"459 215 OFFCURVE",
"448 223 OFFCURVE",
"430 223 CURVE SMOOTH",
"82 223 LINE SMOOTH",
"63 223 OFFCURVE",
"51 215 OFFCURVE",
"51 200 CURVE SMOOTH",
"51 185 OFFCURVE",
"62 177 OFFCURVE",
"80 177 CURVE SMOOTH"
);
}
);
vertWidth = 0;
width = 538;
},
{
layerId = m002;
paths = (
{
closed = 1;
nodes = (
"418 154 LINE SMOOTH",
"454 154 OFFCURVE",
"476 172 OFFCURVE",
"476 200 CURVE SMOOTH",
"476 227 OFFCURVE",
"457 244 OFFCURVE",
"427 244 CURVE SMOOTH",
"109 244 LINE SMOOTH",
"73 244 OFFCURVE",
"51 226 OFFCURVE",
"51 198 CURVE SMOOTH",
"51 171 OFFCURVE",
"70 154 OFFCURVE",
"100 154 CURVE SMOOTH"
);
}
);
vertWidth = 0;
width = 555;
}
);
leftKerningGroup = hyphen_left;
note = "";
rightKerningGroup = hyphen_right;
unicode = 2014;
},
{
glyphname = underscore;
layers = (
{
layerId = m01;
paths = (
{
closed = 1;
nodes = (
"301 -80 LINE SMOOTH",
"320 -80 OFFCURVE",
"332 -72 OFFCURVE",
"332 -57 CURVE SMOOTH",
"332 -42 OFFCURVE",
"321 -34 OFFCURVE",
"303 -34 CURVE SMOOTH",
"55 -34 LINE SMOOTH",
"36 -34 OFFCURVE",
"24 -42 OFFCURVE",
"24 -57 CURVE SMOOTH",
"24 -72 OFFCURVE",
"35 -80 OFFCURVE",
"53 -80 CURVE SMOOTH"
);
}
);
vertWidth = 0;
width = 438;
},
{
layerId = m002;
paths = (
{
closed = 1;
nodes = (
"300 -98 LINE SMOOTH",
"336 -98 OFFCURVE",
"358 -80 OFFCURVE",
"358 -52 CURVE SMOOTH",
"358 -25 OFFCURVE",
"339 -8 OFFCURVE",
"309 -8 CURVE SMOOTH",
"83 -8 LINE SMOOTH",
"47 -8 OFFCURVE",
"25 -26 OFFCURVE",
"25 -54 CURVE SMOOTH",
"25 -81 OFFCURVE",
"44 -98 OFFCURVE",
"74 -98 CURVE SMOOTH"
);
}
);
vertWidth = 0;
width = 464;
}
);
leftKerningGroup = hyphen_left;
note = "";
rightKerningGroup = hyphen_right;
unicode = 005F;
},
{
glyphname = parenleft;
layers = (
{
layerId = m01;
paths = (
{
closed = 1;
nodes = (
"192 -298 OFFCURVE",
"204 -304 OFFCURVE",
"215 -297 CURVE SMOOTH",
"225 -291 OFFCURVE",
"225 -277 OFFCURVE",
"216 -260 CURVE SMOOTH",
"122 -87 OFFCURVE",
"88 64 OFFCURVE",
"103 200 CURVE SMOOTH",
"116 323 OFFCURVE",
"198 490 OFFCURVE",
"307 607 CURVE SMOOTH",
"323 625 OFFCURVE",
"324 639 OFFCURVE",
"317 646 CURVE SMOOTH",
"308 654 OFFCURVE",
"290 651 OFFCURVE",
"272 633 CURVE SMOOTH",
"150 507 OFFCURVE",
"65 330 OFFCURVE",
"52 200 CURVE SMOOTH",
"37 64 OFFCURVE",
"72 -94 OFFCURVE",
"182 -282 CURVE SMOOTH"
);
}
);
vertWidth = 0;
width = 354;
},
{
layerId = m002;
paths = (
{
closed = 1;
nodes = (
"193 -304 OFFCURVE",
"229 -310 OFFCURVE",
"249 -295 CURVE SMOOTH",
"263 -283 OFFCURVE",
"266 -264 OFFCURVE",
"252 -235 CURVE",
"160 -66 OFFCURVE",
"137 80 OFFCURVE",
"152 213 CURVE SMOOTH",
"165 333 OFFCURVE",
"226 456 OFFCURVE",
"336 574 CURVE SMOOTH",
"365 605 OFFCURVE",
"358 628 OFFCURVE",
"343 643 CURVE SMOOTH",
"327 658 OFFCURVE",
"294 659 OFFCURVE",
"265 631 CURVE SMOOTH",
"142 505 OFFCURVE",
"60 330 OFFCURVE",
"48 221 CURVE SMOOTH",
"31 64 OFFCURVE",
"71 -112 OFFCURVE",
"175 -275 CURVE SMOOTH"
);
}
);
vertWidth = 0;
width = 360;
}
);
note = "";
unicode = 0028;
},
{
glyphname = parenright;
layers = (
{
layerId = m01;
paths = (
{
closed = 1;
nodes = (
"13 -304 OFFCURVE",
"31 -301 OFFCURVE",
"49 -283 CURVE SMOOTH",
"171 -157 OFFCURVE",
"256 20 OFFCURVE",
"269 150 CURVE SMOOTH",
"284 286 OFFCURVE",
"249 444 OFFCURVE",
"139 632 CURVE SMOOTH",
"129 648 OFFCURVE",
"117 654 OFFCURVE",
"106 647 CURVE SMOOTH",
"96 641 OFFCURVE",
"96 627 OFFCURVE",
"105 610 CURVE SMOOTH",
"199 437 OFFCURVE",
"233 286 OFFCURVE",
"218 150 CURVE SMOOTH",
"205 27 OFFCURVE",
"123 -140 OFFCURVE",
"14 -257 CURVE SMOOTH",
"-2 -275 OFFCURVE",
"-3 -289 OFFCURVE",
"4 -296 CURVE SMOOTH"
);
}
);
vertWidth = 0;
width = 354;
},
{
layerId = m002;
paths = (
{
closed = 1;
nodes = (
"9 -289 OFFCURVE",
"46 -291 OFFCURVE",
"66 -270 CURVE SMOOTH",
"202 -132 OFFCURVE",
"282 41 OFFCURVE",
"294 164 CURVE SMOOTH",
"307 299 OFFCURVE",
"270 480 OFFCURVE",
"171 631 CURVE SMOOTH",
"146 669 OFFCURVE",
"118 679 OFFCURVE",
"96 669 CURVE SMOOTH",
"79 660 OFFCURVE",
"68 640 OFFCURVE",
"88 601 CURVE SMOOTH",
"170 448 OFFCURVE",
"203 309 OFFCURVE",
"191 190 CURVE SMOOTH",
"177 56 OFFCURVE",
"125 -76 OFFCURVE",
"2 -207 CURVE SMOOTH",
"-16 -225 OFFCURVE",
"-25 -249 OFFCURVE",
"-8 -267 CURVE SMOOTH"
);
}
);
vertWidth = 0;
width = 360;
}
);
note = "";
unicode = 0029;
},
{
glyphname = braceleft;
layers = (
{
layerId = m01;
paths = (
{
closed = 1;
nodes = (
"181 -306 OFFCURVE",
"199 -308 OFFCURVE",
"209 -298 CURVE SMOOTH",
"220 -289 OFFCURVE",
"214 -268 OFFCURVE",
"199 -258 CURVE SMOOTH",
"159 -231 OFFCURVE",
"124 -212 OFFCURVE",
"116 -158 CURVE SMOOTH",
"107 -95 OFFCURVE",
"162 9 OFFCURVE",
"165 63 CURVE SMOOTH",
"168 107 OFFCURVE",
"155 144 OFFCURVE",
"113 197 CURVE",
"167 236 OFFCURVE",
"186 267 OFFCURVE",
"193 311 CURVE SMOOTH",
"200 364 OFFCURVE",
"163 479 OFFCURVE",
"192 534 CURVE SMOOTH",
"211 570 OFFCURVE",
"263 583 OFFCURVE",
"308 595 CURVE SMOOTH",
"324 599 OFFCURVE",
"339 615 OFFCURVE",
"335 629 CURVE SMOOTH",
"332 644 OFFCURVE",
"306 652 OFFCURVE",
"284 645 CURVE SMOOTH",
"245 634 OFFCURVE",
"170 600 OFFCURVE",
"146 550 CURVE SMOOTH",
"117 492 OFFCURVE",
"149 366 OFFCURVE",
"140 317 CURVE SMOOTH",
"135 288 OFFCURVE",
"116 264 OFFCURVE",
"84 240 CURVE SMOOTH",
"67 228 OFFCURVE",
"53 221 OFFCURVE",
"52 205 CURVE SMOOTH",
"52 188 OFFCURVE",
"65 178 OFFCURVE",
"77 162 CURVE SMOOTH",
"102 129 OFFCURVE",
"114 100 OFFCURVE",
"112 71 CURVE SMOOTH",
"108 14 OFFCURVE",
"55 -94 OFFCURVE",
"65 -160 CURVE SMOOTH",
"74 -217 OFFCURVE",
"129 -267 OFFCURVE",
"165 -294 CURVE SMOOTH"
);
}
);
vertWidth = 0;
width = 370;
},
{
layerId = m002;
paths = (
{
closed = 1;
nodes = (
"180 -311 OFFCURVE",
"211 -308 OFFCURVE",
"223 -289 CURVE SMOOTH",
"239 -268 OFFCURVE",
"226 -252 OFFCURVE",
"209 -235 CURVE SMOOTH",
"184 -211 OFFCURVE",
"167 -187 OFFCURVE",
"162 -139 CURVE SMOOTH",
"157 -83 OFFCURVE",
"196 12 OFFCURVE",
"197 66 CURVE SMOOTH",
"200 114 OFFCURVE",
"191 154 OFFCURVE",
"163 197 CURVE",
"198 219 OFFCURVE",
"210 255 OFFCURVE",
"216 302 CURVE SMOOTH",
"221 357 OFFCURVE",
"200 459 OFFCURVE",
"214 511 CURVE SMOOTH",
"227 552 OFFCURVE",
"260 567 OFFCURVE",
"289 576 CURVE SMOOTH",
"311 585 OFFCURVE",
"322 605 OFFCURVE",
"310 628 CURVE SMOOTH",
"298 656 OFFCURVE",
"265 652 OFFCURVE",
"243 642 CURVE SMOOTH",
"215 629 OFFCURVE",
"141 599 OFFCURVE",
"124 540 CURVE SMOOTH",
"107 475 OFFCURVE",
"125 369 OFFCURVE",
"120 316 CURVE SMOOTH",
"116 291 OFFCURVE",
"107 273 OFFCURVE",
"89 254 CURVE SMOOTH",
"70 235 OFFCURVE",
"63 225 OFFCURVE",
"62 206 CURVE SMOOTH",
"61 182 OFFCURVE",
"71 172 OFFCURVE",
"82 153 CURVE SMOOTH",
"97 126 OFFCURVE",
"103 103 OFFCURVE",
"101 79 CURVE SMOOTH",
"98 26 OFFCURVE",
"60 -75 OFFCURVE",
"68 -143 CURVE SMOOTH",
"75 -203 OFFCURVE",
"126 -256 OFFCURVE",
"155 -285 CURVE SMOOTH"
);
}
);
vertWidth = 0;
width = 360;
}
);
note = "";
unicode = 007B;
},
{
glyphname = braceright;
layers = (
{
layerId = m01;
paths = (
{
closed = 1;
nodes = (
"91 -288 OFFCURVE",
"166 -255 OFFCURVE",
"191 -205 CURVE SMOOTH",
"220 -147 OFFCURVE",
"188 10 OFFCURVE",
"197 59 CURVE SMOOTH",
"203 88 OFFCURVE",
"221 112 OFFCURVE",
"253 136 CURVE SMOOTH",
"270 148 OFFCURVE",
"285 155 OFFCURVE",
"285 171 CURVE SMOOTH",
"286 188 OFFCURVE",
"273 198 OFFCURVE",
"260 214 CURVE SMOOTH",
"235 247 OFFCURVE",
"224 276 OFFCURVE",
"225 305 CURVE SMOOTH",
"230 362 OFFCURVE",
"281 439 OFFCURVE",
"271 505 CURVE SMOOTH",
"262 562 OFFCURVE",
"208 612 OFFCURVE",
"171 639 CURVE SMOOTH",
"155 651 OFFCURVE",
"137 653 OFFCURVE",
"127 643 CURVE SMOOTH",
"117 634 OFFCURVE",
"123 613 OFFCURVE",
"137 603 CURVE SMOOTH",
"177 576 OFFCURVE",
"213 557 OFFCURVE",
"220 503 CURVE SMOOTH",
"229 440 OFFCURVE",
"176 367 OFFCURVE",
"172 313 CURVE SMOOTH",
"169 269 OFFCURVE",
"184 232 OFFCURVE",
"225 179 CURVE",
"172 140 OFFCURVE",
"152 109 OFFCURVE",
"145 65 CURVE SMOOTH",
"137 13 OFFCURVE",
"173 -134 OFFCURVE",
"144 -188 CURVE SMOOTH",
"125 -224 OFFCURVE",
"73 -239 OFFCURVE",
"29 -250 CURVE SMOOTH",
"12 -255 OFFCURVE",
"-2 -270 OFFCURVE",
"1 -284 CURVE SMOOTH",
"4 -299 OFFCURVE",
"30 -307 OFFCURVE",
"52 -300 CURVE SMOOTH"
);
}
);
vertWidth = 0;
width = 370;
},
{
layerId = m002;
paths = (
{
closed = 1;
nodes = (
"111 -273 OFFCURVE",
"169 -235 OFFCURVE",
"188 -179 CURVE SMOOTH",
"209 -116 OFFCURVE",
"197 -11 OFFCURVE",
"204 40 CURVE SMOOTH",
"208 66 OFFCURVE",
"221 83 OFFCURVE",
"239 107 CURVE SMOOTH",
"251 123 OFFCURVE",
"262 141 OFFCURVE",
"266 159 CURVE SMOOTH",
"269 174 OFFCURVE",
"266 182 OFFCURVE",
"252 205 CURVE SMOOTH",
"237 231 OFFCURVE",
"232 253 OFFCURVE",
"233 278 CURVE",
"239 332 OFFCURVE",
"279 430 OFFCURVE",
"273 497 CURVE SMOOTH",
"268 558 OFFCURVE",
"207 607 OFFCURVE",
"180 630 CURVE SMOOTH",
"158 648 OFFCURVE",
"126 662 OFFCURVE",
"109 637 CURVE SMOOTH",
"96 618 OFFCURVE",
"99 598 OFFCURVE",
"122 580 CURVE SMOOTH",
"147 562 OFFCURVE",
"176 536 OFFCURVE",
"181 493 CURVE SMOOTH",
"183 437 OFFCURVE",
"143 343 OFFCURVE",
"137 289 CURVE SMOOTH",
"133 241 OFFCURVE",
"140 202 OFFCURVE",
"165 167 CURVE",
"132 139 OFFCURVE",
"117 101 OFFCURVE",
"110 55 CURVE SMOOTH",
"102 0 OFFCURVE",
"114 -99 OFFCURVE",
"99 -151 CURVE SMOOTH",
"84 -195 OFFCURVE",
"65 -213 OFFCURVE",
"37 -227 CURVE SMOOTH",
"13 -240 OFFCURVE",
"1 -254 OFFCURVE",
"9 -275 CURVE SMOOTH",
"18 -300 OFFCURVE",
"52 -309 OFFCURVE",
"78 -291 CURVE"
);
}
);
vertWidth = 0;
width = 360;
}
);
note = "";
unicode = 007D;
},
{
glyphname = bracketleft;
layers = (
{
layerId = m01;
paths = (
{
closed = 1;
nodes = (
"170 -300 LINE SMOOTH",
"187 -300 OFFCURVE",
"195 -288 OFFCURVE",
"194 -277 CURVE SMOOTH",
"194 -266 OFFCURVE",
"185 -255 OFFCURVE",
"167 -255 CURVE SMOOTH",
"54 -255 LINE",
"146 605 LINE",
"266 605 LINE SMOOTH",
"283 605 OFFCURVE",
"291 616 OFFCURVE",
"291 627 CURVE SMOOTH",
"291 638 OFFCURVE",
"282 650 OFFCURVE",
"263 650 CURVE SMOOTH",
"125 650 LINE SMOOTH",
"106 650 OFFCURVE",
"98 639 OFFCURVE",
"96 623 CURVE SMOOTH",
"1 -273 LINE SMOOTH",
"-1 -287 OFFCURVE",
"7 -300 OFFCURVE",
"25 -300 CURVE SMOOTH"
);
}
);
vertWidth = 0;
width = 325;
},
{
layerId = m002;
paths = (
{
closed = 1;
nodes = (
"204 -300 LINE SMOOTH",
"234 -300 OFFCURVE",
"250 -284 OFFCURVE",
"253 -258 CURVE SMOOTH",
"256 -230 OFFCURVE",
"229 -215 OFFCURVE",
"198 -215 CURVE SMOOTH",
"121 -215 LINE",
"204 565 LINE",
"296 565 LINE SMOOTH",
"324 565 OFFCURVE",
"342 582 OFFCURVE",
"345 605 CURVE SMOOTH",
"348 633 OFFCURVE",
"320 650 OFFCURVE",
"291 650 CURVE",
"158 650 LINE SMOOTH",
"130 650 OFFCURVE",
"110 637 OFFCURVE",
"107 609 CURVE SMOOTH",
"16 -251 LINE SMOOTH",
"13 -278 OFFCURVE",
"33 -300 OFFCURVE",
"66 -300 CURVE SMOOTH"
);
}
);
vertWidth = 0;
width = 360;
}
);
note = "";
unicode = 005B;
},
{
glyphname = bracketright;
layers = (
{
layerId = m01;
paths = (
{
closed = 1;
nodes = (
"165 -300 LINE SMOOTH",
"187 -300 OFFCURVE",
"193 -289 OFFCURVE",
"195 -273 CURVE SMOOTH",
"290 623 LINE SMOOTH",
"292 638 OFFCURVE",
"284 650 OFFCURVE",
"264 650 CURVE SMOOTH",
"123 650 LINE SMOOTH",
"105 650 OFFCURVE",
"96 638 OFFCURVE",
"97 627 CURVE SMOOTH",
"98 616 OFFCURVE",
"108 605 OFFCURVE",
"126 605 CURVE SMOOTH",
"238 605 LINE",
"146 -255 LINE",
"27 -255 LINE SMOOTH",
"10 -255 OFFCURVE",
"1 -266 OFFCURVE",
"1 -277 CURVE SMOOTH",
"2 -289 OFFCURVE",
"11 -300 OFFCURVE",
"30 -300 CURVE SMOOTH"
);
}
);
vertWidth = 0;
width = 325;
},
{
layerId = m002;
paths = (
{
closed = 1;
nodes = (
"171 -300 LINE SMOOTH",
"201 -300 OFFCURVE",
"219 -287 OFFCURVE",
"222 -259 CURVE SMOOTH",
"314 601 LINE SMOOTH",
"317 629 OFFCURVE",
"296 650 OFFCURVE",
"263 650 CURVE SMOOTH",
"127 650 LINE SMOOTH",
"96 650 OFFCURVE",
"81 634 OFFCURVE",
"78 607 CURVE SMOOTH",
"75 583 OFFCURVE",
"101 565 OFFCURVE",
"132 565 CURVE SMOOTH",
"208 565 LINE",
"125 -215 LINE",
"34 -215 LINE SMOOTH",
"8 -215 OFFCURVE",
"-12 -233 OFFCURVE",
"-14 -257 CURVE SMOOTH",
"-16 -281 OFFCURVE",
"6 -300 OFFCURVE",
"40 -300 CURVE"
);
}
);
vertWidth = 0;
width = 360;
}
);
note = "";
unicode = 005D;
},
{
glyphname = quotedbl;
layers = (
{
layerId = m01;
paths = (
{
closed = 1;
nodes = (
"122 500 OFFCURVE",
"135 508 OFFCURVE",
"137 524 CURVE SMOOTH",
"148 620 LINE SMOOTH",
"150 640 OFFCURVE",
"137 650 OFFCURVE",
"124 650 CURVE SMOOTH",
"112 650 OFFCURVE",
"98 641 OFFCURVE",
"96 624 CURVE SMOOTH",
"86 528 LINE SMOOTH",
"84 510 OFFCURVE",
"97 500 OFFCURVE",
"110 500 CURVE SMOOTH"
);
},
{
closed = 1;
nodes = (
"231 500 OFFCURVE",
"245 507 OFFCURVE",
"247 526 CURVE SMOOTH",
"256 620 LINE SMOOTH",
"257 640 OFFCURVE",
"245 650 OFFCURVE",
"231 650 CURVE SMOOTH",
"219 650 OFFCURVE",
"207 642 OFFCURVE",
"205 628 CURVE SMOOTH",
"194 528 LINE SMOOTH",
"192 509 OFFCURVE",
"205 500 OFFCURVE",
"219 500 CURVE SMOOTH"
);
}
);
vertWidth = 0;
width = 292;
},
{
layerId = m002;
paths = (
{
closed = 1;
nodes = (
"158 456 OFFCURVE",
"182 471 OFFCURVE",
"185 498 CURVE SMOOTH",
"195 594 LINE SMOOTH",
"199 628 OFFCURVE",
"174 650 OFFCURVE",
"146 650 CURVE SMOOTH",
"123 650 OFFCURVE",
"98 634 OFFCURVE",
"95 606 CURVE SMOOTH",
"84 510 LINE SMOOTH",
"81 477 OFFCURVE",
"107 456 OFFCURVE",
"135 456 CURVE SMOOTH"
);
},
{
closed = 1;
nodes = (
"316 456 OFFCURVE",
"342 470 OFFCURVE",
"344 496 CURVE SMOOTH",
"354 595 LINE SMOOTH",
"358 629 OFFCURVE",
"331 650 OFFCURVE",
"303 650 CURVE SMOOTH",
"280 650 OFFCURVE",
"257 635 OFFCURVE",
"253 610 CURVE SMOOTH",
"242 510 LINE SMOOTH",
"238 472 OFFCURVE",
"270 456 OFFCURVE",
"294 456 CURVE SMOOTH"
);
}
);
vertWidth = 0;
width = 392;
}
);
leftKerningGroup = quote_left;
note = "";
rightKerningGroup = quote_right;
unicode = 0022;
},
{
glyphname = quotesingle;
layers = (
{
layerId = m01;
paths = (
{
closed = 1;
nodes = (
"122 500 OFFCURVE",
"136 507 OFFCURVE",
"137 521 CURVE SMOOTH",
"147 620 LINE SMOOTH",
"148 640 OFFCURVE",
"136 650 OFFCURVE",
"122 650 CURVE SMOOTH",
"110 650 OFFCURVE",
"98 642 OFFCURVE",
"96 628 CURVE SMOOTH",
"85 528 LINE SMOOTH",
"83 509 OFFCURVE",
"96 500 OFFCURVE",
"110 500 CURVE SMOOTH"
);
}
);
vertWidth = 0;
width = 182;
},
{
layerId = m002;
paths = (
{
closed = 1;
nodes = (
"158 456 OFFCURVE",
"184 470 OFFCURVE",
"186 496 CURVE SMOOTH",
"196 595 LINE SMOOTH",
"199 629 OFFCURVE",
"173 650 OFFCURVE",
"145 650 CURVE SMOOTH",
"122 650 OFFCURVE",
"97 635 OFFCURVE",
"94 610 CURVE SMOOTH",
"84 510 LINE SMOOTH",
"80 472 OFFCURVE",
"112 456 OFFCURVE",
"136 456 CURVE SMOOTH"
);
}
);
vertWidth = 0;
width = 234;
}
);
leftKerningGroup = quote_left;
note = "";
rightKerningGroup = quote_right;
unicode = 0027;
},
{
glyphname = at;
layers = (
{
layerId = m01;
paths = (
{
closed = 1;
nodes = (
"330 52 OFFCURVE",
"377 126 OFFCURVE",
"404 234 CURVE SMOOTH",
"430 338 OFFCURVE",
"417 406 OFFCURVE",
"350 406 CURVE SMOOTH",
"270 406 OFFCURVE",
"203 332 OFFCURVE",
"176 224 CURVE SMOOTH",
"150 120 OFFCURVE",
"183 52 OFFCURVE",
"250 52 CURVE SMOOTH"
);
},
{
closed = 1;
nodes = (
"221 97 OFFCURVE",
"207 137 OFFCURVE",
"226 215 CURVE SMOOTH",
"247 300 OFFCURVE",
"291 361 OFFCURVE",
"339 361 CURVE SMOOTH",
"379 361 OFFCURVE",
"393 321 OFFCURVE",
"374 243 CURVE SMOOTH",
"353 158 OFFCURVE",
"309 97 OFFCURVE",
"261 97 CURVE SMOOTH"
);
},
{
closed = 1;
nodes = (
"287 -80 OFFCURVE",
"336 -68 OFFCURVE",
"366 -60 CURVE SMOOTH",
"386 -55 OFFCURVE",
"390 -41 OFFCURVE",
"387 -29 CURVE SMOOTH",
"382 -13 OFFCURVE",
"363 -12 OFFCURVE",
"351 -16 CURVE SMOOTH",
"321 -25 OFFCURVE",
"278 -35 OFFCURVE",
"243 -35 CURVE SMOOTH",
"122 -35 OFFCURVE",
"53 77 OFFCURVE",
"87 214 CURVE SMOOTH",
"129 382 OFFCURVE",
"239 481 OFFCURVE",
"369 481 CURVE SMOOTH",
"491 481 OFFCURVE",
"560 385 OFFCURVE",
"528 250 CURVE SMOOTH",
"509 172 OFFCURVE",
"455 97 OFFCURVE",
"415 97 CURVE SMOOTH",
"399 97 OFFCURVE",
"397 131 OFFCURVE",
"411 185 CURVE SMOOTH",
"459 374 LINE SMOOTH",
"463 390 OFFCURVE",
"459 402 OFFCURVE",
"442 402 CURVE SMOOTH",
"423 402 OFFCURVE",
"413 395 OFFCURVE",
"408 377 CURVE SMOOTH",
"362 196 LINE SMOOTH",
"339 107 OFFCURVE",
"359 52 OFFCURVE",
"410 52 CURVE SMOOTH",
"473 52 OFFCURVE",
"552 146 OFFCURVE",
"578 251 CURVE SMOOTH",
"617 409 OFFCURVE",
"528 526 OFFCURVE",
"371 526 CURVE SMOOTH",
"214 526 OFFCURVE",
"84 410 OFFCURVE",
"37 223 CURVE SMOOTH",
"-6 49 OFFCURVE",
"86 -80 OFFCURVE",
"246 -80 CURVE SMOOTH"
);
}
);
vertWidth = 0;
width = 635;
},
{
layerId = m002;
leftMetricsKey = o;
rightMetricsKey = o;
paths = (
{
closed = 1;
nodes = (
"352 49 OFFCURVE",
"383 124 OFFCURVE",
"411 229 CURVE SMOOTH",
"440 337 OFFCURVE",
"444 408 OFFCURVE",
"375 408 CURVE SMOOTH",
"298 408 OFFCURVE",
"226 341 OFFCURVE",
"199 233 CURVE SMOOTH",
"171 119 OFFCURVE",
"206 49 OFFCURVE",
"286 49 CURVE SMOOTH"
);
},
{
closed = 1;
nodes = (
"286 139 OFFCURVE",
"280 167 OFFCURVE",
"292 213 CURVE SMOOTH",
"308 278 OFFCURVE",
"339 318 OFFCURVE",
"373 318 CURVE SMOOTH",
"393 318 OFFCURVE",
"399 292 OFFCURVE",
"388 249 CURVE SMOOTH",
"371 181 OFFCURVE",
"340 139 OFFCURVE",
"307 139 CURVE SMOOTH"
);
},
{
closed = 1;
nodes = (
"311 -120 OFFCURVE",
"369 -111 OFFCURVE",
"417 -98 CURVE SMOOTH",
"454 -88 OFFCURVE",
"471 -64 OFFCURVE",
"462 -33 CURVE SMOOTH",
"453 -4 OFFCURVE",
"423 6 OFFCURVE",
"382 -8 CURVE SMOOTH",
"352 -18 OFFCURVE",
"308 -25 OFFCURVE",
"279 -25 CURVE SMOOTH",
"158 -25 OFFCURVE",
"94 78 OFFCURVE",
"128 215 CURVE SMOOTH",
"171 384 OFFCURVE",
"279 489 OFFCURVE",
"411 489 CURVE SMOOTH",
"528 489 OFFCURVE",
"592 395 OFFCURVE",
"563 268 CURVE SMOOTH",
"545 192 OFFCURVE",
"503 136 OFFCURVE",
"472 136 CURVE SMOOTH",
"457 136 OFFCURVE",
"462 164 OFFCURVE",
"466 179 CURVE SMOOTH",
"510 354 LINE SMOOTH",
"519 390 OFFCURVE",
"504 408 OFFCURVE",
"472 408 CURVE SMOOTH",
"442 408 OFFCURVE",
"426 397 OFFCURVE",
"419 369 CURVE SMOOTH",
"376 200 LINE SMOOTH",
"345 80 OFFCURVE",
"388 49 OFFCURVE",
"440 49 CURVE",
"539 49 OFFCURVE",
"634 137 OFFCURVE",
"663 254 CURVE SMOOTH",
"711 443 OFFCURVE",
"604 584 OFFCURVE",
"414 584 CURVE SMOOTH",
"230 584 OFFCURVE",
"83 453 OFFCURVE",
"30 240 CURVE SMOOTH",
"-21 34 OFFCURVE",
"86 -120 OFFCURVE",
"281 -120 CURVE SMOOTH"
);
}
);
vertWidth = 0;
width = 720;
}
);
note = "";
unicode = 0040;
},
{
glyphname = ampersand;
layers = (
{
layerId = m01;
paths = (
{
closed = 1;
nodes = (
"296 -1 OFFCURVE",
"377 66 OFFCURVE",
"472 231 CURVE SMOOTH",
"482 248 OFFCURVE",
"485 264 OFFCURVE",
"470 274 CURVE SMOOTH",
"455 284 OFFCURVE",
"441 278 OFFCURVE",
"431 261 CURVE SMOOTH",
"346 108 OFFCURVE",
"277 45 OFFCURVE",
"194 45 CURVE SMOOTH",
"134 45 OFFCURVE",
"97 89 OFFCURVE",
"97 159 CURVE SMOOTH",
"97 229 OFFCURVE",
"135 280 OFFCURVE",
"227 336 CURVE SMOOTH",
"272 363 LINE SMOOTH",
"380 428 OFFCURVE",
"428 491 OFFCURVE",
"428 556 CURVE SMOOTH",
"428 610 OFFCURVE",
"377 650 OFFCURVE",
"309 650 CURVE SMOOTH",
"210 650 OFFCURVE",
"136 594 OFFCURVE",
"136 520 CURVE SMOOTH",
"136 463 OFFCURVE",
"185 390 OFFCURVE",
"207 353 CURVE SMOOTH",
"405 22 LINE SMOOTH",
"415 5 OFFCURVE",
"429 -5 OFFCURVE",
"445 4 CURVE SMOOTH",
"460 12 OFFCURVE",
"457 33 OFFCURVE",
"444 55 CURVE SMOOTH",
"249 383 LINE SMOOTH",
"231 413 OFFCURVE",
"186 485 OFFCURVE",
"186 520 CURVE SMOOTH",
"186 568 OFFCURVE",
"236 604 OFFCURVE",
"303 604 CURVE SMOOTH",
"346 604 OFFCURVE",
"378 579 OFFCURVE",
"378 546 CURVE SMOOTH",
"378 500 OFFCURVE",
"322 449 OFFCURVE",
"224 388 CURVE SMOOTH",
"203 375 LINE SMOOTH",
"92 307 OFFCURVE",
"47 244 OFFCURVE",
"47 157 CURVE SMOOTH",
"47 59 OFFCURVE",
"103 -1 OFFCURVE",
"194 -1 CURVE SMOOTH"
);
}
);
vertWidth = 0;
width = 554;
},
{
layerId = m002;
paths = (
{
closed = 1;
nodes = (
"326 -4 OFFCURVE",
"417 73 OFFCURVE",
"504 226 CURVE SMOOTH",
"519 252 OFFCURVE",
"512 277 OFFCURVE",
"484 293 CURVE SMOOTH",
"463 306 OFFCURVE",
"432 297 OFFCURVE",
"416 270 CURVE SMOOTH",
"345 149 OFFCURVE",
"285 87 OFFCURVE",
"224 87 CURVE SMOOTH",
"182 87 OFFCURVE",
"148 114 OFFCURVE",
"148 157 CURVE SMOOTH",
"148 204 OFFCURVE",
"177 264 OFFCURVE",
"249 318 CURVE SMOOTH",
"269 333 LINE SMOOTH",
"404 434 OFFCURVE",
"442 484 OFFCURVE",
"442 555 CURVE SMOOTH",
"442 614 OFFCURVE",
"386 649 OFFCURVE",
"298 649 CURVE SMOOTH",
"190 649 OFFCURVE",
"106 579 OFFCURVE",
"106 504 CURVE SMOOTH",
"106 457 OFFCURVE",
"132 422 OFFCURVE",
"150 393 CURVE SMOOTH",
"386 28 LINE SMOOTH",
"401 5 OFFCURVE",
"441 -9 OFFCURVE",
"468 10 CURVE SMOOTH",
"498 32 OFFCURVE",
"492 60 OFFCURVE",
"476 84 CURVE SMOOTH",
"283 371 LINE SMOOTH",
"249 421 OFFCURVE",
"209 480 OFFCURVE",
"208 505 CURVE SMOOTH",
"208 527 OFFCURVE",
"240 560 OFFCURVE",
"283 560 CURVE SMOOTH",
"322 560 OFFCURVE",
"331 549 OFFCURVE",
"335 534 CURVE SMOOTH",
"343 506 OFFCURVE",
"308 462 OFFCURVE",
"226 408 CURVE SMOOTH",
"191 385 LINE SMOOTH",
"114 335 OFFCURVE",
"48 269 OFFCURVE",
"48 156 CURVE SMOOTH",
"48 57 OFFCURVE",
"119 -4 OFFCURVE",
"212 -4 CURVE SMOOTH"
);
}
);
vertWidth = 0;
width = 585;
}
);
note = "";
unicode = 0026;
},
{
glyphname = degree;
layers = (
{
layerId = m01;
paths = (
{
closed = 1;
nodes = (
"233 404 OFFCURVE",
"267 469 OFFCURVE",
"274 530 CURVE SMOOTH",
"280 593 OFFCURVE",
"255 654 OFFCURVE",
"193 654 CURVE SMOOTH",
"141 654 OFFCURVE",
"95 612 OFFCURVE",
"86 530 CURVE SMOOTH",
"80 467 OFFCURVE",
"105 404 OFFCURVE",
"167 404 CURVE SMOOTH"
);
},
{
closed = 1;
nodes = (
"139 450 OFFCURVE",
"128 487 OFFCURVE",
"132 528 CURVE SMOOTH",
"138 583 OFFCURVE",
"160 608 OFFCURVE",
"190 608 CURVE SMOOTH",
"227 608 OFFCURVE",
"231 559 OFFCURVE",
"228 531 CURVE SMOOTH",
"222 478 OFFCURVE",
"198 450 OFFCURVE",
"174 450 CURVE SMOOTH"
);
}
);
vertWidth = 0;
width = 318;
},
{
layerId = m002;
paths = (
{
closed = 1;
nodes = (
"255 372 OFFCURVE",
"294 445 OFFCURVE",
"303 514 CURVE SMOOTH",
"310 585 OFFCURVE",
"281 654 OFFCURVE",
"208 654 CURVE SMOOTH",
"147 654 OFFCURVE",
"94 607 OFFCURVE",
"84 514 CURVE SMOOTH",
"77 443 OFFCURVE",
"106 372 OFFCURVE",
"178 372 CURVE SMOOTH"
);
},
{
closed = 1;
nodes = (
"164 459 OFFCURVE",
"157 485 OFFCURVE",
"160 513 CURVE SMOOTH",
"163 552 OFFCURVE",
"179 569 OFFCURVE",
"200 569 CURVE SMOOTH",
"225 569 OFFCURVE",
"229 536 OFFCURVE",
"226 515 CURVE SMOOTH",
"223 478 OFFCURVE",
"206 459 OFFCURVE",
"188 459 CURVE SMOOTH"
);
}
);
vertWidth = 0;
width = 349;
}
);
note = "";
unicode = 00B0;
},
{
glyphname = bar;
layers = (
{
layerId = m01;
paths = (
{
closed = 1;
nodes = (
"59 -300 OFFCURVE",
"61 -285 OFFCURVE",
"62 -275 CURVE SMOOTH",
"162 668 LINE SMOOTH",
"165 690 OFFCURVE",
"153 700 OFFCURVE",
"140 700 CURVE SMOOTH",
"128 700 OFFCURVE",
"114 690 OFFCURVE",
"112 672 CURVE SMOOTH",
"11 -273 LINE SMOOTH",
"9 -288 OFFCURVE",
"19 -300 OFFCURVE",
"37 -300 CURVE SMOOTH"
);
}
);
vertWidth = 0;
width = 202;
},
{
layerId = m002;
paths = (
{
closed = 1;
nodes = (
"100 -302 OFFCURVE",
"111 -281 OFFCURVE",
"114 -260 CURVE",
"211 645 LINE SMOOTH",
"214 681 OFFCURVE",
"190 702 OFFCURVE",
"162 702 CURVE SMOOTH",
"140 702 OFFCURVE",
"115 685 OFFCURVE",
"112 657 CURVE SMOOTH",
"14 -250 LINE SMOOTH",
"10 -278 OFFCURVE",
"34 -302 OFFCURVE",
"66 -302 CURVE SMOOTH"
);
}
);
vertWidth = 0;
width = 253;
}
);
note = "";
unicode = 007C;
},
{
glyphname = brokenbar;
layers = (
{
layerId = m01;
paths = (
{
closed = 1;
nodes = (
"107 152 OFFCURVE",
"96 162 OFFCURVE",
"84 162 CURVE SMOOTH",
"71 162 OFFCURVE",
"56 152 OFFCURVE",
"55 135 CURVE SMOOTH",
"11 -273 LINE SMOOTH",
"9 -288 OFFCURVE",
"19 -300 OFFCURVE",
"37 -300 CURVE SMOOTH",
"59 -300 OFFCURVE",
"61 -285 OFFCURVE",
"62 -275 CURVE SMOOTH",
"106 135 LINE SMOOTH"
);
},
{
closed = 1;
nodes = (
"165 690 OFFCURVE",
"153 700 OFFCURVE",
"140 700 CURVE SMOOTH",
"128 700 OFFCURVE",
"114 690 OFFCURVE",
"112 672 CURVE SMOOTH",
"68 266 LINE SMOOTH",
"67 249 OFFCURVE",
"78 238 OFFCURVE",
"91 239 CURVE SMOOTH",
"104 239 OFFCURVE",
"118 249 OFFCURVE",
"119 266 CURVE SMOOTH",
"162 668 LINE SMOOTH"
);
}
);
vertWidth = 0;
width = 202;
},
{
layerId = m002;
paths = (
{
closed = 1;
nodes = (
"156 141 OFFCURVE",
"133 163 OFFCURVE",
"106 163 CURVE SMOOTH",
"83 163 OFFCURVE",
"57 146 OFFCURVE",
"54 119 CURVE SMOOTH",
"14 -248 LINE SMOOTH",
"11 -276 OFFCURVE",
"34 -300 OFFCURVE",
"66 -300 CURVE SMOOTH",
"100 -300 OFFCURVE",
"112 -279 OFFCURVE",
"114 -258 CURVE SMOOTH",
"153 111 LINE SMOOTH"
);
},
{
closed = 1;
nodes = (
"214 679 OFFCURVE",
"189 700 OFFCURVE",
"161 700 CURVE SMOOTH",
"139 700 OFFCURVE",
"114 683 OFFCURVE",
"111 655 CURVE SMOOTH",
"72 290 LINE SMOOTH",
"68 259 OFFCURVE",
"93 236 OFFCURVE",
"121 238 CURVE SMOOTH",
"144 239 OFFCURVE",
"168 256 OFFCURVE",
"171 282 CURVE SMOOTH",
"210 643 LINE SMOOTH"
);
}
);
vertWidth = 0;
width = 252;
}
);
note = "";
unicode = 00A6;
},
{
glyphname = dollar;
layers = (
{
layerId = m01;
paths = (
{
closed = 1;
nodes = (
"285 -4 OFFCURVE",
"376 35 OFFCURVE",
"385 124 CURVE SMOOTH",
"393 202 OFFCURVE",
"331 254 OFFCURVE",
"251 300 CURVE SMOOTH",
"169 347 OFFCURVE",
"118 369 OFFCURVE",
"124 426 CURVE SMOOTH",
"130 483 OFFCURVE",
"185 522 OFFCURVE",
"280 522 CURVE SMOOTH",
"331 522 OFFCURVE",
"362 497 OFFCURVE",
"375 461 CURVE SMOOTH",
"380 448 OFFCURVE",
"394 442 OFFCURVE",
"407 446 CURVE SMOOTH",
"421 450 OFFCURVE",
"423 466 OFFCURVE",
"417 484 CURVE SMOOTH",
"401 531 OFFCURVE",
"356 568 OFFCURVE",
"278 568 CURVE SMOOTH",
"150 568 OFFCURVE",
"84 504 OFFCURVE",
"76 430 CURVE SMOOTH",
"68 350 OFFCURVE",
"134 309 OFFCURVE",
"213 264 CURVE SMOOTH",
"301 214 OFFCURVE",
"342 190 OFFCURVE",
"336 131 CURVE SMOOTH",
"329 67 OFFCURVE",
"255 42 OFFCURVE",
"185 42 CURVE SMOOTH",
"122 42 OFFCURVE",
"96 68 OFFCURVE",
"88 99 CURVE SMOOTH",
"84 116 OFFCURVE",
"69 122 OFFCURVE",
"55 118 CURVE SMOOTH",
"40 114 OFFCURVE",
"38 98 OFFCURVE",
"42 82 CURVE SMOOTH",
"55 30 OFFCURVE",
"100 -4 OFFCURVE",
"169 -4 CURVE SMOOTH"
);
},
{
closed = 1;
nodes = (
"208 -69 OFFCURVE",
"219 -62 OFFCURVE",
"221 -47 CURVE SMOOTH",
"289 596 LINE SMOOTH",
"291 612 OFFCURVE",
"277 622 OFFCURVE",
"263 622 CURVE SMOOTH",
"252 622 OFFCURVE",
"241 616 OFFCURVE",
"239 601 CURVE SMOOTH",
"171 -42 LINE SMOOTH",
"169 -60 OFFCURVE",
"183 -69 OFFCURVE",
"197 -69 CURVE SMOOTH"
);
}
);
vertWidth = 0;
width = 472;
},
{
layerId = m002;
paths = (
{
closed = 1;
nodes = (
"306 -4 OFFCURVE",
"407 38 OFFCURVE",
"418 139 CURVE SMOOTH",
"426 228 OFFCURVE",
"356 279 OFFCURVE",
"280 323 CURVE SMOOTH",
"202 368 OFFCURVE",
"172 372 OFFCURVE",
"176 405 CURVE SMOOTH",
"180 446 OFFCURVE",
"214 478 OFFCURVE",
"293 478 CURVE SMOOTH",
"330 478 OFFCURVE",
"353 463 OFFCURVE",
"363 436 CURVE SMOOTH",
"373 411 OFFCURVE",
"394 393 OFFCURVE",
"419 401 CURVE SMOOTH",
"448 410 OFFCURVE",
"457 441 OFFCURVE",
"445 471 CURVE SMOOTH",
"427 525 OFFCURVE",
"377 568 OFFCURVE",
"291 568 CURVE SMOOTH",
"157 568 OFFCURVE",
"86 497 OFFCURVE",
"76 415 CURVE SMOOTH",
"67 323 OFFCURVE",
"142 285 OFFCURVE",
"218 243 CURVE SMOOTH",
"299 196 OFFCURVE",
"323 188 OFFCURVE",
"319 151 CURVE SMOOTH",
"314 109 OFFCURVE",
"265 86 OFFCURVE",
"205 86 CURVE SMOOTH",
"158 86 OFFCURVE",
"137 102 OFFCURVE",
"131 123 CURVE SMOOTH",
"125 154 OFFCURVE",
"101 170 OFFCURVE",
"73 162 CURVE SMOOTH",
"47 154 OFFCURVE",
"37 128 OFFCURVE",
"46 96 CURVE SMOOTH",
"61 35 OFFCURVE",
"113 -4 OFFCURVE",
"190 -4 CURVE SMOOTH"
);
},
{
closed = 1;
nodes = (
"238 -69 OFFCURVE",
"259 -51 OFFCURVE",
"263 -18 CURVE SMOOTH",
"326 569 LINE SMOOTH",
"329 597 OFFCURVE",
"314 622 OFFCURVE",
"279 622 CURVE SMOOTH",
"249 622 OFFCURVE",
"229 601 OFFCURVE",
"226 574 CURVE SMOOTH",
"163 -12 LINE SMOOTH",
"159 -48 OFFCURVE",
"176 -69 OFFCURVE",
"209 -69 CURVE SMOOTH"
);
}
);
vertWidth = 0;
width = 504;
}
);
note = "";
unicode = 0024;
},
{
glyphname = plus;
layers = (
{
layerId = m01;
leftMetricsKey = n;
rightMetricsKey = n;
paths = (
{
closed = 1;
nodes = (
"206 88 OFFCURVE",
"218 94 OFFCURVE",
"220 110 CURVE SMOOTH",
"245 331 LINE SMOOTH",
"247 349 OFFCURVE",
"238 361 OFFCURVE",
"226 362 CURVE SMOOTH",
"216 363 OFFCURVE",
"203 357 OFFCURVE",
"201 341 CURVE SMOOTH",
"177 120 LINE SMOOTH",
"175 101 OFFCURVE",
"184 89 OFFCURVE",
"196 88 CURVE SMOOTH"
);
},
{
closed = 1;
nodes = (
"324 205 LINE SMOOTH",
"342 205 OFFCURVE",
"351 217 OFFCURVE",
"351 228 CURVE SMOOTH",
"351 239 OFFCURVE",
"342 250 OFFCURVE",
"324 250 CURVE SMOOTH",
"97 250 LINE SMOOTH",
"79 250 OFFCURVE",
"70 239 OFFCURVE",
"70 228 CURVE SMOOTH",
"70 216 OFFCURVE",
"79 205 OFFCURVE",
"97 205 CURVE SMOOTH"
);
}
);
vertWidth = 0;
width = 426;
},
{
layerId = m002;
leftMetricsKey = n;
rightMetricsKey = n;
paths = (
{
closed = 1;
nodes = (
"218 68 OFFCURVE",
"242 76 OFFCURVE",
"245 105 CURVE SMOOTH",
"269 327 LINE SMOOTH",
"273 362 OFFCURVE",
"253 382 OFFCURVE",
"232 382 CURVE SMOOTH",
"215 382 OFFCURVE",
"189 377 OFFCURVE",
"186 348 CURVE SMOOTH",
"162 125 LINE SMOOTH",
"158 86 OFFCURVE",
"179 68 OFFCURVE",
"200 68 CURVE SMOOTH"
);
},
{
closed = 1;
nodes = (
"327 184 LINE SMOOTH",
"361 184 OFFCURVE",
"373 208 OFFCURVE",
"373 227 CURVE SMOOTH",
"373 247 OFFCURVE",
"361 270 OFFCURVE",
"327 270 CURVE SMOOTH",
"100 270 LINE SMOOTH",
"66 270 OFFCURVE",
"54 247 OFFCURVE",
"54 227 CURVE SMOOTH",
"54 207 OFFCURVE",
"66 184 OFFCURVE",
"100 184 CURVE SMOOTH"
);
}
);
vertWidth = 0;
width = 426;
}
);
note = "";
unicode = 002B;
},
{
glyphname = minus;
layers = (
{
layerId = m01;
leftMetricsKey = n;
rightMetricsKey = n;
paths = (
{
closed = 1;
nodes = (
"324 205 LINE SMOOTH",
"342 205 OFFCURVE",
"351 217 OFFCURVE",
"351 228 CURVE SMOOTH",
"351 239 OFFCURVE",
"342 250 OFFCURVE",
"324 250 CURVE SMOOTH",
"97 250 LINE SMOOTH",
"79 250 OFFCURVE",
"70 239 OFFCURVE",
"70 228 CURVE SMOOTH",
"70 216 OFFCURVE",
"79 205 OFFCURVE",
"97 205 CURVE SMOOTH"
);
}
);
vertWidth = 0;
width = 426;
},
{
layerId = m002;
leftMetricsKey = n;
rightMetricsKey = n;
paths = (
{
closed = 1;
nodes = (
"327 184 LINE SMOOTH",
"361 184 OFFCURVE",
"373 208 OFFCURVE",
"373 227 CURVE SMOOTH",
"373 247 OFFCURVE",
"361 270 OFFCURVE",
"327 270 CURVE SMOOTH",
"100 270 LINE SMOOTH",
"66 270 OFFCURVE",
"54 247 OFFCURVE",
"54 227 CURVE SMOOTH",
"54 207 OFFCURVE",
"66 184 OFFCURVE",
"100 184 CURVE SMOOTH"
);
}
);
vertWidth = 0;
width = 426;
}
);
note = "";
unicode = 2212;
},
{
glyphname = multiply;
layers = (
{
layerId = m01;
leftMetricsKey = o;
rightMetricsKey = o;
paths = (
{
closed = 1;
nodes = (
"336 327 LINE SMOOTH",
"350 340 OFFCURVE",
"350 352 OFFCURVE",
"341 360 CURVE SMOOTH",
"332 369 OFFCURVE",
"318 371 OFFCURVE",
"304 358 CURVE SMOOTH",
"66 123 LINE SMOOTH",
"54 112 OFFCURVE",
"54 100 OFFCURVE",
"62 91 CURVE SMOOTH",
"71 82 OFFCURVE",
"85 78 OFFCURVE",
"100 93 CURVE SMOOTH"
);
},
{
closed = 1;
nodes = (
"298 79 OFFCURVE",
"310 80 OFFCURVE",
"319 87 CURVE SMOOTH",
"330 95 OFFCURVE",
"335 107 OFFCURVE",
"323 121 CURVE SMOOTH",
"121 353 LINE SMOOTH",
"108 368 OFFCURVE",
"96 370 OFFCURVE",
"87 363 CURVE SMOOTH",
"77 355 OFFCURVE",
"73 339 OFFCURVE",
"83 327 CURVE SMOOTH",
"286 93 LINE SMOOTH"
);
}
);
vertWidth = 0;
width = 426;
},
{
layerId = m002;
leftMetricsKey = o;
rightMetricsKey = o;
paths = (
{
closed = 1;
nodes = (
"336 300 LINE SMOOTH",
"365 329 OFFCURVE",
"357 348 OFFCURVE",
"341 364 CURVE SMOOTH",
"327 378 OFFCURVE",
"302 387 OFFCURVE",
"278 363 CURVE SMOOTH",
"68 150 LINE SMOOTH",
"46 128 OFFCURVE",
"48 105 OFFCURVE",
"63 89 CURVE SMOOTH",
"78 73 OFFCURVE",
"101 61 OFFCURVE",
"128 88 CURVE SMOOTH"
);
},
{
closed = 1;
nodes = (
"288 66 OFFCURVE",
"311 70 OFFCURVE",
"327 82 CURVE SMOOTH",
"346 96 OFFCURVE",
"354 118 OFFCURVE",
"335 144 CURVE",
"144 354 LINE SMOOTH",
"118 383 OFFCURVE",
"96 379 OFFCURVE",
"81 368 CURVE SMOOTH",
"63 354 OFFCURVE",
"54 326 OFFCURVE",
"73 305 CURVE SMOOTH",
"265 92 LINE SMOOTH"
);
}
);
vertWidth = 0;
width = 426;
}
);
note = "";
unicode = 00D7;
},
{
glyphname = divide;
layers = (
{
layerId = m01;
leftMetricsKey = n;
rightMetricsKey = n;
paths = (
{
closed = 1;
nodes = (
"215 87 OFFCURVE",
"231 103 OFFCURVE",
"231 120 CURVE SMOOTH",
"231 138 OFFCURVE",
"214 152 OFFCURVE",
"197 152 CURVE SMOOTH",
"178 152 OFFCURVE",
"166 136 OFFCURVE",
"166 120 CURVE SMOOTH",
"166 103 OFFCURVE",
"179 87 OFFCURVE",
"197 87 CURVE SMOOTH"
);
},
{
closed = 1;
nodes = (
"324 205 LINE SMOOTH",
"342 205 OFFCURVE",
"351 217 OFFCURVE",
"351 228 CURVE SMOOTH",
"351 239 OFFCURVE",
"342 250 OFFCURVE",
"324 250 CURVE SMOOTH",
"97 250 LINE SMOOTH",
"79 250 OFFCURVE",
"70 239 OFFCURVE",
"70 228 CURVE SMOOTH",
"70 217 OFFCURVE",
"79 205 OFFCURVE",
"97 205 CURVE SMOOTH"
);
},
{
closed = 1;
nodes = (
"239 303 OFFCURVE",
"255 319 OFFCURVE",
"255 336 CURVE SMOOTH",
"255 353 OFFCURVE",
"239 368 OFFCURVE",
"222 368 CURVE SMOOTH",
"204 368 OFFCURVE",
"190 352 OFFCURVE",
"190 336 CURVE SMOOTH",
"190 320 OFFCURVE",
"204 303 OFFCURVE",
"222 303 CURVE SMOOTH"
);
}
);
vertWidth = 0;
width = 426;
},
{
layerId = m002;
leftMetricsKey = n;
rightMetricsKey = n;
paths = (
{
closed = 1;
nodes = (
"228 48 OFFCURVE",
"255 75 OFFCURVE",
"255 106 CURVE SMOOTH",
"255 135 OFFCURVE",
"228 160 OFFCURVE",
"199 160 CURVE SMOOTH",
"168 160 OFFCURVE",
"144 135 OFFCURVE",
"144 106 CURVE SMOOTH",
"144 75 OFFCURVE",
"168 48 OFFCURVE",
"199 48 CURVE SMOOTH"
);
},
{
closed = 1;
nodes = (
"327 184 LINE SMOOTH",
"361 184 OFFCURVE",
"373 208 OFFCURVE",
"373 227 CURVE SMOOTH",
"373 247 OFFCURVE",
"361 270 OFFCURVE",
"327 270 CURVE SMOOTH",
"100 270 LINE SMOOTH",
"66 270 OFFCURVE",
"54 247 OFFCURVE",
"54 227 CURVE SMOOTH",
"54 207 OFFCURVE",
"66 184 OFFCURVE",
"100 184 CURVE SMOOTH"
);
},
{
closed = 1;
nodes = (
"247 294 OFFCURVE",
"274 321 OFFCURVE",
"274 352 CURVE SMOOTH",
"274 381 OFFCURVE",
"247 406 OFFCURVE",
"218 406 CURVE SMOOTH",
"187 406 OFFCURVE",
"163 381 OFFCURVE",
"163 352 CURVE SMOOTH",
"163 321 OFFCURVE",
"187 294 OFFCURVE",
"218 294 CURVE SMOOTH"
);
}
);
vertWidth = 0;
width = 426;
}
);
note = "";
unicode = 00F7;
},
{
glyphname = equal;
layers = (
{
layerId = m01;
leftMetricsKey = n;
rightMetricsKey = n;
paths = (
{
closed = 1;
nodes = (
"313 129 LINE SMOOTH",
"331 129 OFFCURVE",
"340 141 OFFCURVE",
"340 152 CURVE SMOOTH",
"340 163 OFFCURVE",
"331 174 OFFCURVE",
"313 174 CURVE SMOOTH",
"86 174 LINE SMOOTH",
"68 174 OFFCURVE",
"59 162 OFFCURVE",
"59 151 CURVE SMOOTH",
"59 140 OFFCURVE",
"68 129 OFFCURVE",
"86 129 CURVE SMOOTH"
);
},
{
closed = 1;
nodes = (
"330 280 LINE SMOOTH",
"348 280 OFFCURVE",
"357 292 OFFCURVE",
"357 303 CURVE SMOOTH",
"357 314 OFFCURVE",
"348 325 OFFCURVE",
"330 325 CURVE SMOOTH",
"103 325 LINE SMOOTH",
"85 325 OFFCURVE",
"76 313 OFFCURVE",
"76 302 CURVE SMOOTH",
"76 291 OFFCURVE",
"85 280 OFFCURVE",
"103 280 CURVE SMOOTH"
);
}
);
vertWidth = 0;
width = 426;
},
{
layerId = m002;
leftMetricsKey = n;
rightMetricsKey = n;
paths = (
{
closed = 1;
nodes = (
"315 120 LINE SMOOTH",
"349 120 OFFCURVE",
"361 144 OFFCURVE",
"361 163 CURVE SMOOTH",
"361 183 OFFCURVE",
"349 206 OFFCURVE",
"315 206 CURVE SMOOTH",
"88 206 LINE SMOOTH",
"54 206 OFFCURVE",
"42 183 OFFCURVE",
"42 163 CURVE SMOOTH",
"42 143 OFFCURVE",
"54 120 OFFCURVE",
"88 120 CURVE SMOOTH"
);
},
{
closed = 1;
nodes = (
"328 251 LINE SMOOTH",
"362 251 OFFCURVE",
"374 275 OFFCURVE",
"374 294 CURVE SMOOTH",
"374 314 OFFCURVE",
"362 337 OFFCURVE",
"328 337 CURVE SMOOTH",
"101 337 LINE SMOOTH",
"67 337 OFFCURVE",
"55 314 OFFCURVE",
"55 294 CURVE SMOOTH",
"55 274 OFFCURVE",
"67 251 OFFCURVE",
"101 251 CURVE SMOOTH"
);
}
);
vertWidth = 0;
width = 426;
}
);
note = "";
unicode = 003D;
},
{
glyphname = notequal;
layers = (
{
layerId = m01;
leftMetricsKey = n;
rightMetricsKey = n;
paths = (
{
closed = 1;
nodes = (
"313 129 LINE SMOOTH",
"331 129 OFFCURVE",
"340 141 OFFCURVE",
"340 152 CURVE SMOOTH",
"340 163 OFFCURVE",
"331 174 OFFCURVE",
"313 174 CURVE SMOOTH",
"86 174 LINE SMOOTH",
"68 174 OFFCURVE",
"59 162 OFFCURVE",
"59 151 CURVE SMOOTH",
"59 140 OFFCURVE",
"68 129 OFFCURVE",
"86 129 CURVE SMOOTH"
);
},
{
closed = 1;
nodes = (
"330 280 LINE SMOOTH",
"348 280 OFFCURVE",
"357 292 OFFCURVE",
"357 303 CURVE SMOOTH",
"357 314 OFFCURVE",
"348 325 OFFCURVE",
"330 325 CURVE SMOOTH",
"103 325 LINE SMOOTH",
"85 325 OFFCURVE",
"76 313 OFFCURVE",
"76 302 CURVE SMOOTH",
"76 291 OFFCURVE",
"85 280 OFFCURVE",
"103 280 CURVE SMOOTH"
);
},
{
closed = 1;
nodes = (
"289 338 LINE SMOOTH",
"303 362 OFFCURVE",
"289 377 OFFCURVE",
"275 377 CURVE SMOOTH",
"265 377 OFFCURVE",
"258 373 OFFCURVE",
"251 362 CURVE SMOOTH",
"112 110 LINE SMOOTH",
"103 92 OFFCURVE",
"110 80 OFFCURVE",
"121 75 CURVE SMOOTH",
"130 71 OFFCURVE",
"144 73 OFFCURVE",
"153 89 CURVE SMOOTH"
);
}
);
vertWidth = 0;
width = 426;
},
{
layerId = m002;
leftMetricsKey = n;
rightMetricsKey = n;
paths = (
{
closed = 1;
nodes = (
"315 120 LINE SMOOTH",
"349 120 OFFCURVE",
"361 144 OFFCURVE",
"361 163 CURVE SMOOTH",
"361 183 OFFCURVE",
"349 206 OFFCURVE",
"315 206 CURVE SMOOTH",
"88 206 LINE SMOOTH",
"54 206 OFFCURVE",
"42 183 OFFCURVE",
"42 163 CURVE SMOOTH",
"42 143 OFFCURVE",
"54 120 OFFCURVE",
"88 120 CURVE SMOOTH"
);
},
{
closed = 1;
nodes = (
"328 251 LINE SMOOTH",
"362 251 OFFCURVE",
"374 275 OFFCURVE",
"374 294 CURVE SMOOTH",
"374 314 OFFCURVE",
"362 337 OFFCURVE",
"328 337 CURVE SMOOTH",
"101 337 LINE SMOOTH",
"67 337 OFFCURVE",
"55 314 OFFCURVE",
"55 294 CURVE SMOOTH",
"55 274 OFFCURVE",
"67 251 OFFCURVE",
"101 251 CURVE SMOOTH"
);
},
{
closed = 1;
nodes = (
"326 337 LINE SMOOTH",
"360 393 OFFCURVE",
"316 407 OFFCURVE",
"293 407 CURVE SMOOTH",
"276 407 OFFCURVE",
"264 402 OFFCURVE",
"252 383 CURVE SMOOTH",
"86 111 LINE SMOOTH",
"67 80 OFFCURVE",
"86 56 OFFCURVE",
"105 47 CURVE SMOOTH",
"121 40 OFFCURVE",
"148 43 OFFCURVE",
"164 69 CURVE SMOOTH"
);
}
);
vertWidth = 0;
width = 426;
}
);
note = "";
unicode = 2260;
},
{
glyphname = greater;
layers = (
{
guideLines = (
{
name = " [#GqRMvt6B8x]";
position = "{131, 333}";
}
);
layerId = m01;
leftMetricsKey = n;
rightMetricsKey = n;
paths = (
{
closed = 1;
nodes = (
"332 198 LINE SMOOTH",
"340 202 OFFCURVE",
"346 210 OFFCURVE",
"346 218 CURVE SMOOTH",
"346 225 OFFCURVE",
"344 232 OFFCURVE",
"336 237 CURVE SMOOTH",
"157 362 LINE SMOOTH",
"142 373 OFFCURVE",
"129 373 OFFCURVE",
"120 364 CURVE SMOOTH",
"111 353 OFFCURVE",
"113 338 OFFCURVE",
"128 327 CURVE SMOOTH",
"303 205 LINE",
"306 235 LINE",
"98 139 LINE SMOOTH",
"78 130 OFFCURVE",
"74 120 OFFCURVE",
"77 108 CURVE SMOOTH",
"80 98 OFFCURVE",
"91 87 OFFCURVE",
"110 96 CURVE SMOOTH"
);
}
);
vertWidth = 0;
width = 426;
},
{
guideLines = (
{
name = " [#GqRMvt6B8x]";
position = "{131, 333}";
}
);
layerId = m002;
leftMetricsKey = n;
rightMetricsKey = n;
paths = (
{
closed = 1;
nodes = (
"340 182 LINE SMOOTH",
"356 188 OFFCURVE",
"366 206 OFFCURVE",
"366 221 CURVE SMOOTH",
"366 233 OFFCURVE",
"364 246 OFFCURVE",
"349 255 CURVE SMOOTH",
"170 358 LINE SMOOTH",
"142 374 OFFCURVE",
"123 372 OFFCURVE",
"107 356 CURVE SMOOTH",
"89 338 OFFCURVE",
"88 306 OFFCURVE",
"117 290 CURVE SMOOTH",
"272 205 LINE",
"277 247 LINE",
"101 178 LINE SMOOTH",
"65 164 OFFCURVE",
"65 144 OFFCURVE",
"70 125 CURVE SMOOTH",
"75 106 OFFCURVE",
"92 83 OFFCURVE",
"130 98 CURVE SMOOTH"
);
}
);
vertWidth = 0;
width = 426;
}
);
note = "";
unicode = 003E;
},
{
glyphname = less;
layers = (
{
layerId = m01;
leftMetricsKey = n;
rightMetricsKey = n;
paths = (
{
closed = 1;
nodes = (
"283 91 OFFCURVE",
"296 91 OFFCURVE",
"305 100 CURVE SMOOTH",
"314 111 OFFCURVE",
"312 126 OFFCURVE",
"297 137 CURVE SMOOTH",
"122 259 LINE",
"119 229 LINE",
"327 325 LINE SMOOTH",
"347 334 OFFCURVE",
"351 344 OFFCURVE",
"348 356 CURVE SMOOTH",
"345 366 OFFCURVE",
"334 377 OFFCURVE",
"315 368 CURVE SMOOTH",
"93 266 LINE SMOOTH",
"85 262 OFFCURVE",
"79 254 OFFCURVE",
"79 246 CURVE SMOOTH",
"79 239 OFFCURVE",
"81 232 OFFCURVE",
"89 227 CURVE SMOOTH",
"268 102 LINE SMOOTH"
);
}
);
vertWidth = 0;
width = 426;
},
{
layerId = m002;
leftMetricsKey = n;
rightMetricsKey = n;
paths = (
{
closed = 1;
nodes = (
"281 93 OFFCURVE",
"308 94 OFFCURVE",
"322 108 CURVE SMOOTH",
"341 126 OFFCURVE",
"341 158 OFFCURVE",
"312 174 CURVE SMOOTH",
"157 259 LINE",
"152 217 LINE",
"328 286 LINE SMOOTH",
"364 300 OFFCURVE",
"364 320 OFFCURVE",
"359 339 CURVE SMOOTH",
"354 358 OFFCURVE",
"337 381 OFFCURVE",
"299 366 CURVE SMOOTH",
"89 282 LINE SMOOTH",
"73 276 OFFCURVE",
"63 258 OFFCURVE",
"63 243 CURVE SMOOTH",
"63 231 OFFCURVE",
"65 218 OFFCURVE",
"80 209 CURVE SMOOTH",
"259 106 LINE SMOOTH"
);
}
);
vertWidth = 0;
width = 426;
}
);
note = "";
unicode = 003C;
},
{
glyphname = greaterequal;
layers = (
{
layerId = m01;
leftMetricsKey = n;
rightMetricsKey = n;
paths = (
{
closed = 1;
nodes = (
"310 129 LINE SMOOTH",
"328 129 OFFCURVE",
"337 140 OFFCURVE",
"337 152 CURVE SMOOTH",
"337 163 OFFCURVE",
"328 174 OFFCURVE",
"310 174 CURVE SMOOTH",
"83 174 LINE SMOOTH",
"65 174 OFFCURVE",
"56 162 OFFCURVE",
"56 151 CURVE SMOOTH",
"56 140 OFFCURVE",
"65 129 OFFCURVE",
"83 129 CURVE SMOOTH"
);
},
{
closed = 1;
nodes = (
"316 234 LINE SMOOTH",
"334 234 OFFCURVE",
"343 245 OFFCURVE",
"343 257 CURVE SMOOTH",
"343 263 OFFCURVE",
"340 270 OFFCURVE",
"334 274 CURVE SMOOTH",
"148 392 LINE SMOOTH",
"132 402 OFFCURVE",
"119 401 OFFCURVE",
"111 391 CURVE SMOOTH",
"103 380 OFFCURVE",
"106 366 OFFCURVE",
"121 356 CURVE SMOOTH",
"267 263 LINE",
"272 279 LINE",
"89 279 LINE SMOOTH",
"71 279 OFFCURVE",
"62 267 OFFCURVE",
"62 256 CURVE SMOOTH",
"62 245 OFFCURVE",
"71 234 OFFCURVE",
"89 234 CURVE SMOOTH"
);
}
);
vertWidth = 0;
width = 426;
},
{
layerId = m002;
leftMetricsKey = n;
rightMetricsKey = n;
paths = (
{
closed = 1;
nodes = (
"315 106 LINE SMOOTH",
"349 106 OFFCURVE",
"361 130 OFFCURVE",
"361 149 CURVE SMOOTH",
"361 169 OFFCURVE",
"349 192 OFFCURVE",
"315 192 CURVE SMOOTH",
"88 192 LINE SMOOTH",
"54 192 OFFCURVE",
"42 169 OFFCURVE",
"42 149 CURVE SMOOTH",
"42 129 OFFCURVE",
"54 106 OFFCURVE",
"88 106 CURVE SMOOTH"
);
},
{
closed = 1;
nodes = (
"313 221 LINE SMOOTH",
"346 221 OFFCURVE",
"359 244 OFFCURVE",
"359 264 CURVE SMOOTH",
"359 277 OFFCURVE",
"354 290 OFFCURVE",
"341 299 CURVE SMOOTH",
"169 415 LINE SMOOTH",
"140 435 OFFCURVE",
"119 425 OFFCURVE",
"106 409 CURVE",
"92 389 OFFCURVE",
"89 362 OFFCURVE",
"120 345 CURVE SMOOTH",
"219 292 LINE",
"232 307 LINE",
"108 307 LINE SMOOTH",
"74 307 OFFCURVE",
"61 283 OFFCURVE",
"61 264 CURVE",
"61 245 OFFCURVE",
"73 221 OFFCURVE",
"108 221 CURVE SMOOTH"
);
}
);
vertWidth = 0;
width = 426;
}
);
note = "";
unicode = 2265;
},
{
glyphname = lessequal;
layers = (
{
layerId = m01;
leftMetricsKey = n;
rightMetricsKey = n;
paths = (
{
closed = 1;
nodes = (
"310 129 LINE SMOOTH",
"328 129 OFFCURVE",
"337 140 OFFCURVE",
"337 152 CURVE SMOOTH",
"337 163 OFFCURVE",
"328 174 OFFCURVE",
"310 174 CURVE SMOOTH",
"83 174 LINE SMOOTH",
"65 174 OFFCURVE",
"56 162 OFFCURVE",
"56 151 CURVE SMOOTH",
"56 140 OFFCURVE",
"65 129 OFFCURVE",
"83 129 CURVE SMOOTH"
);
},
{
closed = 1;
nodes = (
"316 234 LINE SMOOTH",
"334 234 OFFCURVE",
"343 245 OFFCURVE",
"343 257 CURVE SMOOTH",
"343 268 OFFCURVE",
"334 279 OFFCURVE",
"316 279 CURVE SMOOTH",
"149 279 LINE",
"152 265 LINE",
"328 356 LINE SMOOTH",
"344 364 OFFCURVE",
"346 380 OFFCURVE",
"338 391 CURVE SMOOTH",
"330 401 OFFCURVE",
"318 401 OFFCURVE",
"301 392 CURVE SMOOTH",
"75 276 LINE SMOOTH",
"66 271 OFFCURVE",
"62 264 OFFCURVE",
"62 256 CURVE SMOOTH",
"62 245 OFFCURVE",
"71 234 OFFCURVE",
"89 234 CURVE SMOOTH"
);
}
);
vertWidth = 0;
width = 426;
},
{
layerId = m002;
leftMetricsKey = n;
rightMetricsKey = n;
paths = (
{
closed = 1;
nodes = (
"315 106 LINE SMOOTH",
"349 106 OFFCURVE",
"361 130 OFFCURVE",
"361 149 CURVE SMOOTH",
"361 169 OFFCURVE",
"349 192 OFFCURVE",
"315 192 CURVE SMOOTH",
"88 192 LINE SMOOTH",
"54 192 OFFCURVE",
"42 169 OFFCURVE",
"42 149 CURVE SMOOTH",
"42 129 OFFCURVE",
"54 106 OFFCURVE",
"88 106 CURVE SMOOTH"
);
},
{
closed = 1;
nodes = (
"313 221 LINE SMOOTH",
"346 221 OFFCURVE",
"359 244 OFFCURVE",
"359 264 CURVE SMOOTH",
"359 283 OFFCURVE",
"347 307 OFFCURVE",
"313 307 CURVE SMOOTH",
"181 307 LINE",
"192 281 LINE",
"334 343 LINE SMOOTH",
"365 356 OFFCURVE",
"365 388 OFFCURVE",
"350 408 CURVE SMOOTH",
"337 425 OFFCURVE",
"318 432 OFFCURVE",
"289 416 CURVE SMOOTH",
"85 302 LINE SMOOTH",
"67 292 OFFCURVE",
"61 278 OFFCURVE",
"61 264 CURVE SMOOTH",
"61 245 OFFCURVE",
"73 221 OFFCURVE",
"107 221 CURVE SMOOTH"
);
}
);
vertWidth = 0;
width = 426;
}
);
note = "";
unicode = 2264;
},
{
glyphname = plusminus;
layers = (
{
layerId = m01;
leftMetricsKey = n;
rightMetricsKey = n;
paths = (
{
closed = 1;
nodes = (
"209 186 OFFCURVE",
"221 192 OFFCURVE",
"223 208 CURVE SMOOTH",
"236 340 LINE SMOOTH",
"238 358 OFFCURVE",
"229 371 OFFCURVE",
"216 371 CURVE",
"207 371 OFFCURVE",
"193 365 OFFCURVE",
"192 350 CURVE SMOOTH",
"180 218 LINE SMOOTH",
"178 199 OFFCURVE",
"187 186 OFFCURVE",
"199 186 CURVE SMOOTH"
);
},
{
closed = 1;
nodes = (
"321 257 LINE SMOOTH",
"339 257 OFFCURVE",
"348 269 OFFCURVE",
"348 280 CURVE SMOOTH",
"348 291 OFFCURVE",
"339 302 OFFCURVE",
"321 302 CURVE SMOOTH",
"94 302 LINE SMOOTH",
"76 302 OFFCURVE",
"67 291 OFFCURVE",
"67 280 CURVE SMOOTH",
"67 268 OFFCURVE",
"76 257 OFFCURVE",
"94 257 CURVE SMOOTH"
);
},
{
closed = 1;
nodes = (
"310 129 LINE SMOOTH",
"328 129 OFFCURVE",
"337 141 OFFCURVE",
"337 152 CURVE SMOOTH",
"337 163 OFFCURVE",
"328 174 OFFCURVE",
"310 174 CURVE SMOOTH",
"83 174 LINE SMOOTH",
"65 174 OFFCURVE",
"56 163 OFFCURVE",
"56 152 CURVE SMOOTH",
"56 140 OFFCURVE",
"65 129 OFFCURVE",
"83 129 CURVE SMOOTH"
);
}
);
vertWidth = 0;
width = 426;
},
{
layerId = m002;
leftMetricsKey = n;
rightMetricsKey = n;
paths = (
{
closed = 1;
nodes = (
"230 206 OFFCURVE",
"254 214 OFFCURVE",
"257 243 CURVE SMOOTH",
"281 465 LINE SMOOTH",
"285 500 OFFCURVE",
"265 520 OFFCURVE",
"244 520 CURVE SMOOTH",
"227 520 OFFCURVE",
"201 515 OFFCURVE",
"198 486 CURVE SMOOTH",
"174 263 LINE",
"166 225 OFFCURVE",
"191 206 OFFCURVE",
"212 206 CURVE SMOOTH"
);
},
{
closed = 1;
nodes = (
"339 322 LINE SMOOTH",
"373 322 OFFCURVE",
"385 346 OFFCURVE",
"385 365 CURVE SMOOTH",
"385 385 OFFCURVE",
"373 408 OFFCURVE",
"339 408 CURVE SMOOTH",
"112 408 LINE SMOOTH",
"78 408 OFFCURVE",
"66 385 OFFCURVE",
"66 365 CURVE SMOOTH",
"66 345 OFFCURVE",
"78 322 OFFCURVE",
"112 322 CURVE SMOOTH"
);
},
{
closed = 1;
nodes = (
"315 100 LINE SMOOTH",
"349 100 OFFCURVE",
"361 124 OFFCURVE",
"361 143 CURVE SMOOTH",
"361 163 OFFCURVE",
"349 186 OFFCURVE",
"315 186 CURVE SMOOTH",
"88 186 LINE SMOOTH",
"54 186 OFFCURVE",
"42 163 OFFCURVE",
"42 143 CURVE SMOOTH",
"42 123 OFFCURVE",
"54 100 OFFCURVE",
"88 100 CURVE SMOOTH"
);
}
);
vertWidth = 0;
width = 426;
}
);
note = "";
unicode = 00B1;
},
{
glyphname = approxequal;
layers = (
{
layerId = m01;
leftMetricsKey = n;
rightMetricsKey = n;
paths = (
{
closed = 1;
nodes = (
"109 138 OFFCURVE",
"127 145 OFFCURVE",
"140 145 CURVE SMOOTH",
"181 145 OFFCURVE",
"215 117 OFFCURVE",
"253 117 CURVE SMOOTH",
"279 117 OFFCURVE",
"305 127 OFFCURVE",
"323 134 CURVE SMOOTH",
"338 140 OFFCURVE",
"345 151 OFFCURVE",
"340 164 CURVE SMOOTH",
"335 177 OFFCURVE",
"323 181 OFFCURVE",
"307 175 CURVE SMOOTH",
"292 169 OFFCURVE",
"274 162 OFFCURVE",
"261 162 CURVE SMOOTH",
"223 162 OFFCURVE",
"189 190 OFFCURVE",
"148 190 CURVE SMOOTH",
"122 190 OFFCURVE",
"96 180 OFFCURVE",
"78 173 CURVE SMOOTH",
"63 167 OFFCURVE",
"56 156 OFFCURVE",
"61 143 CURVE SMOOTH",
"66 130 OFFCURVE",
"78 126 OFFCURVE",
"94 132 CURVE SMOOTH"
);
},
{
closed = 1;
nodes = (
"127 289 OFFCURVE",
"145 296 OFFCURVE",
"158 296 CURVE SMOOTH",
"199 296 OFFCURVE",
"233 268 OFFCURVE",
"271 268 CURVE SMOOTH",
"297 268 OFFCURVE",
"323 278 OFFCURVE",
"341 285 CURVE SMOOTH",
"356 291 OFFCURVE",
"363 302 OFFCURVE",
"358 315 CURVE SMOOTH",
"353 328 OFFCURVE",
"341 332 OFFCURVE",
"325 326 CURVE SMOOTH",
"310 320 OFFCURVE",
"292 313 OFFCURVE",
"279 313 CURVE SMOOTH",
"241 313 OFFCURVE",
"207 341 OFFCURVE",
"166 341 CURVE SMOOTH",
"140 341 OFFCURVE",
"114 331 OFFCURVE",
"96 324 CURVE SMOOTH",
"81 318 OFFCURVE",
"74 307 OFFCURVE",
"79 294 CURVE SMOOTH",
"84 281 OFFCURVE",
"96 277 OFFCURVE",
"112 283 CURVE SMOOTH"
);
}
);
vertWidth = 0;
width = 426;
},
{
layerId = m002;
leftMetricsKey = n;
rightMetricsKey = n;
paths = (
{
closed = 1;
nodes = (
"124 124 OFFCURVE",
"136 131 OFFCURVE",
"146 131 CURVE SMOOTH",
"179 131 OFFCURVE",
"214 109 OFFCURVE",
"249 109 CURVE SMOOTH",
"276 109 OFFCURVE",
"303 116 OFFCURVE",
"323 124 CURVE SMOOTH",
"354 137 OFFCURVE",
"362 162 OFFCURVE",
"353 183 CURVE SMOOTH",
"343 205 OFFCURVE",
"322 215 OFFCURVE",
"288 201 CURVE SMOOTH",
"278 197 OFFCURVE",
"265 192 OFFCURVE",
"256 192 CURVE SMOOTH",
"221 192 OFFCURVE",
"190 214 OFFCURVE",
"153 214 CURVE SMOOTH",
"125 214 OFFCURVE",
"98 205 OFFCURVE",
"79 196 CURVE SMOOTH",
"47 181 OFFCURVE",
"38 157 OFFCURVE",
"48 136 CURVE SMOOTH",
"58 114 OFFCURVE",
"80 104 OFFCURVE",
"113 119 CURVE SMOOTH"
);
},
{
closed = 1;
nodes = (
"139 264 OFFCURVE",
"151 271 OFFCURVE",
"161 271 CURVE SMOOTH",
"194 271 OFFCURVE",
"229 249 OFFCURVE",
"264 249 CURVE SMOOTH",
"291 249 OFFCURVE",
"318 256 OFFCURVE",
"338 264 CURVE SMOOTH",
"369 277 OFFCURVE",
"377 302 OFFCURVE",
"368 323 CURVE SMOOTH",
"358 345 OFFCURVE",
"337 355 OFFCURVE",
"303 341 CURVE SMOOTH",
"293 337 OFFCURVE",
"280 332 OFFCURVE",
"271 332 CURVE SMOOTH",
"236 332 OFFCURVE",
"205 354 OFFCURVE",
"168 354 CURVE SMOOTH",
"140 354 OFFCURVE",
"113 345 OFFCURVE",
"94 336 CURVE SMOOTH",
"62 321 OFFCURVE",
"53 297 OFFCURVE",
"63 276 CURVE SMOOTH",
"73 254 OFFCURVE",
"95 244 OFFCURVE",
"128 259 CURVE SMOOTH"
);
}
);
vertWidth = 0;
width = 426;
}
);
note = "";
unicode = 2248;
},
{
glyphname = asciicircum;
layers = (
{
layerId = m01;
leftMetricsKey = N;
rightMetricsKey = N;
paths = (
{
closed = 1;
nodes = (
"243 409 LINE",
"201 413 LINE",
"299 296 LINE SMOOTH",
"310 283 OFFCURVE",
"325 285 OFFCURVE",
"334 293 CURVE SMOOTH",
"344 302 OFFCURVE",
"347 317 OFFCURVE",
"337 329 CURVE SMOOTH",
"244 439 LINE SMOOTH",
"236 449 OFFCURVE",
"219 451 OFFCURVE",
"205 439 CURVE SMOOTH",
"72 328 LINE SMOOTH",
"60 318 OFFCURVE",
"61 304 OFFCURVE",
"69 295 CURVE SMOOTH",
"78 286 OFFCURVE",
"90 281 OFFCURVE",
"106 294 CURVE SMOOTH"
);
}
);
vertWidth = 0;
width = 411;
},
{
layerId = m002;
leftMetricsKey = N;
rightMetricsKey = N;
paths = (
{
closed = 1;
nodes = (
"252 388 LINE",
"222 390 LINE",
"312 284 LINE SMOOTH",
"330 262 OFFCURVE",
"354 267 OFFCURVE",
"368 279 CURVE SMOOTH",
"383 292 OFFCURVE",
"388 316 OFFCURVE",
"372 335 CURVE SMOOTH",
"272 454 LINE SMOOTH",
"259 469 OFFCURVE",
"236 475 OFFCURVE",
"213 456 CURVE SMOOTH",
"77 342 LINE SMOOTH",
"57 325 OFFCURVE",
"60 302 OFFCURVE",
"73 287 CURVE",
"87 273 OFFCURVE",
"106 264 OFFCURVE",
"130 284 CURVE SMOOTH"
);
}
);
vertWidth = 0;
width = 450;
}
);
note = "";
unicode = 005E;
},
{
glyphname = "infinity";
layers = (
{
layerId = m01;
leftMetricsKey = o;
rightMetricsKey = o;
paths = (
{
closed = 1;
nodes = (
"212 80 OFFCURVE",
"279 128 OFFCURVE",
"342 193 CURVE",
"314 230 LINE",
"258 175 OFFCURVE",
"199 125 OFFCURVE",
"150 125 CURVE SMOOTH",
"110 125 OFFCURVE",
"92 169 OFFCURVE",
"106 227 CURVE SMOOTH",
"121 286 OFFCURVE",
"150 316 OFFCURVE",
"193 316 CURVE SMOOTH",
"227 316 OFFCURVE",
"263 288 OFFCURVE",
"300 233 CURVE SMOOTH",
"336 180 LINE SMOOTH",
"381 114 OFFCURVE",
"429 80 OFFCURVE",
"476 80 CURVE SMOOTH",
"553 80 OFFCURVE",
"602 125 OFFCURVE",
"622 215 CURVE SMOOTH",
"637 281 OFFCURVE",
"616 361 OFFCURVE",
"535 361 CURVE SMOOTH",
"465 361 OFFCURVE",
"398 313 OFFCURVE",
"335 248 CURVE",
"363 211 LINE",
"419 266 OFFCURVE",
"478 316 OFFCURVE",
"527 316 CURVE SMOOTH",
"567 316 OFFCURVE",
"585 272 OFFCURVE",
"571 214 CURVE SMOOTH",
"556 155 OFFCURVE",
"527 125 OFFCURVE",
"484 125 CURVE SMOOTH",
"450 125 OFFCURVE",
"414 153 OFFCURVE",
"377 208 CURVE SMOOTH",
"341 261 LINE SMOOTH",
"296 327 OFFCURVE",
"248 361 OFFCURVE",
"201 361 CURVE SMOOTH",
"124 361 OFFCURVE",
"75 316 OFFCURVE",
"55 226 CURVE SMOOTH",
"40 160 OFFCURVE",
"61 80 OFFCURVE",
"142 80 CURVE SMOOTH"
);
}
);
vertWidth = 0;
width = 701;
},
{
layerId = m002;
leftMetricsKey = o;
rightMetricsKey = o;
paths = (
{
closed = 1;
nodes = (
"235 70 OFFCURVE",
"307 121 OFFCURVE",
"364 181 CURVE",
"306 246 LINE",
"266 206 OFFCURVE",
"214 157 OFFCURVE",
"178 157 CURVE SMOOTH",
"148 157 OFFCURVE",
"136 181 OFFCURVE",
"146 220 CURVE SMOOTH",
"156 260 OFFCURVE",
"182 284 OFFCURVE",
"214 284 CURVE SMOOTH",
"234 284 OFFCURVE",
"264 258 OFFCURVE",
"291 217 CURVE SMOOTH",
"321 173 LINE SMOOTH",
"365 109 OFFCURVE",
"421 70 OFFCURVE",
"465 70 CURVE SMOOTH",
"551 70 OFFCURVE",
"613 124 OFFCURVE",
"631 211 CURVE SMOOTH",
"656 310 OFFCURVE",
"612 371 OFFCURVE",
"515 371 CURVE SMOOTH",
"452 371 OFFCURVE",
"380 320 OFFCURVE",
"323 260 CURVE",
"381 195 LINE",
"421 235 OFFCURVE",
"473 284 OFFCURVE",
"509 284 CURVE SMOOTH",
"541 284 OFFCURVE",
"551 261 OFFCURVE",
"541 221 CURVE SMOOTH",
"531 181 OFFCURVE",
"507 157 OFFCURVE",
"473 157 CURVE SMOOTH",
"448 157 OFFCURVE",
"418 183 OFFCURVE",
"396 224 CURVE SMOOTH",
"366 278 LINE SMOOTH",
"334 335 OFFCURVE",
"278 371 OFFCURVE",
"220 371 CURVE SMOOTH",
"138 371 OFFCURVE",
"76 317 OFFCURVE",
"56 230 CURVE SMOOTH",
"33 131 OFFCURVE",
"77 70 OFFCURVE",
"172 70 CURVE SMOOTH"
);
}
);
vertWidth = 0;
width = 711;
}
);
note = "";
unicode = 221E;
},
{
glyphname = percent;
layers = (
{
layerId = m01;
leftMetricsKey = N;
rightMetricsKey = N;
paths = (
{
closed = 1;
nodes = (
"134 0 OFFCURVE",
"141 10 OFFCURVE",
"151 23 CURVE SMOOTH",
"581 606 LINE SMOOTH",
"598 629 OFFCURVE",
"586 650 OFFCURVE",
"565 650 CURVE SMOOTH",
"552 650 OFFCURVE",
"545 640 OFFCURVE",
"535 627 CURVE SMOOTH",
"105 44 LINE SMOOTH",
"88 21 OFFCURVE",
"100 0 OFFCURVE",
"121 0 CURVE SMOOTH"
);
},
{
closed = 1;
nodes = (
"267 343 OFFCURVE",
"349 443 OFFCURVE",
"349 554 CURVE SMOOTH",
"349 611 OFFCURVE",
"312 650 OFFCURVE",
"251 650 CURVE",
"159 650 OFFCURVE",
"77 550 OFFCURVE",
"77 439 CURVE SMOOTH",
"77 382 OFFCURVE",
"114 343 OFFCURVE",
"175 343 CURVE"
);
},
{
closed = 1;
nodes = (
"145 388 OFFCURVE",
"127 416 OFFCURVE",
"127 449 CURVE SMOOTH",
"127 524 OFFCURVE",
"182 605 OFFCURVE",
"244 605 CURVE SMOOTH",
"281 605 OFFCURVE",
"299 577 OFFCURVE",
"299 544 CURVE SMOOTH",
"299 462 OFFCURVE",
"238 388 OFFCURVE",
"182 388 CURVE SMOOTH"
);
},
{
closed = 1;
nodes = (
"538 0 OFFCURVE",
"620 100 OFFCURVE",
"620 211 CURVE SMOOTH",
"620 268 OFFCURVE",
"583 307 OFFCURVE",
"522 307 CURVE",
"430 307 OFFCURVE",
"348 207 OFFCURVE",
"348 96 CURVE SMOOTH",
"348 39 OFFCURVE",
"385 0 OFFCURVE",
"446 0 CURVE"
);
},
{
closed = 1;
nodes = (
"416 45 OFFCURVE",
"398 73 OFFCURVE",
"398 106 CURVE SMOOTH",
"398 181 OFFCURVE",
"453 262 OFFCURVE",
"515 262 CURVE SMOOTH",
"552 262 OFFCURVE",
"570 234 OFFCURVE",
"570 201 CURVE SMOOTH",
"570 119 OFFCURVE",
"509 45 OFFCURVE",
"453 45 CURVE SMOOTH"
);
}
);
vertWidth = 0;
width = 699;
},
{
layerId = m002;
leftMetricsKey = N;
rightMetricsKey = N;
paths = (
{
closed = 1;
nodes = (
"204 0 OFFCURVE",
"217 10 OFFCURVE",
"233 32 CURVE SMOOTH",
"627 566 LINE SMOOTH",
"666 619 OFFCURVE",
"628 650 OFFCURVE",
"591 650 CURVE SMOOTH",
"571 650 OFFCURVE",
"558 640 OFFCURVE",
"541 618 CURVE SMOOTH",
"147 84 LINE SMOOTH",
"108 31 OFFCURVE",
"147 0 OFFCURVE",
"184 0 CURVE SMOOTH"
);
},
{
closed = 1;
nodes = (
"290 314 OFFCURVE",
"380 416 OFFCURVE",
"380 535 CURVE SMOOTH",
"380 603 OFFCURVE",
"337 650 OFFCURVE",
"263 650 CURVE SMOOTH",
"167 650 OFFCURVE",
"76 549 OFFCURVE",
"76 429 CURVE SMOOTH",
"76 361 OFFCURVE",
"120 314 OFFCURVE",
"194 314 CURVE SMOOTH"
);
},
{
closed = 1;
nodes = (
"183 410 OFFCURVE",
"177 425 OFFCURVE",
"177 439 CURVE SMOOTH",
"177 490 OFFCURVE",
"211 554 OFFCURVE",
"257 554 CURVE SMOOTH",
"274 554 OFFCURVE",
"280 539 OFFCURVE",
"280 525 CURVE SMOOTH",
"280 470 OFFCURVE",
"241 410 OFFCURVE",
"200 410 CURVE SMOOTH"
);
},
{
closed = 1;
nodes = (
"609 0 OFFCURVE",
"700 101 OFFCURVE",
"700 221 CURVE SMOOTH",
"700 289 OFFCURVE",
"656 336 OFFCURVE",
"582 336 CURVE SMOOTH",
"486 336 OFFCURVE",
"396 234 OFFCURVE",
"396 115 CURVE SMOOTH",
"396 47 OFFCURVE",
"439 0 OFFCURVE",
"513 0 CURVE SMOOTH"
);
},
{
closed = 1;
nodes = (
"502 96 OFFCURVE",
"496 111 OFFCURVE",
"496 125 CURVE SMOOTH",
"496 176 OFFCURVE",
"530 240 OFFCURVE",
"576 240 CURVE SMOOTH",
"593 240 OFFCURVE",
"599 225 OFFCURVE",
"599 211 CURVE SMOOTH",
"599 156 OFFCURVE",
"561 96 OFFCURVE",
"519 96 CURVE SMOOTH"
);
}
);
vertWidth = 0;
width = 778;
}
);
note = "";
unicode = 0025;
},
{
glyphname = grave;
layers = (
{
layerId = m01;
leftMetricsKey = N;
rightMetricsKey = N;
paths = (
{
closed = 1;
nodes = (
"273 447 OFFCURVE",
"286 444 OFFCURVE",
"295 449 CURVE SMOOTH",
"303 453 OFFCURVE",
"306 463 OFFCURVE",
"300 477 CURVE SMOOTH",
"258 573 LINE SMOOTH",
"252 586 OFFCURVE",
"239 591 OFFCURVE",
"228 591 CURVE SMOOTH",
"212 590 OFFCURVE",
"197 576 OFFCURVE",
"210 554 CURVE SMOOTH",
"264 462 LINE SMOOTH"
);
}
);
vertWidth = 0;
width = 500;
},
{
layerId = m002;
leftMetricsKey = N;
rightMetricsKey = N;
paths = (
{
closed = 1;
nodes = (
"269 442 OFFCURVE",
"292 448 OFFCURVE",
"305 455 CURVE SMOOTH",
"317 461 OFFCURVE",
"343 479 OFFCURVE",
"329 506 CURVE SMOOTH",
"280 602 LINE SMOOTH",
"271 620 OFFCURVE",
"255 628 OFFCURVE",
"240 628 CURVE SMOOTH",
"214 628 OFFCURVE",
"174 598 OFFCURVE",
"196 562 CURVE SMOOTH",
"253 468 LINE SMOOTH"
);
}
);
vertWidth = 0;
width = 500;
}
);
note = "";
unicode = 0060;
},
{
glyphname = tilde;
layers = (
{
layerId = m01;
leftMetricsKey = n;
rightMetricsKey = n;
paths = (
{
closed = 1;
nodes = (
"187 420 OFFCURVE",
"203 422 OFFCURVE",
"213 434 CURVE SMOOTH",
"223 446 OFFCURVE",
"235 455 OFFCURVE",
"253 455 CURVE SMOOTH",
"276 455 OFFCURVE",
"307 424 OFFCURVE",
"338 424 CURVE SMOOTH",
"369 424 OFFCURVE",
"399 438 OFFCURVE",
"417 460 CURVE SMOOTH",
"426 472 OFFCURVE",
"430 485 OFFCURVE",
"420 495 CURVE SMOOTH",
"411 504 OFFCURVE",
"394 502 OFFCURVE",
"385 490 CURVE SMOOTH",
"374 476 OFFCURVE",
"361 469 OFFCURVE",
"344 469 CURVE SMOOTH",
"323 469 OFFCURVE",
"293 500 OFFCURVE",
"260 500 CURVE SMOOTH",
"228 500 OFFCURVE",
"198 486 OFFCURVE",
"181 464 CURVE SMOOTH",
"172 453 OFFCURVE",
"169 438 OFFCURVE",
"178 429 CURVE SMOOTH"
);
}
